<svg width="123" height="115" viewBox="0 0 123 115" fill="none" xmlns="http://www.w3.org/2000/svg">
<path d="M68.9908 87.055C68.9435 87.0672 68.9033 87.0965 68.8791 87.1364C68.8549 87.1763 68.8486 87.2236 68.8617 87.2678C68.8747 87.312 68.906 87.3496 68.9487 87.3722C68.9914 87.3949 69.0419 87.4007 69.0892 87.3885C70.6433 87.0703 72.1004 86.4275 73.3511 85.5083C78.1051 82.225 77.8591 77.5675 80.5651 73.3068C82.7299 70.058 84.6302 70.4318 84.4826 70.012C84.4772 69.9954 84.4681 69.9801 84.456 69.9669C84.4438 69.9537 84.4289 69.943 84.4122 69.9355C84.3955 69.9279 84.3773 69.9237 84.3587 69.923C84.3401 69.9223 84.3216 69.9252 84.3043 69.9315C75.7927 72.8583 80.602 83.2945 68.9908 87.055ZM103.437 76.8315C103.677 76.5958 103.917 76.3485 104.15 76.1013C105.958 74.0485 107.225 70.8688 107.102 68.5285C107.099 68.5033 107.089 68.4794 107.072 68.4593C107.055 68.4393 107.033 68.424 107.008 68.4151C106.982 68.4062 106.955 68.404 106.928 68.4088C106.901 68.4136 106.876 68.4252 106.856 68.4423C106.672 68.609 107.188 69.529 105.891 72.427C104.661 75.1755 103.585 75.877 102.373 77.1593C101.288 78.3309 100.463 79.693 99.9463 81.1659C99.43 82.6389 99.2326 84.1932 99.3657 85.7383C99.3727 85.7708 99.3916 85.8 99.419 85.821C99.4465 85.842 99.4809 85.8534 99.5163 85.8534C99.5518 85.8534 99.5862 85.842 99.6136 85.821C99.6411 85.8 99.6599 85.7708 99.667 85.7383C99.6248 84.0932 99.9369 82.457 100.584 80.9269C101.232 79.3969 102.202 78.0041 103.437 76.8315ZM49.44 52.003C50.055 51.6063 50.0119 50.393 49.44 49.9445C49.2782 49.8225 49.0897 49.7352 48.8878 49.689C48.6859 49.6429 48.4756 49.6388 48.2718 49.6773C48.0681 49.7157 47.8759 49.7956 47.7089 49.9114C47.542 50.0272 47.4044 50.1759 47.3059 50.347C47.1918 50.6145 47.1712 50.909 47.2472 51.1881C47.3232 51.4672 47.4918 51.7167 47.7288 51.9006C47.9659 52.0845 48.2592 52.1935 48.5666 52.2119C48.874 52.2303 49.1798 52.1572 49.44 52.003ZM47.7487 50.6863C47.9332 50.0308 49.1448 49.9388 49.3293 50.5943C49.4523 51.0428 49.3969 51.359 49.1509 51.5315C49.003 51.6175 48.8349 51.6682 48.6612 51.6792C48.4875 51.6902 48.3135 51.6613 48.1546 51.5948C47.9882 51.5074 47.8578 51.3705 47.7843 51.2059C47.7107 51.0413 47.6982 50.8583 47.7487 50.6863ZM70.4545 41.3655C70.4309 41.3639 70.4072 41.3669 70.3848 41.3743C70.3625 41.3817 70.342 41.3933 70.3247 41.4084C70.3074 41.4235 70.2936 41.4418 70.2842 41.4621C70.2748 41.4825 70.2699 41.5044 70.27 41.5265C70.27 42.1015 69.2307 42.6765 69.04 42.734C69.0033 42.7424 68.9717 42.7641 68.9521 42.7943C68.9325 42.8245 68.9265 42.8607 68.9354 42.895C68.9444 42.9293 68.9676 42.9589 68.9999 42.9772C69.0322 42.9956 69.071 43.0012 69.1077 42.9928C70.7251 42.6823 70.9711 41.354 70.4545 41.3655ZM68.2959 40.4858C68.2221 40.4455 67.8961 40.2213 67.7793 40.135C67.7793 40.0603 68.0683 39.1 68.1236 38.916C68.179 38.732 67.9268 38.686 67.8592 38.8355C67.6019 39.3017 67.3959 39.791 67.2442 40.296C67.2934 40.4628 68.1483 40.6813 68.2098 40.6813C68.2354 40.6845 68.2614 40.6798 68.2838 40.6677C68.3062 40.6556 68.3237 40.637 68.3336 40.6146C68.3434 40.5923 68.3451 40.5675 68.3382 40.5442C68.3314 40.5209 68.3165 40.5003 68.2959 40.4858ZM66.2664 37.4038C66.2575 37.3541 66.2301 37.3089 66.189 37.2763C66.1479 37.2438 66.0958 37.2259 66.0419 37.2259C65.988 37.2259 65.9359 37.2438 65.8947 37.2763C65.8536 37.3089 65.8262 37.3541 65.8174 37.4038C65.794 37.8002 65.794 38.1976 65.8174 38.594C65.8559 38.653 65.9144 38.6982 65.9835 38.7226C66.0527 38.747 66.1285 38.7491 66.1991 38.7287C66.2697 38.7082 66.3309 38.6663 66.3732 38.6097C66.4154 38.553 66.4363 38.4848 66.4324 38.4158C66.3472 38.0833 66.2917 37.7448 66.2664 37.4038ZM70.5652 38.41C70.4863 38.0803 70.4309 37.7461 70.3992 37.4095C70.3992 37.3531 70.3752 37.299 70.3325 37.2591C70.2898 37.2192 70.232 37.1968 70.1716 37.1968C70.1112 37.1968 70.0534 37.2192 70.0107 37.2591C69.968 37.299 69.9441 37.3531 69.9441 37.4095C69.9217 37.7926 69.9217 38.1765 69.9441 38.5595C69.9475 38.604 69.9614 38.6473 69.9847 38.6863C70.008 38.7252 70.0401 38.7589 70.0789 38.785C70.1177 38.811 70.1621 38.8288 70.209 38.837C70.2559 38.8453 70.3042 38.8438 70.3504 38.8327C70.3966 38.8215 70.4397 38.801 70.4765 38.7726C70.5134 38.7443 70.5431 38.7086 70.5636 38.6683C70.584 38.628 70.5948 38.584 70.5951 38.5393C70.5954 38.4947 70.5852 38.4506 70.5652 38.41Z" fill="black"/>
<path d="M118.695 30.5786C118.652 26.9963 117.367 25.5818 113.4 25.6911C112.268 25.6911 92.0901 25.8808 90.6449 25.9268C89.6759 25.9271 88.7173 26.113 87.8282 26.4731C87.3177 26.6628 84.6487 27.9106 84.3535 28.5718C84.0337 29.0433 84.4088 42.4753 84.3535 45.2468C83.9262 45.0193 83.4869 44.812 83.0374 44.6258C82.9561 44.2481 82.7837 43.8927 82.5332 43.5868C82.2827 43.2809 81.9609 43.0325 81.5921 42.8606C81.0263 42.6536 80.3006 42.9008 79.8824 42.5271C79.4642 42.1533 80.2145 41.9521 80.2944 41.3771C80.292 40.9784 80.2425 40.5811 80.1469 40.1926C79.7762 38.1082 79.2584 36.049 78.5971 34.0286C78.0435 32.3668 77.4655 30.9581 75.8726 30.0553C75.8726 27.2608 75.5713 10.8848 75.4052 10.0166C75.2415 9.15966 74.7527 8.38672 74.0285 7.8396C73.3044 7.29248 72.3935 7.00789 71.4631 7.03806C71.4016 7.03806 29.0773 7.03806 29.0281 7.08406C27.3368 8.02706 26.8817 10.1316 26.771 11.6841C26.7341 12.4603 27.4598 28.1348 27.7489 33.1143C24.7538 33.1718 9.62481 33.5513 8.75766 33.9826C6.79581 34.4311 4.62486 35.7076 4.20051 37.7833C3.93606 39.1173 4.47111 64.7451 4.64946 65.9583C4.77718 67.2688 5.40346 68.4929 6.41451 69.4083C7.51536 70.3111 9.01596 70.4778 10.3382 70.5238L38.4007 70.0293C35.6578 75.8368 32.4967 84.0708 30.4057 89.1941C30.3958 89.2087 30.3906 89.2257 30.3906 89.2429C30.3906 89.2602 30.3958 89.2772 30.4057 89.2918C30.9716 89.8115 31.5894 90.2794 32.2507 90.6891C31.2482 93.8918 31.3589 94.0701 31.1375 94.3288C29.2372 96.5081 26.9432 97.7788 24.68 97.9858C23.6284 98.0951 22.589 98.2676 22.22 99.2221C21.9187 100.09 22.7182 100.671 23.653 100.913C24.268 101.068 28.4623 101.936 29.0834 102.005C29.6338 102.091 30.1985 101.974 30.6578 101.677C31.1006 101.373 32.5582 99.7626 33.1178 99.2796C32.1031 103.88 31.3958 102.413 33.8128 103.397C33.8465 103.413 33.8838 103.423 33.922 103.425C33.9602 103.426 33.9984 103.42 34.0337 103.406C34.069 103.393 34.1006 103.372 34.1262 103.345C34.1518 103.319 34.1708 103.287 34.1818 103.253C34.6123 102.103 37.5274 95.5306 38.7143 93.8228C39.0034 100.769 38.9542 100.407 39.0587 100.435C39.4708 100.533 39.9197 100.625 40.381 100.711C40.381 101.677 40.4117 102.666 40.4978 103.747C40.4978 103.782 40.4486 103.839 40.3994 103.931C38.8742 107.059 37.1645 108.336 35.3072 109.106C34.4831 109.451 33.3454 109.923 33.3761 110.987C33.3761 111.907 34.3847 112.2 35.3626 112.165C36.8324 112.119 38.7327 111.935 39.5938 111.895C42.0538 111.757 42.1153 111.32 43.1608 109.348C43.4006 108.894 43.6835 108.353 43.8434 108.089C44.1325 111.32 43.7512 111.797 44.2247 111.774C45.5101 111.711 46.0697 112.039 46.0697 111.608C46.1189 110.423 46.6847 105.766 46.9799 104.621C46.9799 104.489 46.8815 104.414 46.7339 104.386C46.9184 103.316 47.3489 101.212 47.4043 100.826C47.7118 100.786 48.0193 100.74 48.2591 100.688C48.3268 100.688 48.2591 100.993 49.2985 96.9853C56.7646 99.7396 64.7288 100.401 71.8751 98.8311C72.1273 99.7453 73.9538 105.978 74.9501 108.71C75.2896 109.602 75.7417 110.453 76.297 111.245C76.4384 111.372 76.6782 111.596 76.9119 111.596C77.1456 111.596 77.4039 111.291 77.4654 110.981C77.5269 110.67 76.5614 101.603 76.2355 98.3308C77.6966 97.9924 79.1135 97.5045 80.4605 96.8761L82.4531 103.063C82.5114 103.155 82.5992 103.228 82.7041 103.271C82.809 103.314 82.9257 103.325 83.0378 103.303C83.1498 103.281 83.2516 103.226 83.3288 103.147C83.4059 103.068 83.4546 102.968 83.4678 102.862L83.2772 95.4501C84.2083 94.8827 85.0998 94.2605 85.9463 93.5871C86.3307 93.9344 86.7629 94.2322 87.2316 94.4726C87.2798 94.4974 87.3366 94.5035 87.3895 94.4895C87.4425 94.4755 87.4874 94.4426 87.5145 94.3978C88.026 93.6748 88.5998 92.9921 89.2304 92.3566C89.1074 93.0983 88.8675 94.6163 88.8368 95.0878C88.836 95.1182 88.8417 95.1485 88.8538 95.1768C88.8659 95.205 88.884 95.2307 88.907 95.2522C88.93 95.2737 88.9574 95.2906 88.9877 95.3019C89.0179 95.3132 89.0503 95.3186 89.0828 95.3178C89.7359 95.2987 90.388 95.3783 91.0139 95.5536C89.009 96.4563 88.0927 97.2211 88.2157 97.8536C88.4559 98.983 88.7932 100.093 89.2243 101.171C89.5564 102.068 89.9007 103 90.934 103.391C95.6694 105.265 102.705 103.897 107.459 102.028C111.493 100.55 112.084 98.1583 111.727 94.7773C111.653 94.1333 110.854 94.0586 109.175 94.0988L113.265 89.2631C114.495 87.8888 113.424 87.9348 113.037 85.2381C113.408 85.7513 113.853 86.2138 114.359 86.6123C114.389 86.6344 114.424 86.6504 114.461 86.6593C114.498 86.6682 114.537 86.6698 114.575 86.6641C114.741 86.6353 114.611 86.7158 116.137 84.1513C116.166 84.1046 116.177 84.0499 116.168 83.9965C116.159 83.9432 116.13 83.8943 116.087 83.8581C115.417 83.3406 113.8 82.1331 113.8 82.1331C114.633 81.9486 115.455 81.7182 116.26 81.4431C116.451 81.3968 116.625 81.3003 116.76 81.1648C116.895 81.0293 116.986 80.8605 117.022 80.6783C117.102 80.2298 117.108 71.1966 117.121 69.9661C117.121 69.7648 116.776 69.7073 116.739 69.9258C116.02 74.4856 112.717 78.2806 108.498 79.4133C108.634 78.9016 108.978 77.7918 108.787 77.4871C108.092 77.0777 107.352 76.7385 106.58 76.4751C107.348 76.0668 109.126 75.0031 109.255 74.6753C109.335 74.4856 108.941 65.6133 108.923 64.6416C108.92 64.6015 108.903 64.5634 108.875 64.5327C108.848 64.502 108.81 64.4803 108.769 64.4707C108.727 64.4611 108.683 64.4642 108.643 64.4794C108.604 64.4946 108.57 64.5212 108.548 64.5553C107.357 66.7536 105.595 68.6377 103.425 70.0351C103.172 70.1961 101.358 71.0988 101.217 71.2196C100.762 71.6278 101.327 72.1281 101.567 72.4443C101.739 72.6628 102.33 73.4046 102.447 73.5598C100.282 73.8071 99.71 73.1113 99.5993 73.5598C99.3866 74.1456 99.0996 74.7054 98.7444 75.2273C98.8712 75.7313 99.0335 76.2269 99.2303 76.7108C98.8699 76.7663 98.5022 76.7663 98.1417 76.7108C98.0775 76.6979 98.0104 76.7079 97.9536 76.7387C97.8967 76.7695 97.8542 76.819 97.8343 76.8776C97.662 77.4008 97.5267 77.8378 97.4037 78.2461C96.6583 77.064 95.8368 75.9253 94.9437 74.8363C94.5071 71.7198 92.9327 68.0801 89.6055 67.5971C92.1086 66.6196 93.7506 64.1068 94.1442 61.5596C95.3251 61.5596 112.385 61.5136 113.074 61.5596C116.807 61.6573 118.474 60.3233 118.824 56.7641C118.966 55.3438 118.695 30.8373 118.695 30.5786ZM33.7697 99.0381C33.7852 98.9772 33.7754 98.913 33.7423 98.8586C33.7092 98.8042 33.6553 98.7635 33.5914 98.7448C33.0932 98.5723 32.7119 98.9806 32.4352 99.2738C31.7346 100.071 30.9653 100.813 30.1351 101.493C29.6738 101.7 24.3049 100.66 23.6345 100.464C23.2737 100.388 22.9598 100.181 22.7612 99.8891C22.6835 99.6769 22.692 99.4454 22.785 99.2387C22.878 99.0319 23.049 98.8643 23.2655 98.7678C23.7391 98.4976 24.0896 98.5206 25.418 98.2906C26.7464 98.0606 28.0625 97.8363 30.3749 95.8008C30.6971 95.5123 30.9971 95.203 31.2728 94.8751C31.6568 95.6732 32.3031 96.3359 33.1178 96.7668C34.2092 97.2199 35.4281 97.3309 36.5926 97.0831C35.9776 98.2331 34.2802 101.827 33.8558 102.925C33.5176 102.799 33.1732 102.684 32.8349 102.592C33.2158 101.424 33.5279 100.238 33.7697 99.0381ZM87.779 67.5511C86.914 67.5857 86.0548 67.7013 85.2144 67.8961C82.4598 68.1872 79.6902 68.3369 76.9181 68.3446C76.5122 66.0446 76.6352 66.4701 76.5307 65.8318C76.4876 65.5558 76.4261 65.1763 76.6413 65.0556C79.5872 63.8251 82.6499 62.7096 85.5835 61.5078C86.1984 61.9276 86.2477 61.8758 86.303 61.8413C86.3294 61.8147 86.344 61.7798 86.344 61.7436C86.344 61.7073 86.3294 61.6724 86.303 61.6458C86.063 61.419 85.8105 61.2041 85.5466 61.0018C83.1856 59.0278 81.5411 56.415 80.8418 53.5268C80.8336 53.4925 80.8112 53.4626 80.7795 53.4438C80.7478 53.4249 80.7094 53.4186 80.6727 53.4262C80.636 53.4338 80.604 53.4548 80.5838 53.4844C80.5637 53.5141 80.5569 53.55 80.565 53.5843C81.0861 56.5879 82.7477 59.3153 85.2452 61.2663L76.7644 64.5438C76.5192 64.6111 76.3036 64.7502 76.1494 64.9406C75.7249 64.8327 75.3413 64.6155 75.0424 64.3138C73.4434 63.1121 72.8037 63.9343 70.7374 65.4638C70.5376 65.6047 70.3485 65.7584 70.1715 65.9238C69.0792 65.0155 67.9907 64.1031 66.9059 63.1868C66.6292 62.8073 64.1077 54.6768 63.0745 51.4108C63.8731 49.6003 65.1617 48.0151 66.8137 46.8108C67.0046 47.3562 67.2454 47.8852 67.5332 48.3921C67.9944 48.8061 68.591 48.6048 69.1691 48.4726C69.0098 48.7816 68.918 49.1172 68.8989 49.4598C68.8799 49.8024 68.9342 50.145 69.0584 50.4678C69.4938 51.3805 70.1738 52.1727 71.0325 52.7678C73.1358 54.4928 73.0313 54.4468 73.1543 54.4468C73.2111 54.4442 73.2649 54.4223 73.3056 54.3853C73.3464 54.3482 73.3713 54.2985 73.3757 54.2456C73.5848 52.2388 74.2736 51.6868 76.217 51.0486C77.2799 50.7242 78.1792 50.0476 78.7455 49.1464C79.3119 48.2451 79.5063 47.1813 79.292 46.1553C80.5774 46.1644 81.8581 46.0097 83.0988 45.6953C83.1575 45.683 83.2085 45.6494 83.2407 45.602C83.273 45.5546 83.2839 45.4972 83.271 45.4423C83.271 45.3446 83.228 45.2296 83.1973 45.1088C92.1701 49.1856 97.6375 61.8873 90.3989 66.6081C89.6116 67.101 88.7165 67.4231 87.779 67.5511ZM89.8454 68.2066C91.4259 68.5228 92.7482 69.7648 93.6092 71.9498C97.7174 82.3286 88.1418 94.9038 76.2539 97.8248C76.1801 97.1291 75.7742 93.0926 75.6943 92.7936C75.6353 92.5297 75.473 92.2959 75.2392 92.1381C74.4827 91.7471 73.1851 92.1783 72.4962 92.5578C71.8396 92.9654 71.2528 93.4636 70.7558 94.0356C70.7558 94.2196 71.6168 97.6868 71.8013 98.3941C64.3265 99.8556 56.5572 99.2318 49.4584 96.6001C50.5531 92.3451 52.0045 86.5203 52.4104 84.7148C56.6416 85.9453 62.5886 85.8303 62.6501 85.8246C62.6698 85.8197 62.6872 85.8089 62.6996 85.7938C62.712 85.7787 62.7187 85.7602 62.7187 85.7412C62.7187 85.7222 62.712 85.7037 62.6996 85.6886C62.6872 85.6735 62.6698 85.6627 62.6501 85.6578C59.2369 84.5941 56.291 81.8513 54.3599 77.9298C51.3895 72.0706 45.2272 72.1396 42.8287 75.0548C39.3601 79.2638 38.8004 91.5113 38.7451 92.9891C38.5298 93.3571 37.2937 95.6168 36.8263 96.5368C33.1363 97.3591 32.0846 95.3868 31.6357 94.5416C31.5619 94.3978 31.5988 94.7773 32.7427 90.9996C33.3577 91.2813 37.7303 92.7246 37.7365 92.2991C37.7857 87.4116 39.0526 75.7851 42.4843 73.1113C44.9443 71.2253 50.264 71.5531 52.6194 73.1861C54.1169 74.464 55.3418 75.9956 56.2295 77.6998C58.2037 81.6616 61.6046 84.5998 65.3807 85.3358C70.2207 84.9391 75.8357 77.7286 77.4408 73.1171C80.4052 69.6038 85.2944 67.5913 89.8454 68.2066ZM99.4702 91.5918C99.4783 91.6261 99.5007 91.656 99.5324 91.6749C99.5641 91.6937 99.6026 91.7001 99.6393 91.6924C99.676 91.6848 99.7079 91.6639 99.7281 91.6342C99.7483 91.6046 99.7551 91.5686 99.7469 91.5343C99.3595 89.6828 98.2647 88.0843 97.576 86.3593C96.3829 83.4096 97.25 80.2413 98.2586 77.2456C98.7085 77.3242 99.1734 77.2678 99.587 77.0846C99.9252 76.8373 99.6546 76.4176 99.2733 75.3596C99.5869 74.9162 99.8332 74.4344 100.005 73.9278C100.966 74.1405 101.966 74.1522 102.933 73.9623C102.97 73.9534 103.005 73.9362 103.034 73.9124C103.063 73.8885 103.086 73.8585 103.1 73.8249C103.115 73.7913 103.12 73.7549 103.117 73.7189C103.113 73.6828 103.101 73.648 103.08 73.6173C102.668 73.1113 101.58 71.7256 101.524 71.6221C101.469 71.5186 101.524 71.5301 101.703 71.4553C104.642 70.2046 107.053 68.0743 108.554 65.4006C108.627 67.2808 108.867 74.2786 108.8 74.5603C107.844 75.2069 106.837 75.7837 105.786 76.2853C105.74 76.309 105.703 76.3449 105.679 76.3884C105.655 76.4319 105.645 76.4811 105.651 76.5298C105.657 76.5784 105.678 76.6243 105.712 76.6617C105.746 76.6991 105.791 76.7262 105.842 76.7396C106.712 77.0178 107.555 77.364 108.363 77.7746C108.474 77.9413 108.086 79.2581 108.019 79.5973L107.404 79.7123C107.342 79.7273 107.29 79.7637 107.257 79.814C107.223 79.8644 107.212 79.9247 107.225 79.9826C107.385 81.0003 107.748 83.5073 107.748 83.5073C105.983 81.9721 105.995 81.1211 105.614 81.0866C105.576 81.0821 105.538 81.0867 105.502 81.0997C105.467 81.1128 105.435 81.134 105.411 81.1613C102.519 84.2985 100.896 88.2846 100.823 92.4256C100.83 92.4566 100.848 92.4846 100.874 92.5046C100.901 92.5246 100.934 92.5355 100.968 92.5355C101.002 92.5355 101.035 92.5246 101.061 92.5046C101.087 92.4846 101.105 92.4566 101.112 92.4256C101.344 88.5075 102.898 84.7589 105.552 81.7191C106.164 82.7043 106.967 83.574 107.92 84.2836C107.961 84.3173 108.012 84.3382 108.066 84.3433C108.12 84.3484 108.174 84.3374 108.221 84.3119C108.268 84.2865 108.306 84.2478 108.328 84.2014C108.35 84.155 108.356 84.1033 108.345 84.0536C108.345 84.0536 107.902 81.2533 107.73 80.1148C111.918 79.4191 115.515 76.0898 116.727 71.8463C116.727 74.2096 116.641 80.0688 116.641 80.1263C116.641 80.5001 116.641 80.8566 116.284 81.0233C115.276 81.3546 114.249 81.6367 113.209 81.8686C113.167 81.8791 113.128 81.9001 113.097 81.9294C113.066 81.9587 113.044 81.9952 113.033 82.0352C113.023 82.0751 113.024 82.117 113.036 82.1565C113.049 82.196 113.072 82.2316 113.105 82.2596C113.394 82.4781 115.054 83.7488 115.602 84.1571C115.602 84.1571 114.851 85.4968 114.47 86.1581C113.846 85.6186 113.33 84.98 112.945 84.2721C112.92 84.2318 112.881 84.2004 112.836 84.1825C112.79 84.1646 112.739 84.1612 112.691 84.173C112.642 84.1847 112.6 84.2109 112.569 84.2475C112.538 84.2841 112.521 84.3291 112.52 84.3756C112.693 88.2166 114.009 87.7163 112.92 88.9756C109.169 93.3858 108.511 94.8118 104.47 95.9273C105.282 92.4773 108.062 91.0801 109.175 88.5903C109.79 87.2276 109.655 85.7153 110.14 84.3468C110.479 83.397 111.032 82.5265 111.762 81.7942C112.492 81.062 113.382 80.4853 114.372 80.1033C114.407 80.0919 114.437 80.0676 114.454 80.0358C114.47 80.004 114.473 79.9672 114.461 79.9337C114.449 79.9001 114.423 79.8725 114.389 79.8569C114.354 79.8412 114.315 79.8389 114.279 79.8503C112.991 80.2755 111.853 81.0269 110.994 82.0208C110.135 83.0147 109.589 84.2121 109.415 85.4796C109.15 87.2448 109.206 88.1131 108.025 89.6598C106.721 91.3561 104.587 92.8568 103.898 96.0711C102.829 96.32 101.734 96.4626 100.632 96.4966C100.503 95.4673 99.8268 94.8636 99.3471 94.8406C98.9043 94.1161 94.2365 87.4748 92.5145 86.0201C94.4188 82.8161 95.2942 79.1666 95.036 75.5091C95.774 76.5268 97.0347 78.4358 97.2561 78.8096C95.1098 86.5491 98.6153 87.7106 99.4702 91.5918ZM89.7716 91.8448C89.7714 91.8043 89.7588 91.7646 89.7353 91.7305C89.7118 91.6964 89.6784 91.6693 89.639 91.6524C89.5995 91.6355 89.5558 91.6294 89.5128 91.635C89.4698 91.6406 89.4295 91.6575 89.3964 91.6838C88.61 92.4137 87.8958 93.2085 87.2624 94.0586C86.9002 93.861 86.5603 93.6298 86.2477 93.3686C87.734 92.1609 89.0819 90.812 90.2697 89.3436C96.801 96.6691 96.4874 96.4563 96.6719 96.3183C96.6864 96.3091 96.6987 96.2973 96.7081 96.2835C96.7176 96.2698 96.7239 96.2544 96.7268 96.2382C96.7297 96.2221 96.729 96.2056 96.7249 96.1897C96.7207 96.1738 96.7132 96.1589 96.7027 96.1458C96.2721 95.5363 91.8872 90.3958 90.5527 88.9526C91.1864 88.1337 91.7656 87.2792 92.2869 86.3938C94.7469 88.6421 98.5661 94.5588 98.9228 95.1166C98.5832 95.5732 98.4245 96.1263 98.4738 96.6806C97.6969 96.8834 96.8806 96.9169 96.0877 96.7783C95.1467 96.6058 91.6289 94.9901 89.3227 94.9268C89.4703 94.3001 89.7039 92.3853 89.79 91.8448H89.7716ZM73.6709 92.5751H73.7755C74.2551 92.4716 75.0054 92.3163 75.1838 92.7706C75.276 93.0811 77.1333 110.233 77.1333 110.762C77.1432 110.846 77.1335 110.93 77.1048 111.01C77.0761 111.089 77.0292 111.162 76.9673 111.222C75.3683 110.647 71.4323 95.3926 71.2785 94.0988C71.8984 93.382 72.7305 92.8519 73.6709 92.5751ZM8.18571 65.4236C8.18571 64.1068 7.25091 38.0018 7.34316 37.0588C7.50306 35.2821 8.18571 34.4828 9.69246 34.2988C11.2853 34.0113 26.156 33.6146 27.7796 33.5743C27.8165 34.1493 27.8473 34.5518 27.8596 34.6266C27.9277 35.0789 28.1585 35.4962 28.5139 35.8097C28.8693 36.1232 29.3283 36.3143 29.8153 36.3516C29.8153 36.2941 29.4094 36.3516 42.1153 36.3918C42.1153 38.1858 42.2321 46.6153 42.2383 47.0121C38.6221 47.1386 34.8952 47.2766 34.1818 47.3398C34.0834 47.3398 33.9973 47.5066 34.0342 47.5871C35.1043 50.0596 39.8705 60.0991 41.2051 62.6751C41.3295 62.9678 41.5434 63.2198 41.8201 63.3996C41.9923 63.6411 42.1952 63.9113 42.4351 64.1816C40.4855 65.6363 39.7844 67.2463 38.6528 69.6038C33.4438 69.7073 12.3308 70.1156 11.8573 70.0983C10.5412 70.0466 9.61251 69.6901 9.03441 69.0116C8.15496 68.0341 8.19186 66.7001 8.18571 65.4236ZM79.3351 42.4581C79.4642 42.8951 79.9501 43.1308 80.7003 43.1481C81.9919 43.0963 82.5454 44.1371 82.7791 45.3331C81.5218 45.5628 80.2465 45.6955 78.966 45.7298C78.929 45.7302 78.8925 45.7386 78.8595 45.7543C78.8265 45.7701 78.7979 45.7928 78.7758 45.8207C78.7538 45.8485 78.7389 45.8808 78.7324 45.9149C78.726 45.949 78.728 45.9841 78.7385 46.0173C78.9349 46.6737 78.9367 47.3676 78.7439 48.0249C78.5511 48.6822 78.1708 49.2782 77.6438 49.7491C75.9894 51.2383 73.3388 50.4161 72.9514 53.8488C72.3979 53.4003 70.3499 51.7731 69.9317 51.2958C69.2122 50.5196 68.9231 49.2316 69.6611 48.4208C71.2414 48.1793 72.8386 48.0467 74.4397 48.0241C74.4755 48.0241 74.5099 48.0107 74.5353 47.987C74.5607 47.9633 74.575 47.9311 74.575 47.8976C74.575 47.864 74.5607 47.8318 74.5353 47.8081C74.5099 47.7844 74.4755 47.7711 74.4397 47.7711C72.5976 47.649 70.7463 47.7729 68.9416 48.1391C68.2527 48.3173 67.9145 48.4438 67.607 47.8401C67.4533 47.5353 66.5369 44.9248 66.377 44.4418C66.0941 43.8151 66.2663 44.0048 66.7829 43.7058C67.289 44.1057 67.8572 44.4315 68.468 44.6718C68.468 44.7408 68.7878 45.6551 68.837 45.8218C68.8579 45.96 68.9318 46.0863 69.0449 46.1773C69.1581 46.2683 69.3028 46.3177 69.452 46.3163C70.8861 46.4395 72.3311 46.2432 73.6684 45.7434C75.0058 45.2437 76.1974 44.4548 77.1457 43.4413C77.1645 43.4172 77.1731 43.3874 77.1698 43.3577C77.1665 43.328 77.1516 43.3005 77.1279 43.2805C77.1042 43.2605 77.0734 43.2494 77.0415 43.2494C77.0096 43.2493 76.9787 43.2604 76.955 43.2803C76.0025 44.1804 74.8581 44.8831 73.5962 45.3428C72.3343 45.8024 70.9831 46.0088 69.6303 45.9483C69.1999 45.9196 69.2552 46.0058 68.8923 44.7983C70.5528 45.2353 70.9711 44.6431 70.3807 45.1893C70.3614 45.2108 70.3508 45.2379 70.3505 45.2659C70.3503 45.294 70.3605 45.3212 70.3795 45.343C70.3984 45.3647 70.4248 45.3796 70.4542 45.3852C70.4836 45.3907 70.5141 45.3865 70.5406 45.3733C72.7776 43.8095 74.4096 41.6076 75.1899 39.1001C75.1956 39.0838 75.1977 39.0667 75.1961 39.0497C75.1945 39.0327 75.1892 39.0162 75.1806 39.0012C75.1719 38.9861 75.1602 38.9729 75.1459 38.9622C75.1317 38.9515 75.1153 38.9437 75.0977 38.9391C74.7779 38.8356 74.9931 39.4278 73.4926 41.7221C72.8775 39.4221 73.2896 36.9898 72.6254 34.6783C72.6164 34.6455 72.5939 34.6174 72.5628 34.6002C72.5316 34.5829 72.4944 34.5779 72.4594 34.5863C72.4243 34.5947 72.3942 34.6158 72.3758 34.6449C72.3573 34.674 72.352 34.7088 72.361 34.7416C72.4687 35.2307 72.5386 35.7265 72.5701 36.2251C71.2601 35.0118 68.4926 33.0741 66.3093 33.5168C65.839 33.5304 65.3933 33.7166 65.0687 34.0351C64.7441 34.3537 64.5667 34.7789 64.5751 35.2188C64.0462 34.5518 64.4151 33.5341 64.8948 32.9706C66.1617 31.4238 68.4127 30.6706 70.6574 30.0956C72.6439 29.6011 75.3007 29.6701 76.8074 31.3491C77.461 32.187 77.9332 33.1363 78.1973 34.1436C78.9829 36.4135 79.5307 38.7494 79.8332 41.1183C79.8566 41.2138 79.8518 41.3135 79.8193 41.4067C79.7868 41.4999 79.7279 41.5831 79.6487 41.6473C79.5259 41.7456 79.4325 41.8719 79.3775 42.014C79.3225 42.1561 79.3079 42.3091 79.3351 42.4581ZM41.654 62.5371C41.0759 61.3871 35.3626 49.5421 34.4524 47.5871C36.488 47.5871 59.4583 46.7993 59.858 46.7878C60.6391 49.1338 65.1901 63.3018 65.1901 63.4226C65.1901 63.4226 59.7535 63.5491 56.8199 63.6583C51.8692 61.3238 47.2874 61.5768 43.9541 63.2271C42.0722 63.1523 41.9861 63.1868 41.654 62.5371ZM65.024 38.6861C64.9379 36.9611 65.024 35.7593 65.313 35.6386C66.3708 35.1901 68.345 35.0636 70.5406 35.7133C70.8173 35.7996 71.7029 36.2308 72.5947 36.5816C72.6931 38.4216 72.5947 40.3708 73.2096 42.1533C72.666 43.0446 71.9677 43.8452 71.1432 44.5223C67.4225 44.9823 65.1901 42.1993 65.0117 38.6861H65.024ZM70.6697 73.0711C70.5221 73.3356 73.0252 75.0951 73.2958 75.2848C74.1814 76.0668 73.099 76.4923 72.201 75.7391C67.2811 71.6048 63.0868 66.8668 57.6194 64.0378C60.8051 63.9401 64.7472 63.8308 65.4237 63.8251C66.1064 64.4403 74.0338 71.3806 76.0817 73.0251C70.3622 73.0653 70.7251 72.9791 70.6574 73.0711H70.6697ZM76.709 72.9906C76.6475 72.9388 66.254 64.1586 65.8543 63.7216C65.6206 63.3536 61.3094 49.6743 60.3193 46.9201C60.9267 47.3074 61.3773 47.8745 61.5985 48.5301C61.9675 49.5133 66.1556 62.6233 66.174 62.6866C66.2243 63.005 66.3765 63.3017 66.6107 63.5376C68.2281 64.9923 75.0916 70.8113 77.324 72.5363C77.1949 72.6858 77.0657 72.8353 76.9427 72.9906H76.709ZM76.26 67.4648C75.1899 67.3843 74.8517 67.2693 74.5872 67.5741C74.5012 67.7006 74.2551 67.9823 73.9415 67.9191C73.8871 67.9072 73.8359 67.885 73.7911 67.8538C73.7464 67.8226 73.7089 67.7831 73.6812 67.7378C73.6535 67.6924 73.6361 67.6422 73.6301 67.5903C73.6241 67.5384 73.6296 67.4859 73.6463 67.4361C73.9476 67.1716 74.2613 66.9416 74.5442 66.6598C74.5593 66.6399 74.5669 66.6159 74.5657 66.5916C74.5646 66.5672 74.5547 66.5439 74.5377 66.5254C74.5207 66.5069 74.4976 66.4942 74.4721 66.4894C74.4465 66.4846 74.4199 66.4879 74.3966 66.4988C74.083 66.6886 73.7816 66.9933 73.4249 67.1946C73.3955 67.195 73.3664 67.2013 73.3399 67.2132C73.3133 67.2252 73.2899 67.2423 73.2711 67.2636C73.1975 67.2915 73.1179 67.3032 73.0386 67.2977C72.9593 67.2921 72.8824 67.2696 72.814 67.2318C72.7456 67.1939 72.6874 67.1418 72.644 67.0795C72.6006 67.0172 72.5732 66.9464 72.5639 66.8726C72.5639 66.4126 73.0928 66.1078 73.4003 65.7686C73.5233 65.6536 73.3388 65.4811 73.2096 65.5903C72.8802 65.8504 72.5737 66.135 72.2933 66.4413C71.9389 66.5467 71.5773 66.6293 71.2109 66.6886C71.0449 66.6886 71.2109 66.7863 70.4852 66.2056C71.2418 65.542 72.0657 64.9489 72.9452 64.4346C74.4397 63.5146 74.7164 65.1073 76.0632 65.2913C76.062 66.0198 76.1278 66.7469 76.26 67.4648ZM77.6438 72.2028L71.4508 67.0278C71.6753 66.9864 71.8971 66.9326 72.115 66.8668C72.11 66.9917 72.1361 67.1159 72.1914 67.2297C72.2466 67.3434 72.3295 67.4436 72.4333 67.5222C72.5371 67.6009 72.6591 67.6559 72.7896 67.6828C72.92 67.7098 73.0554 67.708 73.1851 67.6776C73.2097 67.7995 73.2647 67.9143 73.3458 68.0126C73.4268 68.1109 73.5316 68.1899 73.6515 68.2431C73.7714 68.2963 73.9031 68.3224 74.0357 68.319C74.1684 68.3157 74.2984 68.283 74.415 68.2238C75.2637 67.8616 74.4151 67.7236 75.7865 67.8386C75.9649 67.8386 76.1555 67.8731 76.34 67.8788C76.3953 68.1491 76.4507 68.3963 76.5122 68.6321C76.527 68.6791 76.5578 68.7203 76.6 68.7494C76.6423 68.7785 76.6935 68.7938 76.7459 68.7931C87.7421 68.5746 82.3424 67.1543 77.6315 72.2028H77.6438ZM62.8838 50.7898C62.1889 48.6106 61.826 46.8511 60.4238 46.4026C60.4238 46.4716 60.9466 46.3278 42.7426 46.9776C42.7426 44.1773 42.6134 37.4038 42.595 36.3746H64.6427C64.4705 38.8643 64.6427 41.5496 66.4877 43.4011C66.2663 43.4816 65.8727 43.6541 65.7804 43.7978C66.0073 44.7271 66.3116 45.6384 66.6907 46.5233C65.0406 47.612 63.7206 49.082 62.8592 50.7898H62.8838ZM60.3562 33.0166C60.3562 32.2116 60.1594 27.8818 60.1163 27.0883H61.6846C61.6846 27.9048 61.8014 32.2173 61.8383 33.0108C61.3463 32.9993 60.8482 33.0051 60.3562 33.0166ZM51.3464 33.1891C51.3526 31.6251 51.1373 18.4001 51.1066 16.6751H52.6748C52.6748 21.0451 52.8101 31.9758 52.8347 33.1661L51.3464 33.1891ZM41.6417 18.8946H43.2161C43.2161 22.6723 43.3453 32.2116 43.376 33.3443H41.8877C41.8939 31.9298 41.6786 20.4701 41.6417 18.8946ZM28.2901 34.3736C28.204 33.8848 27.4906 18.5726 27.2015 12.7076C27.1339 10.9021 27.6443 8.68256 28.942 7.65331C28.942 11.6783 29.4955 33.8906 29.6185 35.9031C29.2565 35.8054 28.9352 35.6065 28.6977 35.3331C28.4602 35.0597 28.318 34.7248 28.2901 34.3736ZM84.7163 29.5953C84.6657 29.22 84.7618 28.8402 84.9869 28.5258C85.4683 28.1714 85.9853 27.8614 86.5305 27.6001C85.9156 28.6351 86.0755 28.3476 86.4014 46.5176C85.8941 46.1561 85.3665 45.8202 84.8208 45.5113C84.7593 42.6133 84.7286 32.0793 84.7347 29.5953H84.7163ZM90.0914 35.9836C90.3772 35.6043 90.7569 35.2954 91.1982 35.0831C91.6394 34.8708 92.129 34.7615 92.6252 34.7646C95.1283 34.7646 96.0385 37.5476 96.5304 39.8131C96.961 41.5898 96.9917 43.6828 98.3755 45.1318C104.808 50.5828 105.294 42.9756 109.206 43.2688C110.436 43.4011 111.254 44.4533 112.133 45.2123C112.509 45.6071 113.036 45.8473 113.601 45.8807C114.165 45.914 114.72 45.7379 115.146 45.3906V53.5613C113.634 53.5613 94.421 53.4291 92.3116 53.4521C91.798 52.4471 91.1931 51.4852 90.5034 50.5771C90.5772 49.8813 90.1222 36.6046 90.1098 35.9836H90.0914ZM92.5514 53.8431C95.3804 53.8833 113.332 53.9293 115.196 53.9293C115.198 54.1484 115.213 54.3671 115.239 54.5848C115.243 54.6311 115.266 54.6743 115.302 54.7061C115.338 54.7379 115.386 54.7561 115.436 54.7573C115.798 54.7573 115.632 55.2806 115.571 39.6866C115.571 39.6484 115.555 39.6119 115.526 39.5849C115.497 39.558 115.458 39.5428 115.417 39.5428C115.376 39.5428 115.337 39.558 115.308 39.5849C115.28 39.6119 115.263 39.6484 115.263 39.6866C115.263 40.7101 115.196 44.0911 115.19 44.7581C115.048 44.9659 114.857 45.1395 114.63 45.2647C114.403 45.3899 114.148 45.463 113.885 45.4782C113.622 45.4933 113.359 45.45 113.118 45.3518C112.876 45.2537 112.663 45.1034 112.496 44.9133C110.718 43.1883 108.96 41.7508 106.389 43.9703C104.286 46.0001 103.129 47.7136 100.239 45.9598C99.0686 45.3768 98.1864 44.3912 97.7789 43.2113C96.8072 39.9511 97.0778 34.9198 92.9696 34.2528C92.4203 34.2003 91.8657 34.2746 91.3543 34.469C90.8428 34.6635 90.3902 34.9723 90.036 35.3683C90.036 34.4943 89.9684 33.6433 89.9315 32.7578C89.9315 32.7212 89.9159 32.6861 89.8883 32.6602C89.8606 32.6344 89.8231 32.6198 89.7839 32.6198C89.7448 32.6198 89.7072 32.6344 89.6795 32.6602C89.6518 32.6861 89.6363 32.7212 89.6363 32.7578C89.6363 33.7123 89.9561 47.0408 90.0545 49.9676C89.1068 48.808 88.0169 47.7562 86.8073 46.8338C86.8073 44.6431 86.5982 30.4176 86.5736 29.5378C86.5367 27.9393 87.2194 27.0136 88.7938 26.6283C90.0853 26.2948 113.308 25.9613 115.515 26.2431C116.979 26.4156 117.816 27.7553 118.025 28.9168C118.283 30.3601 118.357 54.2168 118.363 54.5331C118.412 57.3506 118.055 60.5648 114.919 60.9616C114.212 61.0536 96.715 61.0938 94.175 61.0708C94.2536 58.5766 93.7015 56.1002 92.5637 53.8431H92.5514ZM74.5442 9.08506C75.2822 10.2926 74.864 9.95906 75.3867 29.8196C72.8407 28.7443 69.2368 29.7333 66.7768 30.9696V13.9323C66.7768 13.8001 67.0966 13.8403 64.9318 13.8403C64.7965 13.8403 64.8088 12.6558 65.2639 31.9241C64.8948 32.2355 64.5739 32.5935 64.3106 32.9878H62.2442C62.2442 32.2403 62.0105 26.9388 61.9859 26.8928C61.9788 26.8629 61.9608 26.8363 61.935 26.8174C61.9092 26.7985 61.8772 26.7886 61.8444 26.7893C61.18 26.7685 60.5148 26.7819 59.8519 26.8296C59.8322 26.8421 59.8166 26.8595 59.8068 26.8798C59.7971 26.9001 59.7935 26.9225 59.7965 26.9446C59.7965 27.5196 59.9072 32.1886 59.9503 33.0166L57.6317 33.0626C57.7486 23.2416 57.7916 23.7591 57.6317 23.7476C55.965 23.8108 55.9282 23.7821 55.9282 23.8971V33.0971L53.2222 33.1488C53.2222 31.8666 53.0131 17.3766 52.97 16.5371C52.9718 16.4993 52.9582 16.4622 52.932 16.4334C52.9057 16.4046 52.8688 16.3861 52.8286 16.3818C52.8286 16.3818 50.9036 16.3818 50.8421 16.4393C50.6637 16.5716 50.9405 32.5393 50.9405 33.1948L48.0193 33.2466V24.6618C47.9975 24.6538 47.9733 24.6538 47.9516 24.6618C46.2542 24.6618 46.2727 24.6618 46.2727 24.7883V33.2811L43.7758 33.3501C43.6036 18.5036 43.4621 18.7738 43.5236 18.7738C43.5239 18.737 43.5096 18.7014 43.4835 18.6738C43.4574 18.6462 43.4213 18.6286 43.3822 18.6243C43.3822 18.6243 41.4695 18.6243 41.408 18.6703C41.1989 18.7911 41.4941 32.3726 41.4941 33.3961L38.1116 33.4536C38.1301 11.0458 38.1977 12.0751 38.0378 12.0751L36.5311 12.1268C36.4265 12.1268 36.4634 10.7526 36.4634 33.4766C33.9296 33.5226 34.0034 33.4766 33.9665 33.5686C33.9547 33.5865 33.9481 33.607 33.9474 33.6281C33.9466 33.6491 33.9518 33.67 33.9624 33.6886C33.973 33.7072 33.9886 33.7229 34.0076 33.7341C34.0267 33.7453 34.0485 33.7517 34.0711 33.7526C37.8041 33.7526 60.4115 33.5398 64.0954 33.4363C63.7264 34.3161 63.794 35.2878 64.6489 35.7996V35.9261C61.0942 36.0238 30.6763 35.9261 30.1289 35.9261C30.1289 35.1728 29.4401 8.86656 29.434 7.39456C33.6959 7.39456 71.254 7.44631 72.2318 7.59581C72.7112 7.66841 73.1673 7.83967 73.5672 8.09722C73.9671 8.35478 74.3008 8.69219 74.5442 9.08506ZM7.50921 34.9026C6.80196 35.8571 6.76506 37.0991 6.76506 38.3008C6.76506 38.5653 7.62606 66.8668 7.75521 67.5568C7.82876 68.0576 8.01609 68.5378 8.30462 68.9653C8.59315 69.3927 8.97619 69.7575 9.42801 70.0351C8.70512 70.001 7.99841 69.8226 7.35546 69.5118C5.99016 68.8103 5.47356 67.3671 5.28906 66.5678C4.96311 65.1303 4.53261 40.4398 4.60641 39.1633C4.56336 37.0473 5.33211 35.9031 7.49691 34.9026H7.50921ZM99.7592 99.9293C102.221 99.7688 104.632 99.2003 106.881 98.2503C108.48 97.5603 110.472 96.4678 111.297 95.5996C111.426 98.3136 110.835 100.067 107.853 101.35C103.904 103.075 94.5378 105.191 90.4911 102.666C90.1283 102.339 89.2611 99.8488 88.9167 98.6988C90.6818 99.7971 95.8232 100.223 99.7469 99.9293H99.7592ZM44.1386 107.462C43.622 107.422 43.376 107.905 43.2038 108.255C41.7647 111.13 41.7831 111.314 40.3195 111.406C39.8582 111.435 35.5163 111.769 35.1965 111.769C34.0772 111.843 33.4561 111.125 34.2494 110.245C34.7017 109.926 35.2036 109.674 35.7377 109.497C37.4474 108.756 40.1534 106.795 40.75 104.368C41.3673 105.046 42.2094 105.512 43.1423 105.691C44.2973 105.807 45.4623 105.584 46.4756 105.053C46.2419 106.295 45.7007 110.164 45.633 111.378C45.2735 111.342 44.9121 111.327 44.5507 111.332C44.5445 111.004 44.4277 107.485 44.1263 107.462H44.1386ZM46.4018 104.501C45.6026 105.029 44.6438 105.305 43.6651 105.288C43.1473 105.252 42.6432 105.116 42.184 104.89C41.7248 104.663 41.3204 104.351 40.996 103.972C40.996 103.793 40.9283 101.867 40.9468 100.832C42.9394 100.979 44.9396 101.015 46.9369 100.941C46.8385 101.447 46.5248 103.5 46.3895 104.501H46.4018Z" fill="black"/>
<path d="M107.625 30.2795C107.66 30.2729 107.691 30.2553 107.713 30.2296C107.736 30.2039 107.748 30.1718 107.748 30.1386C107.748 30.1055 107.736 30.0733 107.713 30.0477C107.691 30.022 107.66 30.0044 107.625 29.9978H106.592C98.861 30.222 99.1132 30.2163 99.1193 30.4175C99.1255 30.6188 98.8856 30.6648 107.625 30.2795ZM107.883 31.625C106.505 31.625 101.118 31.694 99.7343 31.7975C99.6858 31.8054 99.6418 31.829 99.6101 31.8643C99.5783 31.8995 99.561 31.9441 99.561 31.9901C99.561 32.0362 99.5783 32.0808 99.6101 32.116C99.6418 32.1513 99.6858 32.1749 99.7343 32.1828C101.143 32.1828 106.499 31.924 107.889 31.8723C107.919 31.8655 107.946 31.8493 107.965 31.8264C107.984 31.8035 107.994 31.7752 107.993 31.7463C107.992 31.7174 107.981 31.6896 107.961 31.6675C107.941 31.6455 107.913 31.6304 107.883 31.625ZM106.53 33.741C105.571 33.7755 102.49 33.741 99.5498 33.741C99.4846 33.741 99.422 33.7652 99.3759 33.8084C99.3298 33.8515 99.3038 33.91 99.3038 33.971C99.3038 34.032 99.3298 34.0905 99.3759 34.1336C99.422 34.1768 99.4846 34.201 99.5498 34.201C100.165 34.2413 105.934 34.017 106.536 33.994C106.572 33.9932 106.606 33.9792 106.631 33.9549C106.656 33.9307 106.669 33.8982 106.668 33.8646C106.668 33.8311 106.653 33.7992 106.627 33.776C106.601 33.7528 106.566 33.7402 106.53 33.741ZM86.7148 5.00826C85.9941 5.17373 85.335 5.51888 84.8075 6.00695C84.2801 6.49501 83.9041 7.10771 83.7197 7.77976C83.0371 10.2235 85.4048 12.8858 88.1293 12.4603C88.7247 12.3427 89.2881 12.1128 89.7851 11.7845C90.2822 11.4563 90.7023 11.0366 91.0198 10.5513C91.33 10.0156 91.5061 9.42105 91.5349 8.81249C91.5637 8.20392 91.4443 7.59718 91.1858 7.03801C90.8168 6.04901 89.7221 4.46776 86.7148 5.00826ZM88.2031 9.85551C87.0161 10.6203 85.6262 9.22876 86.1736 8.37201C87.1576 6.84251 88.9042 7.99826 88.9472 8.57326C88.9466 8.82855 88.8776 9.07963 88.7465 9.3036C88.6154 9.52757 88.4265 9.7173 88.1969 9.85551H88.2031ZM88.1293 7.23926C87.7142 7.11715 87.2676 7.1271 86.8592 7.26755C86.4508 7.408 86.1037 7.67103 85.8722 8.01551C85.683 8.32564 85.6117 8.68651 85.6697 9.03939C85.7278 9.39227 85.9119 9.71639 86.192 9.95901C86.4152 10.1593 86.6896 10.3027 86.9891 10.3755C87.2885 10.4483 87.6028 10.448 87.9021 10.3748C88.2014 10.3015 88.4756 10.1577 88.6984 9.95701C88.9212 9.75636 89.0852 9.50562 89.1748 9.22876C89.6996 9.55059 90.2867 9.77328 90.9029 9.88426C90.6852 10.381 90.3512 10.8257 89.9255 11.1859C89.4998 11.5461 88.9932 11.8126 88.4429 11.9658C85.9829 12.6328 83.7935 10.5455 84.0703 8.29151C84.1513 7.76656 84.3589 7.26568 84.6772 6.82668C84.9956 6.38767 85.4165 6.02203 85.9081 5.75733C86.3997 5.49263 86.9491 5.3358 87.515 5.29867C88.0809 5.26154 88.6485 5.34509 89.1748 5.54301C88.6878 6.02418 88.3277 6.60501 88.1231 7.23926H88.1293Z" fill="black"/>
<path d="M81.1801 14.8811C82.6807 14.8063 110.159 14.6108 112.164 14.0531C113.707 13.7886 114.236 13.1216 114.156 11.6668C114.156 11.1838 114.242 5.64655 114.083 4.6633C113.941 3.45005 113.246 2.87505 111.782 2.8003C110.552 2.69105 82.0472 3.10505 80.7004 3.3753C79.6057 3.57655 78.8554 3.9503 78.7078 5.1003C78.6401 5.45105 78.9353 11.9428 78.9722 12.5753C79.0583 13.9438 79.7902 14.7546 81.1801 14.8811ZM83.5786 14.4901C83.2165 14.4492 82.8686 14.3337 82.5601 14.1517C82.2517 13.9697 81.9903 13.7258 81.7951 13.4378C81.3616 12.7398 81.1384 11.9449 81.1493 11.1378C81.0817 10.1603 80.8849 6.5378 80.8603 5.6638C80.8603 5.3073 80.8603 4.1228 81.7951 3.6973C83.2403 3.5593 110.165 3.18555 111.315 3.22005C111.93 3.22005 112.76 3.26605 113.228 3.7088C113.917 4.35855 113.695 5.4338 113.738 11.6151C113.873 13.1906 113.234 13.5356 111.659 13.7483C110.245 13.9496 83.8246 14.4901 83.5909 14.4901H83.5786ZM80.4421 4.93355C80.3621 5.45105 80.6881 10.3961 80.7188 11.0516C80.7926 12.6788 81.2908 13.8346 82.2748 14.5016H81.6598C80.1592 14.5016 79.4765 13.8288 79.4089 12.3971C79.372 11.5806 79.0891 5.49705 79.1506 5.15205C79.2797 4.10555 80.0362 3.87555 81.0386 3.76055C80.7278 4.09122 80.5251 4.49834 80.4544 4.93355H80.4421Z" fill="black"/>
<path d="M94.9563 6.4228C95.1838 6.4228 102.244 6.25605 102.183 6.25605C102.214 6.24977 102.243 6.23348 102.263 6.20993C102.283 6.18638 102.295 6.15699 102.295 6.12668C102.295 6.09636 102.283 6.06697 102.263 6.04342C102.243 6.01987 102.214 6.00359 102.183 5.9973C101.66 5.9973 95.5651 5.89955 94.944 5.9973C94.8966 6.01335 94.8558 6.04294 94.8274 6.08187C94.7991 6.12081 94.7845 6.16711 94.7859 6.2142C94.7873 6.2613 94.8044 6.30679 94.835 6.34424C94.8656 6.38168 94.908 6.40917 94.9563 6.4228ZM104.347 8.2283C103.462 8.3088 94.5688 8.02705 94.5073 8.4468C94.5073 8.5273 94.5872 8.59055 94.6488 8.60205C95.4237 8.6883 104.317 8.51005 104.378 8.5043C104.397 8.50241 104.416 8.49698 104.433 8.4883C104.451 8.47962 104.466 8.46787 104.478 8.45372C104.49 8.43957 104.499 8.4233 104.505 8.40583C104.51 8.38837 104.512 8.37005 104.51 8.35193C104.508 8.3338 104.502 8.31623 104.493 8.30021C104.484 8.28419 104.471 8.27004 104.456 8.25856C104.441 8.24708 104.424 8.2385 104.405 8.23331C104.386 8.22811 104.367 8.22641 104.347 8.2283ZM104.169 10.4363C102.65 10.4363 94.9932 10.4018 94.5934 10.4651C94.5541 10.4748 94.5193 10.4964 94.4944 10.5266C94.4696 10.5568 94.4561 10.5937 94.4561 10.6318C94.4561 10.6699 94.4696 10.7068 94.4944 10.737C94.5193 10.7672 94.5541 10.7888 94.5934 10.7986C95.0178 10.8618 103.548 10.6778 104.175 10.6606C104.202 10.6541 104.226 10.6393 104.243 10.6185C104.26 10.5977 104.269 10.5722 104.268 10.5461C104.267 10.5201 104.257 10.495 104.239 10.475C104.221 10.4551 104.196 10.4414 104.169 10.4363ZM17.2203 47.2708C21.3838 46.9545 23.5917 41.9405 20.3568 39.1576C20.2399 39.0598 20.4613 38.8413 17.0542 43.447C12.9337 39.7958 13.1551 39.9338 13.0629 39.997C9.80336 43.0043 13.0321 47.5928 17.2203 47.2708Z" fill="black"/>
<path d="M16.765 41.561C16.8818 41.6817 16.8265 41.699 19.6124 37.306C19.6191 37.2962 19.6236 37.2853 19.6257 37.2739C19.6278 37.2625 19.6273 37.2508 19.6245 37.2395C19.6216 37.2282 19.6163 37.2176 19.609 37.2083C19.6016 37.199 19.5923 37.1911 19.5817 37.1852C18.5992 36.7018 17.4736 36.535 16.3795 36.7107C15.2853 36.8864 14.2837 37.3948 13.5301 38.157C13.4563 38.2432 13.3456 38.0765 16.765 41.561ZM10.3382 62.8647C10.496 62.8638 10.6499 62.8192 10.7806 62.7367C10.9113 62.6541 11.013 62.5372 11.0728 62.4008C11.1326 62.2643 11.1479 62.1143 11.1168 61.9698C11.0857 61.8252 11.0095 61.6924 10.8979 61.5882C11.2054 61.1225 13.198 58.0577 13.7822 57.2297C13.9336 57.2952 14.1026 57.3165 14.2672 57.2909C14.4317 57.2652 14.5842 57.1938 14.7047 57.086L17.546 59.133C17.4997 59.2611 17.4914 59.3987 17.5221 59.5309C17.5528 59.6631 17.6213 59.785 17.7203 59.8837C17.8192 59.9823 17.945 60.0541 18.0841 60.0912C18.2233 60.1283 18.3706 60.1294 18.5104 60.0944C18.6501 60.0594 18.7771 59.9895 18.8778 59.8924C18.9784 59.7952 19.049 59.6743 19.0819 59.5426C19.1149 59.4108 19.109 59.2732 19.0648 59.1444C19.0207 59.0155 18.94 58.9003 18.8314 58.811L19.84 57.569C20.0205 57.6462 20.2251 57.6584 20.4147 57.6032C20.6042 57.548 20.7653 57.4294 20.867 57.27L23.8067 58.2015C23.7908 58.3252 23.8083 58.4506 23.8574 58.5664C23.9066 58.6822 23.9859 58.7846 24.0882 58.8644C24.1904 58.9443 24.3124 58.9989 24.4431 59.0235C24.5737 59.048 24.7088 59.0416 24.8361 59.0049C24.9634 58.9682 25.0789 58.9023 25.1721 58.8133C25.2652 58.7242 25.3331 58.6148 25.3695 58.495C25.406 58.3752 25.4098 58.2488 25.3807 58.1272C25.3516 58.0056 25.2904 57.8928 25.2028 57.799C25.4488 56.9767 27.5767 50.899 27.7919 50.324C27.9984 50.3072 28.1901 50.2165 28.327 50.071C28.9112 50.5022 30.664 51.727 31.2298 52.0835C31.1974 52.2025 31.197 52.3271 31.2284 52.4464C31.2598 52.5656 31.3222 52.6757 31.41 52.7671C31.4977 52.8584 31.6082 52.9281 31.7317 52.9701C31.8551 53.012 31.9877 53.0248 32.1177 53.0075C32.2478 52.9901 32.3712 52.9431 32.4771 52.8705C32.5831 52.7979 32.6683 52.7021 32.7252 52.5914C32.7821 52.4807 32.809 52.3587 32.8035 52.236C32.7979 52.1133 32.7602 51.9938 32.6935 51.888C34.3294 49.45 34.4032 49.4902 34.231 49.381C34.1986 49.3622 34.1599 49.3553 34.1224 49.3617C34.0849 49.3681 34.0513 49.3872 34.028 49.4155C33.739 49.8065 32.3737 51.6005 32.3737 51.6005C32.2282 51.5335 32.0648 51.5082 31.904 51.5276C31.7432 51.547 31.5921 51.6104 31.4696 51.7097C30.8977 51.336 29.0834 50.1227 28.5053 49.703C28.53 49.5703 28.5159 49.4338 28.4645 49.308C28.4131 49.1822 28.3263 49.0717 28.2132 48.9882C28.1002 48.9047 27.9651 48.8514 27.8223 48.8337C27.6794 48.8161 27.5342 48.8349 27.4018 48.8881C27.2695 48.9413 27.155 49.027 27.0704 49.136C26.9859 49.245 26.9344 49.3734 26.9214 49.5076C26.9084 49.6417 26.9345 49.7766 26.9968 49.8981C27.0591 50.0195 27.1553 50.123 27.2753 50.1975C26.7464 51.543 25.2089 56.2005 24.8153 57.5575C24.6675 57.5218 24.512 57.5256 24.3664 57.5683C24.2208 57.6109 24.0908 57.6909 23.9912 57.799C23.3762 57.6035 21.5312 57.0802 20.9716 56.9135C20.9716 56.7168 20.888 56.5281 20.7392 56.389C20.5904 56.2499 20.3886 56.1717 20.1782 56.1717C19.9678 56.1717 19.766 56.2499 19.6172 56.389C19.4685 56.5281 19.3849 56.7168 19.3849 56.9135C19.3862 57.0777 19.4445 57.2371 19.5509 57.3677L18.4501 58.65C18.3446 58.6284 18.2355 58.6274 18.1297 58.6472C18.0238 58.667 17.9235 58.7071 17.8351 58.765L14.9015 56.6892C14.9335 56.5112 14.895 56.3284 14.7933 56.1751C14.6915 56.0217 14.5333 55.9083 14.3485 55.8562C14.1637 55.804 13.9649 55.8166 13.7894 55.8916C13.6138 55.9666 13.4735 56.0989 13.3948 56.2637C13.3336 56.3822 13.3087 56.5142 13.3228 56.6452C13.3369 56.7761 13.3895 56.9008 13.4747 57.0055C12.8966 57.8162 10.7995 60.95 10.4981 61.4042C10.3877 61.3783 10.2727 61.3749 10.1608 61.3942C10.0489 61.4136 9.94269 61.4552 9.8495 61.5162C9.7563 61.5773 9.67825 61.6564 9.62065 61.7482C9.56304 61.84 9.52723 61.9423 9.51564 62.0481C9.50405 62.154 9.51696 62.2609 9.55348 62.3617C9.59001 62.4625 9.64929 62.5547 9.72732 62.6322C9.80535 62.7096 9.90029 62.7705 10.0057 62.8106C10.1111 62.8508 10.2245 62.8692 10.3382 62.8647ZM21.0392 64.9002C20.9936 64.9002 20.9498 64.9172 20.9175 64.9474C20.8852 64.9776 20.867 65.0185 20.867 65.0612C20.867 65.1039 20.8852 65.1449 20.9175 65.1751C20.9498 65.2053 20.9936 65.2222 21.0392 65.2222C22.1155 65.2222 34.7476 64.7622 35.1842 64.7565C35.2129 64.7505 35.2386 64.7356 35.2569 64.7142C35.2753 64.6927 35.2854 64.6661 35.2854 64.6386C35.2854 64.6111 35.2753 64.5845 35.2569 64.5631C35.2386 64.5416 35.2129 64.5267 35.1842 64.5207C33.4684 64.5265 22.1401 64.7852 21.0392 64.9002ZM26.4451 60.789C26.4842 60.789 26.5218 60.7744 26.5494 60.7486C26.5771 60.7227 26.5927 60.6876 26.5927 60.651C26.5927 60.6144 26.5771 60.5793 26.5494 60.5534C26.5218 60.5275 26.4842 60.513 26.4451 60.513C25.9592 60.513 24.2003 60.4152 23.7883 60.4325C23.7165 60.4325 23.6477 60.4591 23.5969 60.5066C23.5462 60.554 23.5177 60.6184 23.5177 60.6855C23.5177 60.7526 23.5462 60.8169 23.5969 60.8644C23.6477 60.9118 23.7165 60.9385 23.7883 60.9385C24.1942 60.9845 25.9346 60.8292 26.4451 60.789ZM19.8707 61.525H17.2201C17.1628 61.5275 17.1072 61.5444 17.0593 61.5739C17.0113 61.6033 16.9728 61.6444 16.9476 61.6926C16.9225 61.7408 16.9116 61.7944 16.9163 61.8479C16.9209 61.9014 16.9409 61.9527 16.9741 61.9965C17.1401 62.2265 17.2693 62.0482 19.883 61.8412C19.9155 61.8267 19.9427 61.8037 19.9613 61.7749C19.9799 61.7462 19.9891 61.7129 19.9878 61.6793C19.9865 61.6457 19.9747 61.6132 19.9539 61.5858C19.9331 61.5584 19.9042 61.5372 19.8707 61.525ZM9.38497 64.5955C9.51412 64.5955 11.3837 64.4057 11.7958 64.3885C11.8414 64.3885 11.8852 64.3715 11.9175 64.3413C11.9498 64.3111 11.968 64.2702 11.968 64.2275C11.968 64.1848 11.9498 64.1438 11.9175 64.1136C11.8852 64.0834 11.8414 64.0665 11.7958 64.0665C11.5559 64.0665 9.47722 64.147 9.33577 64.2102C9.29822 64.2314 9.268 64.2622 9.24874 64.299C9.22948 64.3358 9.22199 64.377 9.22719 64.4177C9.23239 64.4584 9.25004 64.4968 9.27803 64.5284C9.30602 64.5599 9.34316 64.5832 9.38497 64.5955Z" fill="black"/>
<path d="M31.0886 54.6249H31.187C33.8008 54.4064 33.7085 54.5732 33.8192 54.4582C33.8397 54.4356 33.8531 54.4082 33.858 54.3791C33.8629 54.3499 33.8591 54.32 33.847 54.2926C33.8349 54.2653 33.8151 54.2416 33.7895 54.2242C33.764 54.2067 33.7339 54.1962 33.7024 54.1937C32.786 54.1937 31.925 54.1189 31.1009 54.1534C30.7504 54.1592 30.7811 54.6249 31.0886 54.6249ZM17.3372 49.6052C17.2704 49.6052 17.2062 49.63 17.1589 49.6742C17.1116 49.7184 17.0851 49.7784 17.0851 49.8409C17.0851 49.9034 17.1116 49.9634 17.1589 50.0076C17.2062 50.0518 17.2704 50.0767 17.3372 50.0767C18.2167 50.0767 21.6422 49.7834 22.4725 49.7029C22.5118 49.6959 22.5473 49.6762 22.5728 49.6474C22.5983 49.6185 22.6123 49.5822 22.6123 49.5448C22.6123 49.5074 22.5983 49.4711 22.5728 49.4422C22.5473 49.4134 22.5118 49.3937 22.4725 49.3867C21.6176 49.4499 18.1859 49.5362 17.3372 49.6052ZM16.919 50.9507C16.8696 50.9621 16.8263 50.9901 16.7973 51.0293C16.7683 51.0685 16.7557 51.1163 16.7617 51.1636C16.7678 51.2109 16.7921 51.2545 16.8301 51.2863C16.8681 51.318 16.9173 51.3357 16.9682 51.3359C17.9399 51.3359 21.7529 51.0139 22.7123 51.0082C22.7547 51.0082 22.7954 50.9924 22.8254 50.9644C22.8554 50.9364 22.8722 50.8983 22.8722 50.8587C22.8722 50.819 22.8554 50.781 22.8254 50.753C22.7954 50.7249 22.7547 50.7092 22.7123 50.7092C20.7776 50.6694 18.8423 50.75 16.919 50.9507ZM22.2203 51.8707C20.6109 51.849 19.0013 51.9085 17.3987 52.0489C17.1035 52.0834 17.0912 52.5032 17.3987 52.5032C17.9461 52.5032 20.935 52.2157 22.2265 52.1697C22.2475 52.1693 22.2682 52.1651 22.2874 52.1572C22.3067 52.1493 22.3241 52.138 22.3386 52.1239C22.3532 52.1097 22.3646 52.093 22.3723 52.0747C22.38 52.0564 22.3837 52.0369 22.3833 52.0173C22.3829 51.9977 22.3784 51.9783 22.37 51.9603C22.3615 51.9423 22.3494 51.926 22.3343 51.9124C22.3192 51.8988 22.3013 51.8881 22.2818 51.881C22.2622 51.8738 22.2413 51.8703 22.2203 51.8707ZM24.2437 39.4852C24.545 39.4852 27.6139 39.1862 28.2166 39.1459C28.259 39.1459 28.2997 39.1302 28.3296 39.1021C28.3596 39.0741 28.3765 39.0361 28.3765 38.9964C28.3765 38.9568 28.3596 38.9188 28.3296 38.8907C28.2997 38.8627 28.259 38.8469 28.2166 38.8469C27.9152 38.8469 24.625 38.9389 24.2621 38.9619C23.8993 38.9849 23.8993 39.4852 24.2437 39.4852ZM24.8771 40.6467C25.8427 40.6467 29.6065 40.3132 30.5597 40.2557C30.5945 40.2491 30.6257 40.2314 30.6482 40.2058C30.6706 40.1801 30.6829 40.148 30.6829 40.1148C30.6829 40.0816 30.6706 40.0495 30.6482 40.0238C30.6257 39.9982 30.5945 39.9805 30.5597 39.9739C29.6003 40.0142 25.8119 40.0314 24.871 40.1234C24.804 40.1334 24.7431 40.1656 24.6993 40.2141C24.6556 40.2625 24.6319 40.3241 24.6327 40.3875C24.6334 40.451 24.6585 40.512 24.7034 40.5596C24.7482 40.6072 24.8099 40.6381 24.8771 40.6467Z" fill="black"/>
</svg>
