<svg width="106" height="108" viewBox="0 0 106 108" fill="none" xmlns="http://www.w3.org/2000/svg">
<path d="M74.2005 32.7834C74.0498 32.9724 73.8888 33.1527 73.7182 33.3234C73.6998 33.3456 73.6882 33.3727 73.6846 33.4016C73.681 33.4304 73.6856 33.4596 73.6979 33.4858C73.7102 33.512 73.7297 33.5341 73.7539 33.5493C73.7782 33.5645 73.8063 33.5723 73.8348 33.5718C74.4494 33.1877 74.9354 32.6229 75.2287 31.9518C75.3029 31.725 74.9584 31.5198 74.8471 31.7682C74.5556 32.4216 73.4532 32.4594 73.1617 32.3568C73.1216 32.3417 73.0773 32.3435 73.0386 32.3617C72.9998 32.38 72.9697 32.4131 72.955 32.454C72.9402 32.4948 72.942 32.5399 72.9599 32.5794C72.9777 32.6189 73.0103 32.6495 73.0504 32.6646C73.4195 32.7947 73.8133 32.8354 74.2005 32.7834ZM72.2766 30.0294C72.0271 30.2556 71.7633 30.4648 71.4869 30.6558C71.435 30.69 71.3926 30.7373 71.3638 30.7931C71.335 30.8489 71.3208 30.9113 71.3226 30.9744C71.3226 31.1688 71.9904 31.6764 71.9957 31.6818C72.0237 31.703 72.0582 31.7135 72.0931 31.7113C72.128 31.7092 72.161 31.6945 72.1864 31.67C72.2117 31.6455 72.2277 31.6126 72.2316 31.5772C72.2355 31.5418 72.2271 31.5062 72.2077 31.4766C72.1706 31.4064 71.9586 31.1418 71.8261 30.9636C72.425 30.3534 72.6953 30.1536 72.4939 30.0024C72.46 29.981 72.4201 29.972 72.3806 29.9769C72.3411 29.9818 72.3044 30.0003 72.2766 30.0294ZM71.8155 29.7C72.0275 29.6028 71.9745 29.3544 72.2289 28.7064C72.239 28.683 72.2444 28.6578 72.245 28.6322C72.2455 28.6066 72.2411 28.5812 72.232 28.5574C72.2229 28.5336 72.2093 28.5118 72.1919 28.4934C72.1745 28.4749 72.1538 28.4601 72.1308 28.4499C72.1079 28.4396 72.0831 28.434 72.058 28.4335C72.033 28.4329 72.008 28.4374 71.9846 28.4467C71.9613 28.456 71.9399 28.4698 71.9218 28.4875C71.9037 28.5052 71.8892 28.5264 71.8791 28.5498C71.5823 29.1816 71.3491 29.3112 71.4445 29.5326C71.456 29.5699 71.4752 29.6042 71.5008 29.6334C71.5264 29.6626 71.5577 29.6858 71.5928 29.7017C71.6279 29.7175 71.666 29.7255 71.7043 29.7252C71.7427 29.725 71.7806 29.7163 71.8155 29.7ZM73.9991 30.3858C74.2111 30.2886 74.1634 30.0348 74.4125 29.3922C74.4328 29.3449 74.434 29.2913 74.4156 29.2432C74.3972 29.1951 74.3608 29.1564 74.3144 29.1357C74.268 29.1149 74.2154 29.1137 74.1682 29.1325C74.121 29.1512 74.0831 29.1883 74.0627 29.2356C73.8189 29.7756 73.5327 30.0024 73.6228 30.2184C73.6349 30.2558 73.6547 30.2903 73.6808 30.3195C73.7069 30.3487 73.7387 30.3719 73.7742 30.3877C73.8097 30.4035 73.8481 30.4115 73.8868 30.4112C73.9256 30.4108 73.9638 30.4022 73.9991 30.3858ZM30.7882 21.2814C30.5338 19.3536 30.5815 19.3104 30.4172 19.3104C21.1528 19.3104 21.6457 19.2456 21.6457 19.4454V21.2328C21.6457 21.3084 21.704 21.4002 21.7782 21.4002C31.1539 21.4326 30.82 21.4866 30.7882 21.2814ZM33.7509 19.3104C31.2175 19.3104 31.3659 19.3104 31.3076 19.3536C31.2493 19.3968 31.2599 19.3158 31.5037 21.3138C31.5037 21.4812 31.5302 21.4326 33.7509 21.4326C33.786 21.4326 33.8197 21.4183 33.8446 21.393C33.8694 21.3677 33.8834 21.3334 33.8834 21.2976V19.44C33.882 19.4051 33.8674 19.3721 33.8427 19.348C33.818 19.3238 33.7851 19.3103 33.7509 19.3104ZM79.6489 19.3428L76.2887 19.5804C76.2722 19.5803 76.2559 19.5837 76.2408 19.5903C76.2256 19.5969 76.2119 19.6065 76.2005 19.6186C76.1892 19.6307 76.1803 19.6451 76.1745 19.6608C76.1687 19.6765 76.1661 19.6932 76.1668 19.71V21.7512C76.1668 21.787 76.1807 21.8213 76.2056 21.8466C76.2304 21.8719 76.2641 21.8862 76.2993 21.8862H79.6542C79.6893 21.8862 79.723 21.8719 79.7479 21.8466C79.7727 21.8213 79.7867 21.787 79.7867 21.7512C79.7867 19.44 79.845 19.3374 79.6489 19.3428ZM23.3894 28.9548V27.3618C23.3894 27.3259 23.3754 27.2916 23.3506 27.2663C23.3257 27.241 23.292 27.2268 23.2569 27.2268H21.9584C21.9232 27.2268 21.8895 27.241 21.8647 27.2663C21.8398 27.2916 21.8259 27.3259 21.8259 27.3618C21.8259 29.1492 21.8259 29.0628 21.8683 29.1168C21.9107 29.1708 21.8683 29.16 23.2622 29.0898C23.296 29.0871 23.3276 29.0719 23.3511 29.047C23.3745 29.0221 23.3882 28.9893 23.3894 28.9548ZM30.9578 26.865C23.7074 27.2484 23.9777 27.1674 23.9777 27.3618C23.9777 29.0142 23.9777 28.9332 24.0148 28.9818C24.0519 29.0304 23.6438 29.025 30.9631 28.917C30.9982 28.917 31.0319 28.9027 31.0568 28.8774C31.0816 28.8521 31.0956 28.8178 31.0956 28.782V27C31.0964 26.9815 31.0933 26.9632 31.0866 26.946C31.0799 26.9289 31.0697 26.9134 31.0567 26.9007C31.0436 26.8879 31.0281 26.8781 31.011 26.8719C30.9939 26.8658 30.9758 26.8634 30.9578 26.865ZM41.7062 26.8596V28.4256C41.7062 28.4614 41.7201 28.4957 41.745 28.521C41.7698 28.5463 41.8035 28.5606 41.8387 28.5606C43.6619 28.5606 43.5718 28.5606 43.6301 28.512C43.6884 28.4634 43.6778 28.512 43.4393 26.838C43.4393 26.676 43.3598 26.7246 41.8493 26.7246C41.831 26.7231 41.8126 26.7254 41.7953 26.7316C41.778 26.7377 41.7621 26.7474 41.7486 26.7601C41.7352 26.7728 41.7245 26.7881 41.7172 26.8053C41.7099 26.8224 41.7061 26.8409 41.7062 26.8596ZM49.5131 28.5336C49.5714 28.4634 49.5555 28.5336 49.37 26.946C49.37 26.7786 49.635 26.838 44.4357 26.7408C44.4168 26.7406 44.3982 26.7446 44.381 26.7523C44.3638 26.7601 44.3484 26.7715 44.3359 26.7858C44.3233 26.8001 44.3139 26.817 44.3083 26.8353C44.3027 26.8536 44.3009 26.8729 44.3032 26.892C44.5046 28.5768 44.4675 28.5768 44.6265 28.5768C49.8205 28.5768 49.4548 28.62 49.5131 28.5336ZM50.4777 28.5606C52.7355 28.6254 52.5977 28.6362 52.656 28.5606C52.7143 28.485 52.6984 28.5984 52.6984 26.8434C52.697 26.8071 52.6819 26.7727 52.6562 26.7475C52.6305 26.7224 52.5962 26.7083 52.5606 26.7084C50.1014 26.8056 50.2445 26.7786 50.1915 26.8434C50.1385 26.9082 50.1544 26.8434 50.3505 28.4256C50.3528 28.4597 50.3668 28.4919 50.39 28.5166C50.4133 28.5413 50.4443 28.5568 50.4777 28.5606ZM23.9512 35.4618C24.2639 33.4638 24.2639 33.5718 24.2056 33.507C24.1473 33.4422 24.2374 33.453 22.3824 33.5556C22.3491 33.5583 22.3181 33.5737 22.2955 33.5987C22.2729 33.6237 22.2604 33.6565 22.2605 33.6906V35.559C22.2605 35.5948 22.2744 35.6291 22.2993 35.6544C22.3241 35.6797 22.3578 35.694 22.393 35.694L23.8505 35.5752C23.8769 35.5696 23.9009 35.5556 23.919 35.5352C23.9371 35.5148 23.9484 35.4891 23.9512 35.4618ZM26.4316 35.343C26.4316 33.3828 26.4316 33.4908 26.3892 33.4314C26.3468 33.372 26.421 33.3936 24.9529 33.4584C24.7992 33.4584 24.831 33.4584 24.6243 35.3268C24.622 35.3458 24.6238 35.3651 24.6294 35.3834C24.635 35.4017 24.6444 35.4186 24.657 35.4329C24.6695 35.4472 24.6849 35.4586 24.7021 35.4664C24.7193 35.4741 24.7379 35.4781 24.7568 35.478H26.2991C26.3342 35.478 26.3679 35.4637 26.3928 35.4384C26.4176 35.4131 26.4316 35.3788 26.4316 35.343ZM29.0816 33.3612C29.0816 35.316 29.0816 35.208 29.1187 35.2674C29.1558 35.3268 28.3714 35.3538 42.1302 34.5816C42.1486 34.5803 42.1666 34.5751 42.1829 34.5664C42.1993 34.5576 42.2137 34.5455 42.2251 34.5307C42.2366 34.516 42.2449 34.499 42.2496 34.4807C42.2542 34.4625 42.2551 34.4435 42.2521 34.425L41.9129 32.2218C41.9076 32.1879 41.8899 32.1573 41.8633 32.1362C41.8368 32.1152 41.8033 32.1052 41.7698 32.1084C28.4509 33.3072 29.0816 33.1668 29.0816 33.3612ZM46.6776 34.236C46.6776 31.671 46.6776 31.8222 46.6352 31.7628C46.5928 31.7034 46.8207 31.6926 42.7927 32.0976C42.7566 32.1029 42.7239 32.1221 42.7012 32.1512C42.6786 32.1803 42.6677 32.2171 42.6708 32.2542C43.01 34.5168 42.9676 34.5276 43.1266 34.5276L46.5504 34.371C46.5846 34.3696 46.6169 34.3547 46.6407 34.3296C46.6644 34.3044 46.6776 34.2708 46.6776 34.236ZM49.5979 31.86V34.1712C49.5979 34.207 49.6118 34.2413 49.6367 34.2666C49.6615 34.2919 49.6952 34.3062 49.7304 34.3062H53.1065C53.1416 34.3062 53.1753 34.2919 53.2002 34.2666C53.225 34.2413 53.239 34.207 53.239 34.1712C53.239 31.5252 53.239 31.7034 53.1966 31.644C53.1542 31.5846 53.4033 31.59 49.7251 31.725C49.6909 31.7263 49.6585 31.7412 49.6348 31.7664C49.6111 31.7915 49.5978 31.8251 49.5979 31.86ZM66.5473 25.1586C62.8373 25.3908 62.9592 25.3152 62.9592 25.4988V27.5886C62.9592 27.6244 62.9731 27.6587 62.998 27.684C63.0228 27.7093 63.0565 27.7236 63.0917 27.7236H66.5579C66.593 27.7236 66.6267 27.7093 66.6516 27.684C66.6764 27.6587 66.6904 27.6244 66.6904 27.5886C66.6904 25.2936 66.7487 25.1478 66.5473 25.1586ZM25.3875 42.7248C25.5518 40.0572 25.5571 40.2732 25.5041 40.2138C25.4511 40.1544 25.6631 40.1706 22.6315 40.1706C22.5963 40.1706 22.5626 40.1848 22.5378 40.2101C22.5129 40.2354 22.499 40.2697 22.499 40.3056V42.7194C22.499 42.7552 22.5129 42.7895 22.5378 42.8148C22.5626 42.8401 22.5963 42.8544 22.6315 42.8544H25.255C25.2888 42.8531 25.3211 42.8392 25.3455 42.8153C25.3699 42.7914 25.3849 42.7592 25.3875 42.7248ZM32.357 40.0194C32.3228 40.0207 32.2904 40.0356 32.2667 40.0608C32.243 40.0859 32.2297 40.1195 32.2298 40.1544V42.201C32.2298 42.2368 32.2437 42.2711 32.2686 42.2964C32.2934 42.3217 32.3271 42.336 32.3623 42.336H34.4505C34.4856 42.336 34.5193 42.3217 34.5442 42.2964C34.569 42.2711 34.583 42.2368 34.583 42.201V40.0734C34.5816 40.0371 34.5665 40.0027 34.5408 39.9775C34.5151 39.9524 34.4808 39.9383 34.4452 39.9384L32.357 40.0194ZM44.6053 39.6036C34.8692 39.8628 35.3674 39.8358 35.3674 40.0302C35.3674 42.3252 35.3674 42.1902 35.4045 42.2496C35.4416 42.309 34.8745 42.3144 44.6159 42.0768C44.6497 42.0741 44.6813 42.0589 44.7048 42.034C44.7282 42.0091 44.7419 41.9763 44.7431 41.9418V39.7386C44.7439 39.7201 44.7408 39.7018 44.7341 39.6846C44.7274 39.6675 44.7172 39.652 44.7042 39.6393C44.6911 39.6265 44.6756 39.6167 44.6585 39.6105C44.6414 39.6044 44.6233 39.602 44.6053 39.6036ZM53.0641 39.555C52.8415 41.7798 52.8362 41.6448 52.8945 41.715C52.9528 41.7852 52.6136 41.7582 57.1027 41.7582C57.1247 41.7603 57.1469 41.7567 57.1673 41.7479C57.1877 41.739 57.2055 41.725 57.2192 41.7073C57.2329 41.6896 57.2421 41.6686 57.2458 41.6464C57.2495 41.6241 57.2477 41.6013 57.2405 41.58C56.7741 39.339 56.8218 39.3282 56.6628 39.3336C52.9528 39.42 53.08 39.3876 53.0641 39.555ZM58.2422 41.7312H59.7686C59.8019 41.7313 59.8341 41.7185 59.8587 41.6955C59.8833 41.6725 59.8984 41.6409 59.9011 41.607C60.1237 39.1284 60.129 39.285 60.0654 39.2202C60.0018 39.1554 60.1608 39.1716 57.6857 39.3228C57.6666 39.3245 57.6481 39.3304 57.6315 39.3402C57.6149 39.3499 57.6006 39.3632 57.5895 39.3791C57.5784 39.395 57.5709 39.4132 57.5673 39.4323C57.5638 39.4515 57.5644 39.4712 57.5691 39.4902C58.1521 41.796 58.0991 41.7312 58.2422 41.7312ZM37.8213 18.3924C35.8444 19.899 35.5688 20.0448 35.5582 20.2338C35.5582 20.52 36.6182 21.4866 36.6553 21.4974C36.6847 21.5138 36.7186 21.5199 36.7518 21.5148C36.785 21.5098 36.8157 21.4938 36.8391 21.4693C36.8625 21.4448 36.8774 21.4132 36.8816 21.3792C36.8857 21.3453 36.8788 21.3109 36.862 21.2814C36.6977 21.06 36.2949 20.5038 36.1677 20.3202C36.4274 20.061 37.5298 19.1106 38.0492 18.7002C38.24 18.549 38.0121 18.2466 37.8213 18.3924ZM45.3049 18.252C45.2723 18.2259 45.2316 18.2125 45.1902 18.2141C45.1488 18.2157 45.1093 18.2323 45.0788 18.2608C45.0482 18.2894 45.0286 18.328 45.0234 18.3699C45.0182 18.4118 45.0278 18.4542 45.0505 18.4896C45.5251 19.1353 45.9555 19.8138 46.3384 20.52C46.3384 20.574 45.5646 21.5352 45.2519 22.0266C45.2304 22.0584 45.2218 22.0974 45.2277 22.1356C45.2336 22.1738 45.2536 22.2082 45.2837 22.2318C45.3137 22.2541 45.3499 22.2662 45.387 22.2662C45.4242 22.2662 45.4604 22.2541 45.4904 22.2318C45.7872 21.9132 46.6299 20.9358 46.7465 20.7522C47.0645 20.2284 46.0469 19.0728 45.3049 18.252ZM40.0526 18.6246C39.9593 18.5937 39.8606 18.5834 39.7631 18.5946C39.6656 18.6057 39.5716 18.6379 39.4873 18.689C39.403 18.7401 39.3304 18.809 39.2743 18.891C39.2182 18.973 39.18 19.0663 39.1622 19.1646C39.1193 19.5825 39.1016 20.0026 39.1092 20.4228H38.5792C38.5267 20.4311 38.4789 20.4582 38.4443 20.4993C38.4098 20.5404 38.3908 20.5927 38.3908 20.6469C38.3908 20.701 38.4098 20.7533 38.4443 20.7944C38.4789 20.8355 38.5267 20.8626 38.5792 20.871L39.1357 20.9574C39.132 21.2465 39.1515 21.5354 39.194 21.8214C39.2417 22.113 39.6445 22.0536 39.6763 21.7836C39.6975 21.5248 39.6975 21.2647 39.6763 21.006C39.9254 21.006 40.1692 21.006 40.2063 20.7576C40.2434 20.5092 39.9254 20.4714 39.6763 20.4498C39.6286 19.3266 39.7399 19.1592 39.7611 19.1322C39.9042 19.0188 40.1321 19.1322 39.9201 19.4724C39.8953 19.5098 39.8858 19.5556 39.8938 19.6C39.9017 19.6444 39.9264 19.6838 39.9625 19.71C40.2169 19.9044 40.625 18.9 40.0526 18.6246ZM41.7857 20.358C41.5563 20.3741 41.3261 20.3741 41.0967 20.358C41.0517 20.358 41.0086 20.3762 40.9767 20.4086C40.9449 20.441 40.9271 20.4849 40.9271 20.5308C40.9271 20.5766 40.9449 20.6205 40.9767 20.6529C41.0086 20.6853 41.0517 20.7036 41.0967 20.7036L41.6267 20.7738C41.9182 20.817 41.7592 20.6982 41.8387 21.4164C41.8387 21.4923 41.8683 21.5651 41.9209 21.6187C41.9736 21.6724 42.0451 21.7026 42.1196 21.7026C42.1941 21.7026 42.2655 21.6724 42.3182 21.6187C42.3709 21.5651 42.4005 21.4923 42.4005 21.4164C42.3974 21.2358 42.385 21.0556 42.3634 20.8764H42.6655C42.7358 20.8764 42.8032 20.8479 42.8529 20.7973C42.9026 20.7466 42.9305 20.678 42.9305 20.6064C42.9305 20.5347 42.9026 20.4661 42.8529 20.4154C42.8032 20.3648 42.7358 20.3364 42.6655 20.3364C42.2256 20.3364 42.2892 20.3688 42.2786 20.2824C42.2362 20.034 42.1938 19.7802 42.1726 19.5318C42.1726 19.4859 42.1547 19.442 42.1229 19.4096C42.0911 19.3772 42.048 19.359 42.003 19.359C41.958 19.359 41.9149 19.3772 41.883 19.4096C41.8512 19.442 41.8334 19.4859 41.8334 19.5318C41.8069 19.8774 41.7857 20.2284 41.7857 20.358Z" fill="black"/>
<path d="M44.5201 20.2499C44.493 20.0259 44.4771 19.8006 44.4724 19.5749C44.4652 19.5336 44.444 19.4963 44.4125 19.4693C44.381 19.4424 44.3412 19.4276 44.3001 19.4276C44.259 19.4276 44.2192 19.4424 44.1877 19.4693C44.1562 19.4963 44.135 19.5336 44.1279 19.5749C44.1279 19.8179 44.0961 20.0447 44.0749 20.2877C43.8719 20.3006 43.6683 20.3006 43.4654 20.2877C43.4182 20.2956 43.3754 20.3203 43.3444 20.3574C43.3135 20.3945 43.2965 20.4415 43.2965 20.4902C43.2965 20.5389 43.3135 20.586 43.3444 20.6231C43.3754 20.6602 43.4182 20.6848 43.4654 20.6927C43.6615 20.6927 43.8417 20.7251 44.0431 20.7413C44.0007 21.2165 43.9583 21.6971 44.3134 21.6971C44.6685 21.6971 44.6261 21.2111 44.5837 20.7629C44.8752 20.7629 45.2568 20.7629 45.2462 20.4821C45.2356 20.2013 44.8275 20.2229 44.5201 20.2499ZM33.7505 23.4197C33.0827 23.5979 32.6905 24.2729 32.6269 25.2179C32.6004 26.0009 32.8177 26.9945 32.1446 27.4535C32.0979 27.4854 32.0614 27.5305 32.0397 27.5833C32.0181 27.6361 32.0121 27.6943 32.0227 27.7505C32.1181 28.2257 32.9555 27.5453 32.7859 29.5649C32.7218 29.8218 32.7233 30.091 32.7901 30.3471C32.8568 30.6032 32.9868 30.8377 33.1675 31.0283C33.3345 31.1489 33.5264 31.2291 33.7284 31.2628C33.9305 31.2965 34.1374 31.2828 34.3335 31.2227C34.3699 31.2132 34.4023 31.1916 34.4254 31.1613C34.4485 31.131 34.461 31.0937 34.461 31.0553C34.461 31.0169 34.4485 30.9797 34.4254 30.9494C34.4023 30.919 34.3699 30.8974 34.3335 30.8879C33.9678 30.8339 33.5438 30.8879 33.353 30.5693C33.1911 30.1323 33.1671 29.6547 33.2841 29.2031C33.3372 28.9126 33.32 28.6133 33.2342 28.331C33.1483 28.0488 32.9962 27.7921 32.7912 27.5831C33.6975 26.4545 32.5421 24.2135 33.8512 23.7599C33.8852 23.7387 33.9114 23.7067 33.9256 23.6687C33.9399 23.6308 33.9413 23.5891 33.9298 23.5502C33.9183 23.5113 33.8945 23.4774 33.862 23.4537C33.8295 23.4301 33.7903 23.4182 33.7505 23.4197ZM40.402 23.8031C40.0045 23.3549 39.448 23.5709 39.024 23.4953C38.9992 23.49 38.9738 23.4897 38.9489 23.4944C38.9241 23.4991 38.9004 23.5088 38.8793 23.5228C38.8581 23.5369 38.8399 23.555 38.8256 23.5762C38.8113 23.5975 38.8013 23.6213 38.7961 23.6465C38.7908 23.6717 38.7905 23.6977 38.7952 23.723C38.7998 23.7482 38.8093 23.7724 38.8231 23.7939C38.8368 23.8155 38.8547 23.8341 38.8755 23.8486C38.8963 23.8632 38.9198 23.8734 38.9445 23.8787C39.3897 23.9651 39.8879 23.8355 40.0734 24.2459C40.4232 25.0343 39.6229 27.0701 40.3119 27.9341C39.6971 28.6955 40.4285 29.8997 39.8773 30.4451C39.6705 30.6315 39.4005 30.7284 39.1247 30.7151C39.0836 30.7077 39.0413 30.716 39.0058 30.7383C38.9704 30.7607 38.9442 30.7956 38.9324 30.8364C38.9206 30.8771 38.924 30.9209 38.9418 30.9593C38.9597 30.9977 38.9908 31.028 39.0293 31.0445C39.182 31.0949 39.343 31.1141 39.5031 31.1009C39.6631 31.0877 39.819 31.0424 39.9619 30.9676C40.1047 30.8929 40.2316 30.7901 40.3353 30.6652C40.439 30.5403 40.5175 30.3958 40.5663 30.2399C40.6371 29.9236 40.6371 29.595 40.5663 29.2787C40.3914 27.9881 40.932 28.3391 40.9426 27.9557C40.9532 27.5723 40.4497 27.8693 40.5398 26.7515C40.6829 25.2881 40.8684 24.3269 40.402 23.8031Z" fill="black"/>
<path d="M35.0704 25.9631C34.9011 25.9519 34.732 25.9883 34.5815 26.0683C34.4311 26.1483 34.305 26.2688 34.2171 26.4167C34.0924 26.5352 33.9997 26.6843 33.9477 26.8497C33.8957 27.0152 33.8863 27.1915 33.9203 27.3617C34.0368 27.6272 34.2396 27.8436 34.4945 27.9744C34.7494 28.1052 35.0408 28.1425 35.3195 28.0799C35.1976 28.6199 35.0545 28.8683 34.3708 28.7279C34.3233 28.7249 34.2762 28.7391 34.238 28.7681C34.1998 28.797 34.1729 28.8389 34.1621 28.8861C34.1513 28.9334 34.1573 28.9831 34.179 29.0263C34.2007 29.0695 34.2368 29.1034 34.2807 29.1221C34.9061 29.2733 35.4997 29.1221 35.6905 28.5173C36.2841 26.9999 35.6905 26.0873 35.0704 25.9631ZM34.8743 27.5831C34.5298 27.4589 34.445 27.3131 34.4185 27.2051C34.392 27.0971 34.4662 26.9027 34.6146 26.7245C34.763 26.5463 34.8584 26.4221 35.0068 26.4815C35.5686 26.7245 35.5103 27.8261 34.8743 27.5993V27.5831ZM37.5826 27.2807C36.6869 27.1187 36.1357 28.1987 36.5226 28.7063C36.7086 28.8904 36.9577 28.9933 37.2169 28.9933C37.4762 28.9933 37.7253 28.8904 37.9112 28.7063C37.9112 28.8413 37.9112 28.9925 37.943 29.0735C37.9442 29.1108 37.959 29.1464 37.9845 29.1733C38.0099 29.2003 38.0442 29.2166 38.0808 29.2193C38.1179 29.2193 38.1535 29.2047 38.1802 29.1785C38.2069 29.1523 38.2226 29.1166 38.2239 29.0789C38.2239 28.8737 38.3193 27.9449 38.2981 27.8801C38.2459 27.7219 38.1512 27.5819 38.0247 27.4759C37.8982 27.37 37.745 27.3023 37.5826 27.2807ZM37.7946 27.9341C37.7946 28.0961 37.5985 28.3553 37.5031 28.4093C37.2381 28.5551 36.9731 28.5443 36.9095 28.4471C36.8459 28.3499 37.0526 27.7505 37.3759 27.7505C37.4978 27.7505 37.7681 27.8045 37.7946 27.9341ZM68.9533 19.3481C68.1848 19.2077 67.464 20.2067 67.7661 21.0491C67.8368 21.2922 67.9891 21.5023 68.1965 21.6425C68.4038 21.7827 68.653 21.8441 68.9003 21.8159C70.3631 21.6593 70.061 19.5587 68.9533 19.3481ZM68.9003 21.2705C68.2272 21.4325 67.9887 20.5631 68.3703 20.0609C68.4219 19.9852 68.4898 19.9224 68.5688 19.8775C68.6478 19.8326 68.7358 19.8066 68.8261 19.8017C68.9529 19.825 69.0726 19.8781 69.1757 19.9568C69.2787 20.0356 69.3623 20.1378 69.4197 20.2553C69.4828 20.4601 69.4636 20.682 69.3662 20.8724C69.2688 21.0628 69.1013 21.2059 68.9003 21.2705ZM71.9637 19.5209C71.916 19.9097 71.6086 21.3569 71.6033 21.7349C71.6105 21.797 71.6379 21.8548 71.681 21.8993C71.7242 21.9438 71.7806 21.9723 71.8415 21.9803C71.9023 21.9884 71.9641 21.9755 72.0169 21.9438C72.0698 21.912 72.1108 21.8632 72.1333 21.8051C72.2181 21.4271 72.2711 19.9313 72.3135 19.5587C72.3559 19.3157 71.9955 19.2887 71.9637 19.5209ZM70.3525 21.6269C70.32 21.6172 70.2858 21.6149 70.2524 21.6201C70.2189 21.6252 70.1869 21.6377 70.1587 21.6568C70.1305 21.6758 70.1066 21.7008 70.0888 21.7302C70.0711 21.7595 70.0597 21.7924 70.0557 21.8267C70.008 22.2695 69.4886 22.4045 69.6529 22.6367C69.6756 22.6706 69.7097 22.6948 69.7488 22.7048C69.7879 22.7148 69.8292 22.7097 69.8649 22.6907C70.0209 22.6186 70.1605 22.5142 70.2746 22.384C70.3886 22.2538 70.4748 22.1008 70.5274 21.9347C70.5362 21.9028 70.5386 21.8694 70.5345 21.8365C70.5304 21.8036 70.5199 21.7719 70.5036 21.7432C70.4873 21.7145 70.4656 21.6895 70.4396 21.6695C70.4137 21.6495 70.3841 21.635 70.3525 21.6269ZM66.6425 21.2327C66.6425 21.1124 66.5956 20.997 66.5121 20.9119C66.4286 20.8269 66.3154 20.7791 66.1973 20.7791C66.0792 20.7791 65.966 20.8269 65.8825 20.9119C65.799 20.997 65.7521 21.1124 65.7521 21.2327C65.7521 21.353 65.799 21.4684 65.8825 21.5534C65.966 21.6385 66.0792 21.6863 66.1973 21.6863C66.3154 21.6863 66.4286 21.6385 66.5121 21.5534C66.5956 21.4684 66.6425 21.353 66.6425 21.2327ZM53.79 28.1825C53.79 28.3028 53.8369 28.4182 53.9204 28.5032C54.0039 28.5883 54.1171 28.6361 54.2352 28.6361C54.3533 28.6361 54.4665 28.5883 54.55 28.5032C54.6335 28.4182 54.6804 28.3028 54.6804 28.1825C54.6804 28.0622 54.6335 27.9468 54.55 27.8617C54.4665 27.7767 54.3533 27.7289 54.2352 27.7289C54.1171 27.7289 54.0039 27.7767 53.9204 27.8617C53.8369 27.9468 53.79 28.0622 53.79 28.1825ZM27.0303 42.1199C27.0371 42.0565 27.0308 41.9924 27.0116 41.9317C26.9925 41.8711 26.961 41.8152 26.9193 41.7677C26.8775 41.7202 26.8264 41.6823 26.7693 41.6563C26.7122 41.6303 26.6503 41.6169 26.5878 41.6169C26.5252 41.6169 26.4634 41.6303 26.4062 41.6563C26.3491 41.6823 26.298 41.7202 26.2563 41.7677C26.2145 41.8152 26.183 41.8711 26.1639 41.9317C26.1448 41.9924 26.1384 42.0565 26.1452 42.1199C26.1384 42.1832 26.1448 42.2474 26.1639 42.308C26.183 42.3687 26.2145 42.4246 26.2563 42.4721C26.298 42.5195 26.3491 42.5575 26.4062 42.5835C26.4634 42.6095 26.5252 42.6229 26.5878 42.6229C26.6503 42.6229 26.7122 42.6095 26.7693 42.5835C26.8264 42.5575 26.8775 42.5195 26.9193 42.4721C26.961 42.4246 26.9925 42.3687 27.0116 42.308C27.0308 42.2474 27.0371 42.1832 27.0303 42.1199ZM30.1573 41.7365C30.1573 41.8568 30.2042 41.9722 30.2877 42.0572C30.3712 42.1423 30.4845 42.1901 30.6025 42.1901C30.7206 42.1901 30.8338 42.1423 30.9173 42.0572C31.0008 41.9722 31.0477 41.8568 31.0477 41.7365C31.0477 41.6162 31.0008 41.5008 30.9173 41.4157C30.8338 41.3307 30.7206 41.2829 30.6025 41.2829C30.4845 41.2829 30.3712 41.3307 30.2877 41.4157C30.2042 41.5008 30.1573 41.6162 30.1573 41.7365ZM50.8008 40.6781C50.6904 40.6903 50.5884 40.7437 50.5143 40.8279C50.4401 40.9121 50.3991 41.0213 50.3991 41.1344C50.3991 41.2475 50.4401 41.3567 50.5143 41.4409C50.5884 41.5251 50.6904 41.5784 50.8008 41.5907C50.9112 41.5784 51.0133 41.5251 51.0874 41.4409C51.1615 41.3567 51.2025 41.2475 51.2025 41.1344C51.2025 41.0213 51.1615 40.9121 51.0874 40.8279C51.0133 40.7437 50.9112 40.6903 50.8008 40.6781ZM55.9789 28.4417C56.0378 28.4432 56.0963 28.4325 56.151 28.4102C56.2057 28.3879 56.2553 28.3546 56.297 28.3121C56.3386 28.2697 56.3713 28.2191 56.3932 28.1634C56.4151 28.1077 56.4256 28.0481 56.4241 27.9881C56.4121 27.8756 56.3597 27.7717 56.2771 27.6961C56.1944 27.6206 56.0873 27.5788 55.9763 27.5788C55.8652 27.5788 55.7581 27.6206 55.6755 27.6961C55.5928 27.7717 55.5404 27.8756 55.5284 27.9881C55.5269 28.0485 55.5376 28.1086 55.5598 28.1647C55.582 28.2208 55.6152 28.2716 55.6574 28.3141C55.6996 28.3566 55.7499 28.3899 55.8052 28.4118C55.8605 28.4338 55.9196 28.4439 55.9789 28.4417ZM27.4119 16.2809C27.5074 16.2695 27.5955 16.2228 27.6594 16.1496C27.7233 16.0765 27.7586 15.9819 27.7586 15.884C27.7586 15.786 27.7233 15.6915 27.6594 15.6183C27.5955 15.5452 27.5074 15.4985 27.4119 15.4871C27.3164 15.4985 27.2284 15.5452 27.1645 15.6183C27.1006 15.6915 27.0652 15.786 27.0652 15.884C27.0652 15.9819 27.1006 16.0765 27.1645 16.1496C27.2284 16.2228 27.3164 16.2695 27.4119 16.2809ZM29.3676 16.2809C29.4631 16.2695 29.5512 16.2228 29.6151 16.1496C29.679 16.0765 29.7143 15.9819 29.7143 15.884C29.7143 15.786 29.679 15.6915 29.6151 15.6183C29.5512 15.5452 29.4631 15.4985 29.3676 15.4871C29.2721 15.4985 29.1841 15.5452 29.1202 15.6183C29.0563 15.6915 29.0209 15.786 29.0209 15.884C29.0209 15.9819 29.0563 16.0765 29.1202 16.1496C29.1841 16.2228 29.2721 16.2695 29.3676 16.2809ZM31.4823 16.2755C31.5778 16.2641 31.6659 16.2174 31.7298 16.1442C31.7937 16.0711 31.829 15.9765 31.829 15.8786C31.829 15.7806 31.7937 15.6861 31.7298 15.6129C31.6659 15.5398 31.5778 15.4931 31.4823 15.4817C31.3868 15.4931 31.2988 15.5398 31.2349 15.6129C31.171 15.6861 31.1356 15.7806 31.1356 15.8786C31.1356 15.9765 31.171 16.0711 31.2349 16.1442C31.2988 16.2174 31.3868 16.2641 31.4823 16.2755ZM29.5372 38.4749C29.5511 38.4463 29.5574 38.4145 29.5555 38.3827C29.5536 38.3508 29.5436 38.32 29.5265 38.2933C29.5094 38.2666 29.4857 38.2449 29.4579 38.2304C29.43 38.2158 29.3989 38.2089 29.3676 38.2103C29.2298 38.2103 29.2033 38.3561 29.0973 38.5667C28.3606 40.0571 27.3695 42.0767 27.2953 42.3467C27.2756 42.4038 27.278 42.4665 27.3021 42.5219C27.3263 42.5773 27.3702 42.6212 27.425 42.6446C27.4799 42.6681 27.5414 42.6693 27.5971 42.6481C27.6528 42.6268 27.6984 42.5847 27.7246 42.5303C27.9101 42.2333 29.3517 38.8367 29.5372 38.4749ZM31.0371 37.9781C31.0214 37.95 30.9986 37.9267 30.9711 37.9105C30.9437 37.8943 30.9125 37.8858 30.8808 37.8858C30.849 37.8858 30.8179 37.8943 30.7904 37.9105C30.763 37.9267 30.7402 37.95 30.7244 37.9781C29.8499 39.8303 28.5143 42.4709 28.4613 42.6761C28.4535 42.7142 28.4541 42.7535 28.4629 42.7914C28.4717 42.8292 28.4886 42.8646 28.5124 42.895C28.5362 42.9254 28.5663 42.9501 28.6005 42.9674C28.6347 42.9846 28.6723 42.9939 28.7104 42.9947C28.9171 42.9947 28.986 42.9245 30.788 38.7503C31.0424 38.1833 31.1166 38.1023 31.0371 37.9781ZM47.0696 42.5033C46.5525 41.7388 46.2578 40.8411 46.2193 39.9135C46.1809 38.9859 46.4003 38.0661 46.8523 37.2599C46.8776 37.2212 46.8868 37.1739 46.8779 37.1283C46.8689 37.0828 46.8426 37.0427 46.8046 37.0169C46.7667 36.9911 46.7202 36.9817 46.6755 36.9909C46.6308 37 46.5914 37.0268 46.5661 37.0655C45.9523 37.8834 45.6417 38.896 45.6892 39.9245C45.7367 40.953 46.1393 41.9313 46.8258 42.6869C46.8532 42.7071 46.8861 42.7179 46.9199 42.7178C46.9537 42.7176 46.9865 42.7065 47.0137 42.686C47.0409 42.6656 47.0609 42.6368 47.071 42.604C47.081 42.5711 47.0806 42.5359 47.0696 42.5033Z" fill="black"/>
<path d="M51.4739 36.6875C51.1029 36.8333 51.8873 37.2815 51.7654 39.8573C51.6594 42.0173 50.8697 42.7031 50.9969 42.9191C51.0106 42.9391 51.0288 42.9555 51.05 42.9668C51.0712 42.9781 51.0948 42.984 51.1188 42.984C51.1428 42.984 51.1664 42.9781 51.1876 42.9668C51.2088 42.9555 51.227 42.9391 51.2407 42.9191C51.806 42.0128 52.1438 40.9786 52.2242 39.9079C52.3046 38.8371 52.1252 37.7627 51.7018 36.7793C51.6832 36.7366 51.6489 36.7031 51.6063 36.6859C51.5636 36.6687 51.5161 36.6693 51.4739 36.6875ZM47.2127 39.7547C46.3541 40.3811 47.0802 41.3747 47.9547 41.1263V42.5897C47.9547 42.8111 47.7321 42.9245 47.5996 42.7355C47.5741 42.7005 47.5366 42.6766 47.4946 42.6686C47.4526 42.6606 47.4092 42.669 47.3731 42.6922C47.3369 42.7154 47.3107 42.7517 47.2996 42.7938C47.2885 42.8358 47.2935 42.8806 47.3134 42.9191C47.3766 43.0249 47.4713 43.1074 47.5837 43.1547C47.6961 43.202 47.8204 43.2116 47.9385 43.1822C48.0566 43.1527 48.1624 43.0856 48.2406 42.9908C48.3188 42.8959 48.3653 42.7781 48.3734 42.6545C48.3734 42.4817 48.5377 40.1165 48.3204 39.8303C48.253 39.7505 48.1707 39.6852 48.0783 39.6382C47.9858 39.5911 47.8852 39.5633 47.7821 39.5562C47.679 39.5492 47.5756 39.5631 47.4778 39.5972C47.3801 39.6312 47.2899 39.6848 47.2127 39.7547ZM47.8328 40.0949C47.8902 40.1548 47.9261 40.2327 47.9348 40.3159C47.9435 40.3992 47.9243 40.483 47.8805 40.5539C47.7639 40.6835 47.3505 40.6403 47.2922 40.4243C47.2339 40.2083 47.642 39.9599 47.8328 40.0949ZM49.444 39.6629C49.2616 39.7 49.0962 39.7968 48.9728 39.9385C48.8494 40.0803 48.7748 40.2592 48.7604 40.4481C48.746 40.637 48.7926 40.8255 48.893 40.985C48.9934 41.1445 49.1423 41.2661 49.3168 41.3315C49.4612 41.3865 49.6191 41.3926 49.7671 41.3488C49.9151 41.305 50.0453 41.2137 50.1383 41.0885C50.1572 41.0546 50.1647 41.0152 50.1596 40.9766C50.1545 40.9379 50.137 40.902 50.1099 40.8744C50.0829 40.8468 50.0476 40.829 50.0097 40.8238C49.9717 40.8186 49.9331 40.8262 49.8998 40.8455C49.7567 40.9319 49.2532 40.9319 49.2161 40.5107C49.2075 40.4271 49.2242 40.3429 49.264 40.2694C49.3038 40.1958 49.3648 40.1365 49.4388 40.0994C49.5128 40.0623 49.5961 40.0493 49.6776 40.062C49.7591 40.0747 49.8348 40.1125 49.8945 40.1705C49.9317 40.2063 49.9814 40.2255 50.0326 40.224C50.0838 40.2225 50.1323 40.2003 50.1674 40.1624C50.2026 40.1244 50.2215 40.0738 50.22 40.0217C50.2185 39.9695 50.1967 39.9201 50.1595 39.8843C50.0664 39.7916 49.9528 39.7231 49.8283 39.6845C49.7038 39.646 49.5719 39.6386 49.444 39.6629ZM24.1948 16.4159C24.2472 16.4333 24.3037 16.4333 24.3561 16.4158C24.4085 16.3983 24.4541 16.3643 24.4863 16.3187C24.6082 16.1513 24.958 14.6177 25.064 14.2505C25.0781 14.2039 25.0734 14.1536 25.051 14.1106C25.0287 14.0675 24.9904 14.0353 24.9447 14.021C24.8991 14.0067 24.8497 14.0114 24.8074 14.0342C24.7652 14.057 24.7336 14.0959 24.7195 14.1425C24.2107 15.6599 23.792 16.2863 24.1948 16.4159ZM39.8086 66.1715C39.374 66.6727 38.9103 67.147 38.42 67.5917C38.3929 67.6188 38.3714 67.6512 38.3567 67.6869C38.342 67.7226 38.3345 67.7609 38.3345 67.7996C38.3345 67.8383 38.342 67.8766 38.3567 67.9123C38.3714 67.948 38.3929 67.9803 38.42 68.0075C38.8281 68.3801 39.2574 68.7203 39.6496 69.0875C39.6784 69.1102 39.7138 69.1226 39.7503 69.1226C39.7868 69.1226 39.8222 69.1102 39.851 69.0875C39.8738 69.0594 39.8863 69.0241 39.8863 68.9876C39.8863 68.9511 39.8738 68.9158 39.851 68.8877C39.5701 68.5151 39.2892 68.1479 38.9924 67.8077C39.4012 67.375 39.7768 66.9111 40.116 66.4199C40.2803 66.2093 39.957 65.9771 39.8086 66.1715ZM57.7703 68.1641C57.8339 68.1641 57.7703 68.1641 58.454 67.7051C59.7207 66.7979 59.8479 66.7385 59.8108 66.4793C59.7631 66.1013 59.2808 66.0419 57.9823 65.3993C57.9331 65.3713 57.875 65.3645 57.8209 65.3802C57.7667 65.3959 57.7209 65.4328 57.6934 65.483C57.666 65.5331 57.6593 65.5923 57.6747 65.6475C57.6901 65.7027 57.7264 65.7493 57.7756 65.7773C58.0194 65.9177 58.7879 66.4091 59.0847 66.5927C58.3162 67.3271 57.6643 67.9373 57.6643 67.9373C57.6504 67.9583 57.6421 67.9827 57.6402 68.008C57.6383 68.0333 57.643 68.0586 57.6537 68.0815C57.6644 68.1044 57.6808 68.1241 57.7012 68.1386C57.7217 68.153 57.7455 68.1618 57.7703 68.1641ZM53.9437 67.2407C54.6539 67.2407 55.327 67.1219 56.0107 67.0895C56.0599 67.0895 56.1071 67.0696 56.1419 67.0341C56.1767 66.9987 56.1962 66.9506 56.1962 66.9005C56.1962 66.8503 56.1767 66.8023 56.1419 66.7668C56.1071 66.7314 56.0599 66.7115 56.0107 66.7115C55.3164 66.7115 54.6539 66.5981 53.9437 66.6467C53.8664 66.6467 53.7922 66.678 53.7376 66.7337C53.6829 66.7894 53.6522 66.8649 53.6522 66.9437C53.6522 67.0224 53.6829 67.098 53.7376 67.1537C53.7922 67.2094 53.8664 67.2407 53.9437 67.2407ZM50.0058 67.3919C50.345 67.3919 51.8078 67.2353 51.9668 67.2245C52.0146 67.2245 52.0604 67.2051 52.0942 67.1707C52.128 67.1363 52.147 67.0896 52.147 67.0409C52.147 66.9922 52.128 66.9455 52.0942 66.9111C52.0604 66.8766 52.0146 66.8573 51.9668 66.8573C51.8078 66.8573 50.345 66.7601 50.0058 66.8033C49.9359 66.8129 49.8719 66.8481 49.8255 66.9022C49.7791 66.9563 49.7535 67.0257 49.7535 67.0976C49.7535 67.1694 49.7791 67.2388 49.8255 67.293C49.8719 67.3471 49.9359 67.3822 50.0058 67.3919ZM45.204 67.0463C45.1671 67.047 45.1307 67.0551 45.0969 67.0701C45.0631 67.0852 45.0325 67.1068 45.0069 67.1339C44.9813 67.161 44.9612 67.1929 44.9477 67.2279C44.9343 67.2629 44.9277 67.3003 44.9284 67.3379C44.9284 67.6565 45.2517 67.6403 45.4584 67.6403C46.0669 67.6119 46.6736 67.5524 47.2763 67.4621C47.3234 67.4542 47.3663 67.4295 47.3972 67.3924C47.4282 67.3553 47.4451 67.3083 47.4451 67.2596C47.4451 67.2109 47.4282 67.1638 47.3972 67.1267C47.3663 67.0896 47.3234 67.0649 47.2763 67.0571C46.9212 67.0841 45.5432 67.0355 45.204 67.0463ZM43.0681 67.3433C42.6759 67.3433 41.1813 67.2731 40.7997 67.3433C40.7294 67.3433 40.662 67.3717 40.6123 67.4224C40.5626 67.473 40.5347 67.5417 40.5347 67.6133C40.5347 67.6849 40.5626 67.7536 40.6123 67.8042C40.662 67.8548 40.7294 67.8833 40.7997 67.8833C41.1972 67.9373 42.6812 67.7861 43.0681 67.7699C43.1236 67.7699 43.1769 67.7474 43.2161 67.7074C43.2554 67.6674 43.2774 67.6132 43.2774 67.5566C43.2774 67.5 43.2554 67.4458 43.2161 67.4058C43.1769 67.3657 43.1236 67.3433 43.0681 67.3433ZM22.5677 8.26188C22.4448 8.10573 22.285 7.98391 22.1033 7.90784C21.9216 7.83176 21.7239 7.80392 21.5288 7.82693C21.3336 7.84993 21.1474 7.92302 20.9875 8.03936C20.8277 8.1557 20.6994 8.31147 20.6148 8.49209C20.5301 8.67271 20.4918 8.87227 20.5035 9.07207C20.5152 9.27187 20.5765 9.46538 20.6816 9.63447C20.7867 9.80357 20.9322 9.94271 21.1045 10.0389C21.2768 10.135 21.4702 10.1851 21.6667 10.1843C21.8869 10.1878 22.1034 10.1268 22.2905 10.0086C22.4777 9.89045 22.6276 9.72002 22.7225 9.51757C22.8174 9.31513 22.8532 9.0892 22.8258 8.86661C22.7983 8.64402 22.7088 8.43413 22.5677 8.26188ZM22.2762 9.34188C22.2094 9.46885 22.1053 9.57138 21.9785 9.63514C21.8517 9.6989 21.7086 9.72071 21.569 9.6975C21.4295 9.6743 21.3005 9.60726 21.2002 9.50574C21.0999 9.40422 21.0332 9.2733 21.0095 9.13128C20.9841 9.02942 20.9814 8.92303 21.0017 8.81997C21.022 8.71691 21.0648 8.61981 21.1268 8.53585C21.1889 8.45188 21.2687 8.38318 21.3603 8.33483C21.4519 8.28648 21.553 8.2597 21.6561 8.25648C21.7763 8.26682 21.8922 8.30686 21.9938 8.37313C22.0954 8.43941 22.1796 8.52993 22.2391 8.63684C22.2986 8.74375 22.3317 8.86384 22.3354 8.98669C22.3391 9.10955 22.3133 9.23146 22.2603 9.34188H22.2762ZM27.5603 8.39688C27.4075 8.19344 27.1936 8.0466 26.9511 7.97884C26.7086 7.91107 26.4511 7.92612 26.2178 8.02168C25.9846 8.11723 25.7885 8.28803 25.6595 8.50793C25.5306 8.72783 25.4759 8.98472 25.5039 9.23928C25.5276 9.49433 25.6304 9.73504 25.7976 9.92643C25.9647 10.1178 26.1874 10.2499 26.4333 10.3035C26.6792 10.3571 26.9354 10.3294 27.1648 10.2245C27.3941 10.1195 27.5847 9.94274 27.7087 9.71988C27.8015 9.5058 27.8367 9.2704 27.8106 9.03788C27.7845 8.80535 27.6981 8.58411 27.5603 8.39688ZM26.2883 8.51028C26.4207 8.42155 26.5798 8.38369 26.7371 8.40348C26.8944 8.42326 27.0396 8.4994 27.1469 8.61828C27.2457 8.7368 27.3091 8.8816 27.3298 9.03564C27.3504 9.18968 27.3274 9.34652 27.2635 9.48768C27.1958 9.60896 27.094 9.70674 26.9711 9.76836C26.8483 9.82998 26.7101 9.85259 26.5745 9.83328C26.4339 9.80902 26.3035 9.74283 26.1999 9.64307C26.0962 9.54331 26.0239 9.41446 25.9922 9.27284C25.9604 9.13121 25.9706 8.98316 26.0214 8.84743C26.0722 8.71169 26.1614 8.59436 26.2777 8.51028H26.2883ZM32.537 8.53728C32.4142 8.38131 32.2547 8.25958 32.0732 8.18349C31.8918 8.10739 31.6943 8.07942 31.4994 8.10216C31.3044 8.12491 31.1183 8.19765 30.9585 8.31357C30.7986 8.4295 30.6702 8.58483 30.5852 8.76504C30.5002 8.94526 30.4615 9.14448 30.4726 9.34409C30.4837 9.5437 30.5443 9.73717 30.6488 9.90644C30.7532 10.0757 30.898 10.2152 31.0698 10.312C31.2415 10.4087 31.4345 10.4596 31.6307 10.4597C31.8513 10.4642 32.0685 10.404 32.2565 10.2863C32.4444 10.1685 32.5952 9.99814 32.6907 9.79549C32.7863 9.59284 32.8226 9.36646 32.7953 9.14337C32.7681 8.92028 32.6784 8.70988 32.537 8.53728ZM32.2402 9.61728C32.1773 9.72008 32.0896 9.80471 31.9853 9.86305C31.8811 9.92138 31.764 9.95148 31.6451 9.95045C31.5262 9.94942 31.4096 9.9173 31.3064 9.85717C31.2031 9.79703 31.1168 9.7109 31.0556 9.60703C30.9945 9.50315 30.9605 9.38501 30.957 9.26393C30.9535 9.14284 30.9806 9.02286 31.0356 8.9155C31.0907 8.80813 31.1719 8.71696 31.2714 8.65074C31.371 8.58451 31.4856 8.54545 31.6042 8.53728C31.727 8.54166 31.8467 8.57725 31.9526 8.64082C32.0584 8.70438 32.147 8.79391 32.2102 8.90124C32.2734 9.00858 32.3092 9.13032 32.3145 9.25538C32.3197 9.38043 32.2942 9.50484 32.2402 9.61728Z" fill="black"/>
<path d="M77.7352 17.5337C77.8864 17.2191 77.956 16.8704 77.9375 16.5207C77.9189 16.1709 77.8128 15.8319 77.6292 15.5357C77.1999 14.8877 76.336 14.9093 75.6417 14.9255C73.4952 14.9795 23.1081 13.4081 23.0551 13.4027C22.7478 13.3272 22.4239 13.3735 22.1488 13.5323C21.3061 14.1587 21.3326 16.3889 22.2813 16.9505C22.5618 17.0793 22.873 17.1225 23.177 17.0747L76.0922 18.5165C76.4269 18.5154 76.7554 18.4238 77.044 18.2512C77.3326 18.0785 77.5712 17.831 77.7352 17.5337ZM26.0496 14.0885C25.7612 14.7737 25.5221 15.4794 25.3341 16.1999C25.3327 16.232 25.3377 16.2641 25.3488 16.2942C25.3598 16.3242 25.3768 16.3517 25.3986 16.375C25.4204 16.3982 25.4466 16.4166 25.4756 16.4293C25.5046 16.4419 25.5358 16.4483 25.5673 16.4483C25.8058 16.4483 25.8482 16.2269 26.2086 14.8985C26.4047 14.1533 26.4577 14.1317 26.3623 14.0291C33.9572 14.2721 76.0657 15.4655 76.1505 15.4709C76.8024 15.4709 77.1575 15.6761 77.3006 16.0595C77.4086 16.3181 77.4386 16.6036 77.3866 16.8797C77.3347 17.1557 77.2033 17.4097 77.0091 17.6093C76.775 17.7766 76.5107 17.8951 76.2315 17.9582C75.9523 18.0212 75.6636 18.0274 75.382 17.9765C72.2921 17.8685 22.6841 16.5779 22.6311 16.5671C21.9368 16.3943 21.8785 14.7257 22.3025 14.0723C22.4562 13.8401 22.6894 13.8509 23.0551 13.8995C26.5001 14.0723 26.0973 13.9481 26.0496 14.0885ZM43.4972 46.1915C43.4972 45.6515 43.9424 45.8891 24.4172 46.4237C24.3052 46.4156 24.1928 46.4349 24.0896 46.48C23.9863 46.5251 23.8952 46.5946 23.8236 46.6829C23.6222 46.9907 23.972 63.5363 23.9826 63.6929C23.9854 63.7612 24.0139 63.8258 24.0624 63.8731C24.1108 63.9204 24.1753 63.9468 24.2423 63.9467C24.2423 63.9467 26.3252 63.8711 28.1484 63.8171C44.1491 63.3473 43.9424 63.1151 43.9265 62.8937C43.8841 62.4779 43.5025 46.4777 43.4972 46.1915ZM24.2635 47.0555C24.2635 47.0177 24.3642 46.9853 24.4172 46.9799C25.1221 46.9799 42.3418 46.4399 42.9672 46.4399C43.0149 48.0599 43.4601 61.8407 43.4972 62.6777C40.773 62.8559 26.4895 63.3689 24.5073 63.4121C24.1946 59.0003 24.2317 47.3795 24.2635 47.0555Z" fill="black"/>
<path d="M25.1701 62.0134C25.5835 61.7056 33.348 55.0529 33.6077 54.8369C35.6588 56.5055 41.4252 61.1981 42.6548 62.2133C42.8456 62.3699 43.0894 62.0891 42.9039 61.9271C40.7097 60.0695 35.1341 55.4471 34.0052 54.4967C34.5352 54.0755 41.1973 48.3947 42.0453 47.6981C42.2255 47.5415 41.9923 47.2715 41.8068 47.4173C39.6179 49.2101 34.4504 53.4598 33.5918 54.1672C31.9488 52.8442 26.6435 48.6809 25.3662 47.7413C25.3307 47.7203 25.289 47.713 25.2488 47.721C25.2085 47.7289 25.1724 47.7514 25.1472 47.7844C25.122 47.8173 25.1093 47.8584 25.1116 47.9001C25.1138 47.9419 25.1309 47.9813 25.1595 48.0113C26.9774 49.5233 33.0565 54.3941 33.1943 54.4913C31.4559 55.9655 25.4669 61.1009 24.9051 61.6787C24.8615 61.7145 24.8337 61.7664 24.8277 61.8231C24.8218 61.8799 24.8381 61.9367 24.8733 61.981C24.9084 62.0254 24.9594 62.0538 25.0151 62.0599C25.0708 62.066 25.1265 62.0493 25.1701 62.0134ZM63.1499 60.1181C61.3956 58.6493 57.7492 55.42 57.0549 54.8045C58.6078 53.4113 63.4149 48.8645 64.3795 47.9681C64.4153 47.9337 64.4363 47.8862 64.4378 47.8361C64.4393 47.786 64.4212 47.7373 64.3874 47.7008C64.3537 47.6642 64.3071 47.6429 64.2579 47.6413C64.2087 47.6398 64.1609 47.6583 64.1251 47.6927C63.4096 48.3677 56.8853 54.2645 56.6733 54.4589C55.8147 53.6975 49.0572 47.6117 48.7922 47.3849C48.759 47.3587 48.7175 47.3459 48.6757 47.3491C48.6339 47.3523 48.5947 47.3711 48.5657 47.402C48.5367 47.4329 48.52 47.4736 48.5188 47.5163C48.5175 47.559 48.5319 47.6007 48.559 47.6333C48.9989 48.0923 55.0886 53.8 56.2493 54.8422C55.6292 55.3822 49.4865 60.9173 48.8293 61.5113C48.8048 61.531 48.7873 61.5583 48.7794 61.5891C48.7716 61.6199 48.7738 61.6524 48.7858 61.6818C48.7978 61.7112 48.8189 61.7357 48.8459 61.7517C48.8729 61.7677 48.9043 61.7743 48.9353 61.7705C49.1844 61.7705 56.1274 55.6145 56.615 55.1825C57.7757 56.1815 61.8567 59.5673 62.8849 60.4043C63.0969 60.5555 63.3407 60.2801 63.1499 60.1181ZM10.8866 86.5078C10.8866 86.5078 25.3185 85.6655 25.5782 85.6439C25.6196 85.6408 25.6597 85.6279 25.6952 85.6062C25.7308 85.5845 25.7609 85.5546 25.7831 85.5189C25.8053 85.4831 25.8189 85.4426 25.8229 85.4005C25.8269 85.3585 25.8211 85.316 25.8061 85.2766C25.8326 81.7126 26.1983 75.0166 25.9757 74.6711C25.9036 74.581 25.8087 74.5128 25.7012 74.4738C25.5938 74.4348 25.4779 74.4264 25.3662 74.4496L10.9661 75.1733C10.8986 75.176 10.8346 75.2049 10.7873 75.2541C10.74 75.3033 10.713 75.369 10.7117 75.4378C10.6216 77.56 10.4361 86.0866 10.4838 86.2378C10.5083 86.3244 10.5624 86.3991 10.6363 86.4486C10.7101 86.4981 10.7989 86.5191 10.8866 86.5078ZM25.5305 75.1031C25.5305 75.5459 25.504 77.4412 25.3291 85.1146C23.8716 85.174 11.3159 85.9354 11.0191 85.9516C11.0191 84.8122 11.1993 76.9769 11.247 75.6917L25.398 74.9681C25.4327 74.9694 25.4657 74.984 25.4902 75.0091C25.5148 75.0341 25.5292 75.0677 25.5305 75.1031ZM30.4277 85.0174C30.4966 85.2712 30.7351 85.282 30.9842 85.2604C46.4178 84.04 45.6228 84.4666 45.7288 84.2668C45.7712 84.1805 45.6917 84.6232 45.8772 78.9748C45.8772 78.2782 46.0839 73.6991 45.9143 73.4345C45.8429 73.3435 45.7481 73.2745 45.6404 73.2354C45.5328 73.1963 45.4165 73.1886 45.3048 73.2131C45.2306 73.2131 31.6414 73.8934 30.91 73.9366C30.8415 73.938 30.7763 73.9664 30.7279 74.0157C30.6794 74.065 30.6516 74.1315 30.6503 74.2013C30.5655 76.1939 30.3747 84.8339 30.4277 85.0174ZM30.9577 84.715C30.9577 83.5433 31.1432 75.6917 31.1856 74.4551L45.4108 73.7314C45.5327 73.7314 45.5327 72.9376 45.2836 83.8672C43.8102 83.932 31.2704 84.6935 30.9418 84.715H30.9577ZM48.8346 83.6998C48.9088 83.9482 49.142 83.959 49.3964 83.9375C64.83 82.7117 64.035 83.1437 64.141 82.9439C64.1834 82.8629 64.1039 83.2732 64.2894 77.6572C64.2894 76.9444 64.4961 72.3868 64.3265 72.1114C64.2551 72.0205 64.1603 71.9515 64.0526 71.9124C63.945 71.8733 63.8287 71.8656 63.717 71.8901L49.3222 72.6137C49.2537 72.615 49.1885 72.6434 49.1401 72.6927C49.0916 72.742 49.0638 72.8085 49.0625 72.8783C48.9724 74.9735 48.7869 83.5 48.8346 83.6998ZM49.5819 73.1428L63.8071 72.4193C63.929 72.4193 63.9237 71.6363 63.6799 82.555C62.2224 82.6091 49.6614 83.3704 49.3699 83.392C49.354 83.3164 49.5342 74.4443 49.5819 73.1213V73.1428Z" fill="black"/>
<path d="M24.7723 75.3624C23.1823 76.6206 19.0324 79.6284 18.4441 80.0658C17.9618 79.7688 12.5293 76.4532 11.941 76.0806C11.9031 76.0555 11.8569 76.0468 11.8127 76.0564C11.7684 76.0661 11.7298 76.0932 11.7052 76.1319C11.6806 76.1705 11.6721 76.2176 11.6815 76.2626C11.6909 76.3077 11.7176 76.3471 11.7555 76.3721C12.5452 76.9121 16.9707 79.7742 17.9724 80.4114C17.6544 80.6436 12.2113 84.6341 11.888 84.9041C11.8602 84.9268 11.84 84.9578 11.8304 84.9928C11.8208 85.0277 11.8223 85.0649 11.8346 85.099C11.8469 85.133 11.8695 85.1623 11.8991 85.1826C11.9286 85.2029 11.9637 85.2131 11.9993 85.212C12.1795 85.212 18.3593 80.8433 18.5024 80.7353C19.7479 81.4751 24.2158 84.0077 24.7087 84.2723C24.7404 84.293 24.7783 84.301 24.8154 84.2951C24.8526 84.2891 24.8862 84.2695 24.9101 84.2399C24.9257 84.203 24.929 84.1619 24.9194 84.1228C24.9098 84.0838 24.888 84.0491 24.8571 84.024C22.8855 82.836 20.8927 81.6048 18.9635 80.4114C20.1136 79.542 24.9843 75.6702 24.9843 75.6702C25.0244 75.6415 25.0516 75.5978 25.0601 75.5487C25.0685 75.4996 25.0575 75.4491 25.0294 75.4083C25.0013 75.3674 24.9584 75.3397 24.9102 75.3311C24.862 75.3225 24.8124 75.3337 24.7723 75.3624ZM44.9812 73.98C44.5678 74.277 38.2025 78.7805 37.7202 79.1315C36.5701 78.3269 32.8283 75.6701 31.9856 75.0059C31.8054 74.8655 31.5881 75.1517 31.763 75.2921C33.1887 76.4369 36.4535 78.9048 37.2432 79.4826C36.0613 80.379 32.0863 83.1761 31.3284 83.9429C31.3095 83.9615 31.2964 83.9854 31.2909 84.0115C31.2853 84.0377 31.2875 84.0649 31.2971 84.0898C31.3068 84.1147 31.3235 84.1361 31.3451 84.1513C31.3667 84.1665 31.3923 84.1748 31.4185 84.1752C31.4927 84.1752 31.8796 83.9538 37.6884 79.7958C38.9869 80.6706 43.1845 83.2193 44.1279 83.7323C44.157 83.7448 44.1895 83.7463 44.2196 83.7366C44.2497 83.7268 44.2754 83.7064 44.292 83.679C44.3086 83.6516 44.3151 83.6191 44.3103 83.5873C44.3055 83.5555 44.2897 83.5265 44.2657 83.5055C43.4813 82.9655 38.5576 79.7255 38.1707 79.4447C39.1247 78.7589 44.7851 74.5254 45.1667 74.2446C45.2012 74.2195 45.2244 74.1815 45.2314 74.139C45.2383 74.0964 45.2284 74.0528 45.2038 74.0178C45.1792 73.9827 45.1419 73.959 45.1002 73.9519C45.0585 73.9448 45.0157 73.9549 44.9812 73.98ZM56.885 77.5764C58.1994 78.4728 62.185 81.3077 63.0436 81.9773C63.0614 81.9926 63.0819 82.0041 63.104 82.0113C63.1261 82.0185 63.1494 82.0211 63.1726 82.0191C63.1957 82.0171 63.2182 82.0105 63.2388 81.9996C63.2594 81.9887 63.2777 81.9738 63.2927 81.9558C63.3077 81.9377 63.319 81.9168 63.326 81.8942C63.3331 81.8717 63.3357 81.8479 63.3337 81.8244C63.3317 81.8008 63.3252 81.7779 63.3146 81.7569C63.3039 81.7359 63.2893 81.7172 63.2715 81.702C62.5878 81.162 58.3743 77.9543 57.3832 77.2415C57.9132 76.8905 62.7945 73.4616 63.3775 73.0674C63.3977 73.0546 63.4152 73.0379 63.4291 73.0182C63.4429 72.9986 63.4528 72.9763 63.4582 72.9528C63.4637 72.9292 63.4645 72.9048 63.4606 72.8809C63.4568 72.857 63.4483 72.8341 63.4358 72.8136C63.4233 72.793 63.4069 72.7751 63.3876 72.761C63.3683 72.7469 63.3465 72.7368 63.3233 72.7313C63.3002 72.7258 63.2762 72.725 63.2528 72.7289C63.2293 72.7328 63.2069 72.7414 63.1867 72.7542C62.7097 73.0728 57.1447 76.6638 56.8267 76.8744C55.7296 76.1724 52.0567 73.98 51.0709 73.5156C51.033 73.497 50.9893 73.4945 50.9496 73.5087C50.9098 73.5229 50.8772 73.5525 50.8589 73.5912C50.7423 73.818 50.7688 73.656 56.3285 77.2091C54.7756 78.2891 49.9685 81.7614 49.4809 82.1502C49.4543 82.1784 49.437 82.2143 49.4313 82.253C49.4256 82.2917 49.4318 82.3312 49.4491 82.3661C49.4718 82.4001 49.5063 82.4241 49.5457 82.4331C49.5851 82.4421 49.6263 82.4356 49.6611 82.4147C50.2335 82.0799 56.885 77.5764 56.885 77.5764Z" fill="black"/>
<path d="M103.35 93.2309C102.767 93.0959 99.6402 92.6639 83.2791 90.2069C82.9336 89.712 82.6654 89.1655 82.4841 88.5869C82.4152 86.9669 82.0071 81.8261 81.8746 80.8217C81.6096 78.8237 81.0743 76.8257 81.1167 74.7683C81.6838 74.6441 82.2456 74.5091 82.7862 74.3579C82.8324 74.343 82.8727 74.3135 82.9013 74.2737C82.9298 74.2339 82.9452 74.1859 82.9452 74.1365C82.9523 72.1176 82.807 70.101 82.5106 68.1047C83.401 67.1003 83.3692 65.2103 83.3374 63.6713C83.3374 62.2673 83.3851 61.2845 83.3798 51.7913C85.0069 50.4899 84.6359 47.6009 84.4398 46.1321C84.9115 45.7973 84.9327 45.7973 84.938 45.7163C84.8973 45.1898 84.7905 44.6708 84.62 44.1719C84.5077 43.9101 84.3435 43.6748 84.1377 43.4807C84.3179 43.2107 84.3497 43.1891 84.3126 43.1027C84.0105 42.4709 83.7826 42.0227 83.4858 41.5421V36.8063C84.4372 36.913 85.3956 36.6823 86.1994 36.1529C86.2285 36.1372 86.2508 36.111 86.262 36.0794C86.2732 36.0478 86.2724 36.0132 86.2598 35.9821C86.2472 35.9511 86.2238 35.926 86.194 35.9116C86.1642 35.8973 86.1302 35.8948 86.0987 35.9045C85.3779 36.0827 84.8585 35.9963 84.5511 35.6399C83.7932 34.7759 84.408 32.4971 84.7101 31.6871C85.4203 29.6675 86.3001 29.5973 86.5121 28.1447C86.6326 27.0979 86.4045 26.0402 85.8643 25.1412C85.3242 24.2423 84.5034 23.5543 83.5335 23.1875C83.5335 23.1443 83.6766 14.9525 83.6819 14.6987C83.7349 12.3713 83.8038 9.18533 81.2492 8.13233C80.6729 7.93581 80.0641 7.8569 79.4578 7.90013C79.3465 7.90013 23.3467 6.07493 22.9545 6.04793C21.8965 5.92404 20.8269 5.94584 19.7745 6.11273C17.1245 6.69593 17.0874 9.35273 17.0715 11.0807C17.0715 11.2265 17.1033 26.3033 17.1245 40.6511C15.3384 40.6079 8.22053 40.5971 6.73123 40.6511C5.47513 40.6511 4.37803 40.7429 3.67843 41.2883C3.33685 41.5635 3.05972 41.9127 2.8672 42.3106C2.67467 42.7085 2.57159 43.1451 2.56543 43.5887C2.56543 48.8753 3.09543 80.5949 2.80923 91.1573C2.77213 92.5289 3.37633 93.6089 4.39923 93.9275C3.76853 94.7969 4.39923 95.7851 5.30023 96.1955C12.2803 97.7291 32.5316 102.136 34.1322 102.136C34.9537 102.136 76.193 98.0477 100.854 95.6231C102.274 95.6231 103.679 94.8833 103.504 93.5441C103.44 93.2201 103.44 93.2525 103.35 93.2309ZM81.2969 80.4599C81.6255 83.1113 81.7315 85.8059 81.9276 88.4735C81.3815 88.6858 80.7778 88.6858 80.2316 88.4735C78.6416 85.4009 76.1241 81.2321 76.5216 77.6087C76.6435 76.4423 76.6912 75.9293 76.0393 74.9573C76.6064 74.9195 77.1841 74.8655 77.7883 74.7683C77.8996 74.7683 77.942 74.7683 78.3183 72.6623C79.0762 75.0383 79.0762 75.2003 79.2617 75.1571L80.6291 74.8601C80.5602 76.7555 81.0425 78.6077 81.2969 80.4599ZM65.7202 93.3551C66.4728 94.1867 68.5504 92.9771 69.4885 92.3561C69.5092 92.3436 69.5257 92.3251 69.5361 92.303C69.5465 92.2809 69.5502 92.2562 69.5468 92.2319C69.5303 92.1196 69.5368 92.0049 69.566 91.8952C69.5952 91.7855 69.6464 91.6832 69.7164 91.5947C69.7303 91.5736 69.7483 91.5555 69.7693 91.5415C69.7902 91.5276 69.8137 91.5182 69.8383 91.5137C69.9231 91.5137 70.0874 91.6703 70.1669 91.9673C70.2464 92.2643 71.0096 92.0861 71.2269 91.9673C71.317 91.9133 71.3223 91.9241 71.2269 90.3473C73.6437 90.8063 78.4084 91.6433 80.1309 91.9673C80.1839 92.1995 80.2369 92.4263 80.2952 92.6423C74.4652 93.1823 33.7506 96.8867 32.7277 96.9623C32.1288 96.8219 19.8593 94.5917 19.43 94.5161C30.5918 93.5819 59.7471 91.1519 67.4745 90.4769C66.4463 92.0537 65.5718 92.2589 65.5347 92.4425C65.4891 92.5984 65.4822 92.7634 65.5146 92.9227C65.5469 93.0819 65.6176 93.2305 65.7202 93.3551ZM64.8192 71.0045C61.7982 71.1071 22.6259 72.5219 20.2727 71.9279C18.3753 71.6849 17.4849 70.0163 17.6227 66.9707C17.6545 65.3507 17.522 18.0251 17.4955 11.7503C26.1133 12.1499 77.5922 13.6133 83.1678 13.6619C83.1678 14.6609 83.0777 19.6019 83.0194 23.0093C81.2492 22.5449 79.0603 22.9499 79.3783 24.7211C79.3839 24.7504 79.3988 24.777 79.4207 24.7967C79.6211 24.9562 79.7882 25.1548 79.9124 25.3809C80.0366 25.607 80.1152 25.856 80.1439 26.1134C80.1725 26.3708 80.1505 26.6315 80.0791 26.8801C80.0077 27.1288 79.8884 27.3604 79.7281 27.5615C79.6009 27.7127 79.956 28.3715 79.7864 30.6827C79.5585 33.7877 81.122 36.0827 82.9081 36.6497C82.9081 37.3517 82.8816 39.9653 82.8816 40.5809C81.0213 37.6271 80.0408 37.1141 76.9456 35.0675C76.7866 34.9595 76.7813 35.2457 77.3537 33.0263C77.7201 32.9066 78.0554 32.7047 78.3351 32.4356C78.6149 32.1665 78.8319 31.8369 78.9702 31.4711C79.0872 30.214 79.0872 28.9483 78.9702 27.6911C79.1116 27.2103 79.1445 26.7032 79.0665 26.2076C78.9884 25.712 78.8015 25.2408 78.5197 24.8291C78.0357 23.9959 77.3072 23.3386 76.4368 22.9499C74.7461 22.2263 73.1773 22.9499 71.7887 23.5709C70.1987 24.3323 70.2941 24.7913 70.4902 26.5517C70.4925 26.6921 70.5267 26.83 70.5901 26.9547C70.6536 27.0793 70.7446 27.1872 70.8559 27.2699C70.4849 28.5389 69.9496 30.8771 70.3524 32.1299C70.5067 32.5793 70.7481 32.9926 71.0622 33.3451C71.3763 33.6976 71.7568 33.9822 72.1809 34.1819C72.1438 34.3439 72.0643 34.6463 72.006 34.8731C71.7463 34.8029 71.2693 34.6841 70.9884 34.6193C69.2023 33.7715 67.5805 32.8049 65.7467 32.9993C65.6049 33.0198 65.4703 33.0754 65.3545 33.1613C65.0861 32.8985 64.7715 32.6896 64.427 32.5457C64.1408 32.0057 59.3814 24.2297 59.3231 24.1379C59.0846 23.7545 58.8832 23.4197 59.0581 23.0309C59.233 22.6421 59.6994 21.9509 59.6464 21.3785L63.9924 21.3515C64.133 21.3515 64.2678 21.2946 64.3672 21.1934C64.4666 21.0921 64.5224 20.9548 64.5224 20.8115V19.3211C64.5224 19.1779 64.4666 19.0406 64.3672 18.9393C64.2678 18.838 64.133 18.7811 63.9924 18.7811H48.2302C48.0897 18.7811 47.9549 18.838 47.8555 18.9393C47.7561 19.0406 47.7002 19.1779 47.7002 19.3211V21.0599C47.7002 21.2032 47.7561 21.3405 47.8555 21.4418C47.9549 21.543 48.0897 21.5999 48.2302 21.5999L54.2139 21.5405C54.7965 22.5671 55.6654 23.3941 56.7102 23.9165C56.9328 24.0353 56.9116 24.0515 57.3409 26.3681C58.0405 30.0995 58.7613 33.9605 61.0509 37.0439C61.0085 37.1519 60.9767 37.2599 60.9396 37.3679C60.9287 37.4039 60.9263 37.442 60.9327 37.4791C60.939 37.5162 60.954 37.5512 60.9762 37.5813C60.9985 37.6113 61.0274 37.6356 61.0607 37.652C61.094 37.6684 61.1306 37.6766 61.1675 37.6757C61.3428 37.6707 61.5171 37.7037 61.6788 37.7726C61.8406 37.8415 61.9861 37.9447 62.1056 38.0753C62.0155 39.1283 62.2169 39.6953 63.4412 40.6295C63.7486 40.8617 65.8209 42.0119 66.3668 42.3035C66.123 43.2863 65.9163 44.2907 65.7202 45.3005C60.1605 45.4895 47.997 45.6029 47.7002 45.8405C47.6118 45.9118 47.5408 46.003 47.493 46.1071C47.4451 46.2111 47.4217 46.3251 47.4246 46.4399C47.3398 48.5999 47.1596 60.9335 47.1755 61.5005C47.1755 62.5805 47.3504 63.2393 48.4793 63.1205C49.3008 63.1205 59.4556 62.8559 63.6214 62.7479C63.5578 63.4607 63.5366 63.4715 63.6214 63.5309C64.098 63.8996 64.6369 64.176 65.2114 64.3463C64.8344 66.5435 64.7011 68.777 64.8139 71.0045H64.8192ZM74.2002 38.2319C72.9335 38.3831 70.9248 38.1779 70.5644 36.9899C70.4266 36.4499 70.9301 35.4833 71.2004 35.1485L72.1226 35.3699C72.1788 35.3831 72.2378 35.3736 72.2872 35.3434C72.3366 35.3132 72.3726 35.2646 72.3876 35.2079C72.4565 34.9055 72.5413 34.5815 72.5996 34.3439C72.8063 34.4141 73.0289 34.5005 73.0766 34.3007C73.0822 34.2795 73.0837 34.2573 73.0808 34.2354C73.078 34.2136 73.071 34.1925 73.0601 34.1735C73.0493 34.1544 73.0349 34.1377 73.0177 34.1243C73.0005 34.111 72.9809 34.1012 72.96 34.0955C71.37 33.6473 70.5061 32.0543 70.84 30.2021C71.0066 28.9811 71.2437 27.7712 71.5502 26.5787C72.0116 27.1061 72.6294 27.4653 73.3097 27.6018C73.99 27.7383 74.6954 27.6445 75.3185 27.3347C75.1865 28.3235 75.2628 29.3295 75.5425 30.2858C75.8221 31.2421 76.2987 32.1267 76.9403 32.8805C76.3202 35.0405 76.299 35.0405 76.458 35.2781C76.617 35.5157 77.1523 35.7425 77.7618 36.2177C76.851 37.3036 75.5865 38.0187 74.2002 38.2319ZM74.2002 39.2039C73.9246 39.2039 74.2002 38.6909 74.4281 38.6909C74.656 38.6909 74.3804 39.1877 74.2002 39.2039ZM72.5731 39.0689C72.5731 39.3497 72.0431 39.5603 71.8523 39.4199C71.6615 39.2795 71.953 38.9501 72.2392 38.8799C72.3074 38.8616 72.3799 38.871 72.4413 38.9063C72.5026 38.9417 72.5481 39 72.5678 39.0689H72.5731ZM70.7923 38.5775C70.7706 38.5969 70.7447 38.6107 70.7167 38.6177C70.6887 38.6248 70.6594 38.6248 70.6314 38.618C70.6033 38.6111 70.5773 38.5974 70.5555 38.5782C70.5337 38.5589 70.5168 38.5346 70.5061 38.5073C70.4478 38.2211 70.8665 38.0645 70.9513 38.1779C71.0361 38.2913 70.9725 38.4209 70.787 38.5775H70.7923ZM78.6522 46.8395C78.6865 46.854 78.7156 46.8788 78.7355 46.9107C78.7555 46.9426 78.7652 46.98 78.7635 47.0177C78.7539 47.0542 78.7334 47.0867 78.7049 47.1108C78.6765 47.135 78.6414 47.1496 78.6045 47.1527C77.0145 47.0069 75.822 45.9539 75.4934 43.9505C75.485 43.9054 75.4945 43.8587 75.5198 43.8208C75.5452 43.7828 75.5843 43.7566 75.6286 43.748C75.6729 43.7394 75.7187 43.7491 75.7559 43.7749C75.7932 43.8008 75.8189 43.8406 75.8273 43.8857C75.999 44.5881 76.3504 45.2316 76.8457 45.7505C77.3411 46.2694 77.9626 46.6452 78.6469 46.8395H78.6522ZM57.8762 21.5081C57.908 21.6431 57.5317 21.6917 57.2031 22.6151C57.1947 22.6576 57.2018 22.7017 57.2231 22.7393C57.2443 22.7768 57.2782 22.8052 57.3185 22.8191C57.3588 22.833 57.4026 22.8314 57.4419 22.8148C57.4811 22.7981 57.5131 22.7675 57.5317 22.7285C57.8126 21.9509 58.4698 22.0967 58.3426 21.4649C58.0935 20.2391 58.3903 19.6073 58.8037 19.7315C58.8832 19.7315 58.8408 20.8115 59.1005 21.0869C59.5616 21.6269 58.7242 22.4369 58.5705 23.0363C58.5281 23.2318 58.5299 23.4345 58.5758 23.6291C58.6217 23.8237 58.7105 24.0051 58.8355 24.1595C58.9362 24.3161 63.6903 32.1407 64.0083 32.6483C62.8882 33.7709 61.9491 35.0666 61.2258 36.4877C58.6606 32.7995 58.1571 28.1609 57.2932 23.9273C57.1861 23.6982 56.9962 23.5202 56.7632 23.4305C55.9406 22.9958 55.2484 22.3428 54.7598 21.5405L57.8762 21.5081ZM64.0401 33.2855C64.2786 33.0155 64.3051 32.9615 64.3952 32.9831C64.6122 33.0945 64.8151 33.2323 64.9994 33.3935C64.374 33.8957 62.6621 35.9207 62.2116 37.4705C61.9858 37.3142 61.7253 37.2177 61.4537 37.1897C61.9413 35.6885 63.0119 34.4681 64.0401 33.2855ZM63.6691 62.2727C59.3761 62.3483 48.5747 62.6561 47.8963 62.5535C47.7002 62.3753 47.7108 61.9811 47.7161 61.6625C47.7161 61.6031 47.8645 47.2877 47.944 46.3697C47.944 46.1861 46.6296 46.2671 65.6036 45.7919C64.6602 51.0029 64.1938 56.6621 63.6691 62.2727ZM65.6195 64.4759C66.1942 64.5835 66.7833 64.5835 67.3579 64.4759C67.3859 64.4716 67.4119 64.4583 67.4319 64.4379C67.4519 64.4175 67.465 64.3911 67.4692 64.3625C68.561 58.3145 67.5434 57.8825 68.5292 46.9043C69.0592 40.7537 69.8542 38.7233 69.6952 38.5235C68.8366 37.4435 69.3666 36.2717 70.4584 35.4779C69.9284 36.4499 70.0768 37.2383 70.5008 37.7297C70.3684 37.7798 70.2554 37.8721 70.1785 37.9927C70.1015 38.1134 70.0648 38.2561 70.0737 38.3997C70.0827 38.5434 70.1368 38.6802 70.228 38.79C70.3192 38.8999 70.4428 38.9768 70.5803 39.0095C70.7722 39.0222 70.9616 38.96 71.1102 38.8357C71.2588 38.7114 71.3555 38.5342 71.3806 38.3399C71.5448 38.408 71.713 38.4657 71.8841 38.5127C71.1686 38.9447 71.1898 39.8951 72.0272 39.8951C72.2644 39.911 72.4987 39.8345 72.6827 39.6811C72.8666 39.5278 72.9866 39.309 73.0183 39.0689C73.0183 38.4911 72.4247 38.7233 73.7444 38.6909C73.2409 39.7331 74.6242 39.9815 74.9051 38.9717C74.9541 38.8321 74.9541 38.6794 74.9051 38.5397C77.3537 37.9997 76.0128 37.0223 74.9051 41.2721C74.0306 44.5877 74.3751 48.5405 74.8362 51.2999C74.2261 51.7891 73.6586 52.3311 73.1402 52.9199C72.536 51.6293 72.2763 51.0461 72.1438 50.7923C72.0113 50.5385 72.006 50.5979 71.9318 50.6195C71.6509 50.7167 70.8983 51.0191 70.1775 51.3269C70.4796 48.0275 70.6545 46.0025 71.2375 41.1695C71.241 41.1275 71.2289 41.0857 71.2035 41.0525C71.178 41.0192 71.1412 40.9969 71.1004 40.9901C71.0596 40.9833 71.0177 40.9924 70.9832 41.0157C70.9487 41.0389 70.9241 41.0746 70.9142 41.1155C70.4531 43.9991 69.9072 47.7305 69.6793 51.5483C69.1493 51.7751 68.8737 51.8885 68.7359 51.9695C68.5981 52.0505 68.6087 52.0883 68.6352 52.1585C68.7518 52.4447 69.091 53.2385 69.5097 54.2159C68.9797 58.3793 67.6865 71.0207 67.5593 72.8513C66.7292 72.402 65.9611 71.8428 65.275 71.1881C65.1399 68.9447 65.2555 66.6928 65.6195 64.4759ZM74.2479 55.3931C74.5447 55.1339 75.0111 54.6803 75.3079 54.3833C76.0658 61.1495 76.5905 57.8771 75.9916 69.2495C75.8697 71.5499 75.7637 73.5695 75.8326 74.4605C74.5944 74.5447 73.3508 74.4959 72.1226 74.3147C72.1862 72.9377 72.7798 60.6905 72.8858 59.3999C73.687 59.0769 74.4631 58.6924 75.2072 58.2497C75.3132 58.1525 75.2867 58.2713 74.2479 55.3931ZM79.8553 88.8731V89.6993C75.9121 89.1053 72.6155 88.6193 71.1209 88.3709C71.0944 88.0469 71.0732 87.7823 71.0573 87.6203C72.0749 84.1805 73.5801 79.6121 72.2021 76.2803C72.0166 75.8267 71.8682 76.2317 72.5254 74.8925C73.523 75.0066 74.5276 75.0427 75.5305 75.0005C76.4686 76.3127 76.087 76.5125 76.0022 77.7005C75.7054 81.6911 77.9367 85.2875 79.8553 88.8731ZM79.8871 90.2609C79.9189 90.6605 79.9772 91.0763 80.0461 91.4867L71.211 89.9045C71.211 89.5589 71.1739 89.2133 71.1527 88.8893C72.9176 89.1917 76.14 89.6939 79.8871 90.2609ZM71.6032 74.2283C70.3604 74.0143 69.1528 73.6254 68.0151 73.0727C68.0681 72.5759 69.5627 57.8555 69.8595 55.0637C71.317 58.4387 71.7145 59.3837 71.8576 59.6213C71.9265 59.7347 71.9371 59.7077 71.9742 59.7077C72.1171 59.6814 72.2573 59.6417 72.3929 59.5889C72.0484 63.5201 71.6297 72.7973 71.6032 74.2283ZM72.0219 74.8061C71.4548 75.8213 71.4018 75.8861 71.6668 76.3505C72.1968 77.2847 72.2286 79.0127 72.1968 80.0873C72.1067 82.0691 70.6704 86.9615 70.5273 87.4421C70.3064 87.6411 70.0332 87.77 69.7414 87.8132C69.4496 87.8564 69.1517 87.8119 68.8843 87.6851C68.773 87.6419 68.8101 87.7661 68.7465 86.9075C68.5398 84.0563 67.9992 76.6799 67.6865 73.4939C69.0599 74.1478 70.521 74.59 72.0219 74.8061ZM79.3518 65.7935C79.5956 67.9211 80.3853 73.4291 80.5231 74.3687L79.4207 74.6495C79.2458 74.1095 78.684 72.0899 78.4667 71.6201C78.4432 71.5763 78.4072 71.5407 78.3634 71.518C78.3197 71.4953 78.2702 71.4866 78.2216 71.493C78.1729 71.4994 78.1273 71.5207 78.0906 71.554C78.054 71.5872 78.028 71.631 78.0162 71.6795C77.8572 72.5543 77.7035 73.4345 77.5498 74.3093C77.0993 74.3525 76.6912 74.3849 76.3149 74.4119C76.3149 71.6795 76.4103 68.8877 76.5693 66.1175C77.4544 66.0473 78.8907 65.8799 79.3518 65.7935ZM77.3431 58.0985C77.3401 58.0636 77.3506 58.0288 77.3724 58.0015C77.3942 57.9743 77.4255 57.9568 77.4597 57.9527C81.1697 57.4991 81.0213 57.4613 81.0743 57.6125C81.1919 58.0112 81.2315 58.4295 81.1909 58.8437C81.1909 58.9895 81.3446 58.9031 77.6081 59.3837C77.4226 59.4323 77.4544 59.2487 77.3431 58.0985ZM81.0107 74.2445C80.3535 70.7183 80.1892 69.3521 79.7546 65.7233C80.3481 65.6704 80.9377 65.5784 81.5195 65.4479C82.1521 68.2244 82.4739 71.0649 82.4788 73.9151C81.97 74.0177 81.4612 74.1365 81.0107 74.2445ZM82.8657 58.2551C82.8127 65.6261 82.9982 66.1553 82.3887 67.3973C82.2668 66.6737 82.129 65.9447 81.97 65.2373C82.1371 65.1168 82.2869 64.9733 82.4152 64.8107C82.5689 64.6217 82.0018 57.7907 81.0849 52.8497C81.5301 52.6769 82.4152 52.3097 82.8922 52.0613C82.8975 54.1187 82.8816 56.2193 82.8657 58.2551ZM83.8886 50.0687C83.7704 50.5872 83.4684 51.043 83.0406 51.3485C80.7775 52.8389 75.3874 53.5733 75.3344 53.5787C75.3092 53.5837 75.2857 53.5953 75.2662 53.6124C75.2467 53.6294 75.2318 53.6513 75.2231 53.6759C74.8566 54.1997 74.4275 54.6749 73.9458 55.0907C73.6643 55.4228 73.2971 55.6678 72.8858 55.7981C72.5625 55.8467 71.7781 55.4471 72.6473 55.3661C72.8783 55.3737 73.1055 55.306 73.2962 55.173C73.4868 55.0399 73.6308 54.8485 73.7073 54.6263C73.7195 54.5916 73.7193 54.5536 73.7067 54.519C73.6941 54.4845 73.6699 54.4555 73.6384 54.4373C73.331 54.2915 73.5854 55.0313 72.1173 54.9773C71.7622 54.9773 71.3064 54.5129 71.8894 54.5561C72.8328 54.6317 73.4794 53.9729 73.2462 53.7947C73.2216 53.7741 73.1907 53.7628 73.1588 53.7628C73.1269 53.7628 73.096 53.7741 73.0713 53.7947C72.6632 54.2375 72.0537 54.1295 71.4389 54.0539C71.1368 54.0161 70.9089 53.6867 71.3064 53.6219C71.8364 53.5355 73.1349 53.5409 73.2833 53.3897C74.8733 51.5915 77.1629 50.3981 79.0285 49.4423C80.7506 48.5798 82.4009 47.5757 83.9628 46.4399C84.1529 47.6442 84.1278 48.8736 83.8886 50.0687ZM83.7667 43.9451C84.0597 44.3933 84.218 44.9187 84.2225 45.4571C82.8269 46.5201 81.3703 47.4974 79.8606 48.3839C79.8182 48.0761 79.744 47.5091 79.7334 47.3039C81.7421 46.1429 83.1625 44.9495 83.7667 43.9451ZM20.0554 6.51773C37.4765 6.92813 79.0285 8.33753 79.0285 8.33753C79.7864 8.33753 80.168 8.37533 80.3535 8.36453H80.4012C81.8799 8.57513 82.7226 9.98453 82.9982 11.1185C83.1342 11.8006 83.1911 12.4966 83.1678 13.1921C73.9829 13.0355 42.7712 12.3119 17.4902 11.2049C17.4902 8.81813 17.7128 6.83633 20.0554 6.51773ZM17.4902 70.1999C16.144 70.1999 11.9093 70.1999 10.5631 70.2647C10.5631 68.5799 10.4677 56.9375 10.4518 55.2473C11.4535 55.2851 16.0539 55.1663 17.1086 55.1393C17.1192 68.7365 16.9602 68.7581 17.4902 70.1999ZM17.098 50.2199C15.6299 50.2199 11.1673 50.2199 10.155 50.2685C10.1868 49.6529 10.208 48.1085 10.2239 47.3687C11.2097 47.3687 15.5875 47.2445 17.1139 47.1581C17.0927 48.1571 17.0927 49.1831 17.0927 50.1821L17.098 50.2199ZM17.098 46.6721C16.3666 46.6721 10.3193 46.8611 10.0119 46.8881C9.70453 46.9151 9.76283 47.2067 9.74693 47.7467C9.68863 49.5341 9.67273 50.2577 9.70453 50.5547C9.73103 50.7545 9.77343 50.7599 9.84763 50.7653C10.5366 50.8139 16.4037 50.7167 17.1033 50.7059V54.6533C9.80523 54.7397 10.0066 54.7289 10.0066 55.0259C10.0066 55.1663 10.0066 69.3953 10.0649 70.6319C10.0649 70.8857 10.6903 70.8209 17.734 70.7615C18.5767 72.3815 19.9282 72.5111 21.7249 72.6407C23.5216 72.7703 63.1073 71.5931 64.9358 71.5283C65.5845 72.263 66.3653 72.8642 67.236 73.2995C67.4957 76.3397 67.872 81.9395 68.1052 85.5143C64.7715 85.7411 9.27523 89.9261 7.30363 90.0719C7.30363 88.7273 7.06513 44.2043 7.06513 44.2043C7.93433 44.2043 16.0751 44.0693 17.0874 44.0369V46.6343L17.098 46.6721ZM4.77023 93.4901C4.16073 92.8475 4.42043 94.8023 4.42043 43.2701C4.42043 41.6501 5.48043 41.2289 6.71533 41.1587C8.30533 41.0669 11.2203 41.2289 17.0874 41.0561V43.5023C15.8684 43.5023 6.81603 43.6535 6.81603 43.6535C6.78104 43.6547 6.74663 43.663 6.71479 43.6778C6.68295 43.6927 6.65432 43.7138 6.63053 43.7399C6.52453 43.8587 6.80013 90.3743 6.82133 90.4283C6.83167 90.4525 6.84873 90.473 6.87039 90.4874C6.89205 90.5018 6.91737 90.5094 6.94323 90.5093C6.94323 90.5093 62.7681 86.3945 68.137 85.9463C68.137 86.2919 68.2854 88.2413 68.3066 88.5059C61.141 89.0999 5.30023 93.4199 4.77023 93.4901ZM33.8354 99.7055L6.04753 93.8303C16.2129 93.1553 60.2135 89.7209 68.1847 89.0189C68.093 89.3228 67.9742 89.6174 67.8296 89.8991C62.7893 90.2933 17.5962 94.1597 17.5962 94.1597C17.2623 94.1921 17.2888 94.6997 17.5962 94.6997L32.68 97.4969C32.7224 97.4969 33.8195 97.4051 80.4754 93.1769C80.4754 93.2471 80.5072 93.2957 80.5602 93.3335C81.0266 93.6305 81.7686 93.3335 81.7686 93.1121C81.7561 92.8262 81.7883 92.54 81.864 92.2643C81.864 92.2643 82.0177 92.3345 82.2986 93.1823C82.304 93.2008 82.3135 93.2177 82.3264 93.2317C82.3392 93.2458 82.3551 93.2566 82.3728 93.2633C83.3484 93.6183 84.352 93.8874 85.3726 94.0679C85.565 94.0711 85.7553 94.0265 85.927 93.9381C86.0987 93.8496 86.2468 93.72 86.3584 93.5603C86.4233 93.407 86.4423 93.2376 86.4131 93.0734C86.3839 92.9091 86.3077 92.7573 86.1941 92.6369C85.2406 92.2494 84.3945 91.6302 83.7296 90.8333C90.8793 91.9133 98.6756 92.9933 101.617 93.4307L33.8354 99.7055Z" fill="black"/>
</svg>
