<svg width="143" height="133" viewBox="0 0 143 133" fill="none" xmlns="http://www.w3.org/2000/svg">
<path d="M83.9262 100.465C83.7932 99.8277 83.5065 99.2265 83.0868 98.7078C82.6671 98.1891 82.1258 97.7662 81.5045 97.4709C80.8832 97.1757 80.1975 97.016 79.4997 97.0034C78.8018 96.9914 78.1097 97.1271 77.4769 97.4004C72.4126 99.2711 74.5933 106.626 80.2139 105.651C80.826 105.541 81.4087 105.32 81.9278 104.999C82.4469 104.678 82.8923 104.264 83.2377 103.781C83.5837 103.298 83.8225 102.756 83.9405 102.187C84.0585 101.618 84.0535 101.033 83.9262 100.465ZM79.401 105.07C73.676 104.65 74.396 97.6817 79.2408 97.6086C84.5218 97.5274 84.8243 104.725 79.401 105.07Z" fill="black"/>
<path d="M76.8068 101.346C76.7996 101.939 77.0413 102.511 77.481 102.941C77.9201 103.372 78.5221 103.626 79.1591 103.65C79.488 103.664 79.817 103.616 80.1251 103.507C80.4333 103.398 80.7143 103.233 80.9509 103.019C81.1869 102.806 81.3735 102.549 81.4993 102.266C81.6252 101.982 81.6867 101.678 81.681 101.372C81.6917 98.3634 76.9205 98.4499 76.8068 101.346ZM78.146 102.706C77.7921 102.472 77.5397 102.127 77.4339 101.736C77.328 101.344 77.3759 100.93 77.569 100.568C77.762 100.205 78.0874 99.9195 78.4871 99.7606C78.886 99.6017 79.3336 99.5804 79.7483 99.7007C80.0937 99.7965 80.4004 99.986 80.6285 100.245C80.8573 100.505 80.9974 100.821 81.0303 101.155C81.0589 101.478 80.9881 101.803 80.8265 102.09C80.6649 102.377 80.419 102.616 80.1173 102.778C79.8155 102.941 79.4702 103.02 79.122 103.008C78.7731 102.994 78.4363 102.89 78.1489 102.706H78.146Z" fill="black"/>
<path fill-rule="evenodd" clip-rule="evenodd" d="M70.6022 74.444C74.2517 75.2959 77.7044 76.0274 80.7803 76.6079C82.0252 76.8433 83.1649 77.0408 84.2052 77.221C93.2993 78.7978 94.7772 79.0538 92.472 91.5365C92.4584 91.6096 92.4384 91.724 92.4134 91.8663C92.294 92.5466 92.0602 93.8713 91.8743 94.4884C91.7963 94.7464 91.7778 94.9413 91.7649 95.0816C91.7427 95.3104 91.7349 95.3922 91.5068 95.3602C90.3113 95.1913 89.5005 95.0989 88.7676 95.0158C87.0652 94.8223 85.7796 94.676 81.0678 93.7297C80.4271 93.6007 79.7979 93.453 79.188 93.3094C76.3552 92.6431 73.9321 92.0732 72.61 93.9704C72.0345 94.797 69.3518 103.2 69.961 104.565C70.48 105.728 71.1221 106.631 73.4645 107.454C78.0083 108.91 82.6765 110.007 87.4184 110.732C87.4563 110.738 87.4856 110.74 87.5035 110.754C87.5736 110.811 87.4649 111.061 86.9837 112.521C86.7513 113.225 86.5289 113.902 86.3152 114.553C82.0924 127.407 81.195 130.138 74.0422 128.82C73.3358 128.689 72.6444 128.564 71.9615 128.439C65.5996 127.279 60.0137 126.261 50.1812 123.28C38.3837 119.704 28.4338 115.532 22.5214 112.447C15.2869 108.671 15.8563 104.672 17.5171 93.0095C17.7687 91.2432 18.0453 89.3001 18.3237 87.1561C18.3279 87.1229 18.3214 87.0956 18.3332 87.0817C18.3876 87.0152 18.8268 87.2233 22.4506 88.411C23.6121 88.792 24.0524 88.8007 24.3327 89.0022C24.7956 89.3347 24.8224 90.1925 26.938 94.116C27.5357 95.2252 31.0035 101.245 32.4313 103.09C33.4495 104.404 39.4204 105.683 41.1043 106.027C41.5087 106.109 41.5147 106.159 41.5295 106.28C41.5306 106.29 41.5318 106.299 41.5333 106.309C41.5432 106.391 41.5516 106.464 41.5595 106.534C41.632 107.171 41.6698 107.502 42.5693 110.604C42.7458 111.213 42.9004 111.524 42.987 111.699C43.093 111.912 43.097 111.92 42.9139 112.016L42.8995 112.024C42.1673 112.412 41.7225 112.646 41.5712 113.49C41.4683 113.909 41.5066 114.348 41.6809 114.746C41.8552 115.145 42.157 115.483 42.5454 115.717C42.9337 115.95 43.3899 116.066 43.8519 116.05C44.314 116.034 44.7595 115.886 45.1281 115.627C45.4966 115.367 45.7704 115.008 45.9121 114.599C46.0539 114.19 46.0568 113.749 45.9205 113.339C45.7842 112.928 45.5153 112.566 45.1502 112.302C44.7852 112.038 44.3417 111.885 43.8799 111.864C43.7354 111.856 43.6383 111.852 43.564 111.812C43.2518 111.642 43.3431 110.829 42.0095 106.359C41.931 106.098 41.9811 105.983 41.9432 105.904C41.8431 105.697 41.1271 105.746 35.7847 104.032C35.1542 103.83 34.6768 103.683 34.3118 103.571C33.2253 103.237 33.1351 103.209 32.9676 102.937C32.6158 102.367 24.5105 89.0527 25.1905 89.2329C29.4482 90.3634 29.9522 90.4206 30.132 90.676C30.1691 90.7285 30.1924 90.7897 30.232 90.8702C30.5766 91.5737 32.703 95.3383 33.807 96.9702C34.0329 97.3054 34.1944 97.5222 34.3027 97.6685C34.5199 97.9604 34.5226 97.9644 34.4004 98.0488C34.0663 98.2876 33.8141 98.6121 33.6742 98.9818C33.5343 99.3516 33.5129 99.7512 33.6125 100.132C33.7122 100.513 33.9286 100.859 34.2355 101.128C34.5424 101.396 34.9265 101.577 35.3414 101.646C38.2192 102.032 38.8391 98.2517 36.2644 97.7037C35.1505 97.4663 34.9674 97.8407 34.8201 97.8287C34.6068 97.8114 34.4687 96.9855 31.6884 92.3232C31.0723 91.2891 30.7704 90.8868 30.8552 90.7957C30.9335 90.7112 31.3403 90.8921 32.1325 91.087C35.7049 91.9654 36.0728 91.9069 36.2207 92.0485C36.2579 92.0838 36.2812 92.1317 36.3381 92.2108C37.4143 93.7044 37.7428 94.1726 38.0923 94.6274C38.442 95.0816 38.8128 95.5225 39.9746 96.9609C40.0844 97.0966 40.1876 97.2262 40.286 97.3493C40.9923 98.2344 41.4475 98.8049 42.269 99.1554C47.663 101.469 48.7649 101.106 49.2709 101.466C49.502 101.631 49.6088 101.947 49.9438 102.738C51.1814 105.66 51.5403 106.031 51.4619 106.148C51.441 106.179 51.389 106.192 51.3145 106.23C50.832 106.491 50.4516 106.888 50.2287 107.364C50.0058 107.84 49.952 108.37 50.0751 108.876C50.1982 109.383 50.4919 109.84 50.9133 110.18C51.3347 110.521 51.8619 110.728 52.4184 110.77C52.9747 110.813 53.5313 110.689 54.0069 110.417C54.4826 110.146 54.8526 109.74 55.0633 109.259C55.2739 108.778 55.3142 108.247 55.1781 107.744C55.042 107.24 54.7368 106.79 54.3067 106.459C53.9861 106.205 53.6031 106.028 53.1916 105.944C52.7802 105.861 52.3529 105.872 51.9472 105.978C51.85 105.991 51.8263 105.91 51.7406 105.619C51.5996 105.138 51.2908 104.087 50.2098 101.944C50.129 101.682 49.9773 101.443 49.7691 101.251C49.561 101.059 49.3033 100.919 49.0207 100.846C46.4901 100.006 45.5005 99.6648 44.9825 99.4866C44.5316 99.331 44.438 99.299 43.9964 99.168C42.0202 98.5875 41.9179 98.4658 41.7163 98.2051C40.8169 97.04 39.589 95.4873 38.5615 94.1872C37.8018 93.2269 37.1518 92.4043 36.825 91.98C36.5076 91.5677 36.4877 91.5624 34.6389 91.1016C32.9518 90.6806 29.7416 89.8806 23.3923 88.0439C23.3744 88.0439 19.5191 86.9201 18.4588 86.4851C18.7387 84.28 18.8063 84.3106 18.9829 84.3897C18.998 84.3964 19.0139 84.4037 19.0308 84.4097C26.6419 87.1408 33.4956 88.6717 36.8627 89.4238C37.9163 89.6592 38.6285 89.8181 38.9157 89.9139C39.1809 90.0023 40.166 91.2592 41.2814 92.6823C42.1894 93.8414 43.1838 95.1095 43.9464 95.9481C44.3529 96.3943 44.5546 96.4635 47.6038 97.5055C47.8474 97.5887 48.1093 97.6784 48.3908 97.7749C54.6311 99.9115 55.3525 100.025 55.3658 100.187C55.3685 100.221 55.3417 100.256 55.3263 100.311C55.2199 100.754 55.2425 101.215 55.3918 101.646C55.5411 102.079 55.8118 102.465 56.1758 102.767C56.5398 103.069 56.9838 103.275 57.462 103.364C57.9403 103.453 58.4354 103.421 58.8961 103.272C59.3569 103.123 59.7665 102.863 60.0827 102.518C60.3988 102.173 60.61 101.755 60.6944 101.308C60.7789 100.861 60.7335 100.402 60.5629 99.9767C60.3923 99.5517 60.1028 99.1767 59.7243 98.8907C59.2156 98.5117 58.5801 98.3108 57.9285 98.3235C57.2769 98.3354 56.6506 98.5596 56.1586 98.9572C55.6399 99.3649 55.6169 99.6222 55.4907 99.6781C55.2054 99.8051 54.393 98.9067 46.1393 96.4096C45.4998 96.2161 45.2057 96.2088 44.9561 96.107C44.4049 95.8823 44.0709 95.1967 40.7117 91.0231C40.1848 90.3694 39.9353 90.007 39.5928 89.7523C38.8898 89.2296 37.795 89.1631 33.1034 87.9734C32.8825 87.9176 19.6185 84.1829 18.9507 83.9475C18.9568 83.8943 18.9621 83.8411 18.9674 83.7879C18.9803 83.6596 18.9933 83.5306 19.0165 83.4035C19.2347 82.2145 19.2603 81.9632 19.3535 81.9392C19.3806 81.9319 19.4134 81.9445 19.4584 81.9585C19.9147 82.1015 20.4909 82.2883 21.1203 82.4932C22.7843 83.0345 24.8203 83.6961 25.9963 83.9748C27.3621 84.298 28.3475 84.5533 29.0833 84.7442C31.0963 85.2662 31.2437 85.3041 32.2097 84.9251C36.3172 83.3131 36.6439 82.5437 37.1279 82.4453C37.5866 82.3522 38.1868 82.8629 42.2819 83.8305C43.1969 84.1018 44.1387 84.2873 45.0933 84.3844C45.1302 84.3864 45.1525 84.3831 45.172 84.3884C45.3083 84.425 45.3085 84.8938 49.236 90.6959C49.5059 91.0923 50.4306 91.3476 51.4118 91.6183C51.7304 91.7067 52.0549 91.7965 52.3648 91.8929C56.3806 93.1371 57.0622 93.0088 57.1913 93.201C57.2214 93.2462 57.2216 93.3081 57.2268 93.4085C57.2378 93.9651 57.4567 94.5011 57.846 94.9247C58.2352 95.3476 58.7706 95.6316 59.3603 95.728C59.95 95.8244 60.5574 95.7273 61.0784 95.4527C61.5995 95.178 62.0016 94.7438 62.2161 94.2238C63.3722 91.3037 58.8356 89.5688 57.4334 92.4582C57.3731 92.5832 57.3582 92.6703 57.3034 92.7109C57.0951 92.8665 56.3112 92.3531 50.2763 90.6919C49.6564 90.5217 49.3275 89.9817 48.8956 89.2589C47.384 86.7312 46.5579 85.5309 46.1499 84.9377C45.7743 84.3917 45.7528 84.3605 45.8769 84.2827C46.0934 84.1463 46.4688 83.9562 47.0594 83.6569C47.5414 83.4135 48.1669 83.097 48.9664 82.6774C49.8268 82.2252 50.4116 81.9013 50.8228 81.6732C51.742 81.1638 51.7933 81.1352 52.1174 81.2323C56.9728 82.6873 59.1692 83.1282 60.1512 83.3251C60.9003 83.4754 60.9427 83.484 60.9198 83.6928C60.8697 84.1497 60.9763 84.6092 61.2244 85.0055C61.4724 85.4025 61.8491 85.7157 62.3004 85.9013C62.7751 86.0941 63.3057 86.1334 63.8069 86.0117C64.3082 85.8906 64.7509 85.6153 65.0639 85.2316C65.377 84.8479 65.5421 84.3771 65.5328 83.8956C65.5234 83.4142 65.3402 82.9493 65.0124 82.5763C64.6584 82.1454 64.1371 81.8601 63.5601 81.7823C62.9831 81.7038 62.396 81.8381 61.9244 82.1573C61.3544 82.5816 61.1954 82.8549 61.1103 83.0019C61.0353 83.1309 61.0178 83.1608 60.8268 83.1076C60.6002 83.0471 59.8291 82.8197 58.8324 82.5264C56.5501 81.8541 53.0842 80.8326 52.2576 80.6631C51.3431 80.4749 46.3009 83.357 45.5923 83.8604C45.3103 84.0606 45.2837 84.0532 43.2188 83.5006C42.7455 83.3743 42.1649 83.2187 41.4496 83.0305C41.3581 83.0065 37.9976 82.1181 37.7531 82.0223C37.2615 81.8308 37.0304 81.9492 35.8143 82.573C35.4986 82.7346 35.1166 82.9307 34.6464 83.1641C32.9018 84.0293 32.3379 84.2946 32.0549 84.4283C31.876 84.5128 31.8092 84.544 31.6277 84.6404C31.5916 84.6597 31.5635 84.6777 31.5334 84.693C31.2738 84.8227 30.8725 84.7063 24.073 82.7931C20.2025 81.7045 19.4362 81.618 19.3875 81.3952C19.3661 81.2975 19.4841 81.1731 19.537 80.9244C19.6427 80.4297 19.6098 80.1198 19.7591 79.9874C20.143 79.6463 21.7321 80.4795 29.9824 82.3695C30.0576 82.3868 30.1142 82.4001 30.1716 82.4034C30.4724 82.4213 30.7926 82.152 33.9192 80.5793C36.5176 79.2719 36.531 79.2772 36.7001 79.3404C36.7098 79.3437 36.72 79.3477 36.7313 79.3517C38.7717 79.9409 40.8461 80.423 42.9447 80.7961C43.1601 80.8393 43.3414 80.8819 43.4995 80.9184C44.0923 81.0568 44.3584 81.1186 44.8709 80.8719C51.1174 77.8601 51.7144 76.9856 51.9868 77.0661C52.0455 77.0834 52.0891 77.1446 52.171 77.239C52.453 77.5735 52.8414 77.8162 53.2806 77.9326C53.7198 78.049 54.1874 78.033 54.6165 77.8874C55.0455 77.7417 55.4141 77.4737 55.6694 77.122C55.9247 76.7695 56.0538 76.3512 56.038 75.927C56.0223 75.502 55.8627 75.093 55.5819 74.7579C55.301 74.4227 54.9136 74.1793 54.4747 74.0616C54.0359 73.9433 53.5682 73.9579 53.1387 74.1022C52.7091 74.2465 52.3396 74.5132 52.0831 74.8649C51.6317 75.4249 51.7036 75.9509 51.7523 76.3087C51.7824 76.5288 51.8037 76.685 51.6877 76.7442C45.4013 79.9755 44.927 80.5201 44.4238 80.5447C44.3282 80.5494 44.2315 80.5347 44.0937 80.5168C43.2012 80.3997 39.2924 79.4415 38.5549 79.2606C38.4924 79.2453 38.4527 79.236 38.4395 79.2327C36.4378 78.7479 36.3469 78.7918 35.8627 79.0252C35.8318 79.0405 35.7993 79.0558 35.7646 79.0724C31.8628 80.9118 31.0731 81.7078 30.2009 81.7956C29.1025 81.906 27.8732 80.8932 20.129 79.4255C20.0331 79.4069 19.9634 79.4089 19.924 79.3783C19.8217 79.2972 19.9241 78.9919 20.3021 77.5196C21.6956 71.6783 23.6484 65.9642 26.1372 60.4464C27.1696 58.2652 28.0977 57.5018 34.0022 57.5377C38.8748 57.57 44.9166 58.2846 51.1987 59.3456C51.1909 59.1219 51.1883 58.8979 51.1908 58.6738C46.9545 57.943 43.0609 57.4188 39.9967 57.2471C39.5893 57.2242 39.0129 57.1978 38.5541 57.1768C38.1716 57.1593 37.8708 57.1456 37.8181 57.1407C36.6144 57.0237 35.4037 56.9793 34.1938 57.0077C34.0633 57.0077 33.9315 57.0074 33.7987 57.0072C30.9321 57.0022 27.5709 56.9963 26.2323 59.3033C21.7928 66.9508 18.4674 80.7721 17.2018 90.0535C17.0827 90.9274 16.9667 91.7626 16.8555 92.5632C14.5271 109.325 14.3578 110.544 34.0079 118.442C42.5348 121.853 51.3315 124.648 60.3199 126.802C65.0282 127.98 73.7097 129.462 73.9392 129.467C74.0286 129.469 74.1909 129.489 74.4104 129.515C75.7389 129.674 79.1466 130.084 80.8747 128.438C81.0527 128.268 81.579 128.32 82.2804 128.389C83.8041 128.539 86.1543 128.771 87.5643 126.993C89.2702 124.842 91.5904 117.638 92.4162 115.05C92.7294 114.068 92.9253 113.355 93.0683 112.836C93.4058 111.608 93.4466 111.46 94.0386 111.382C95.5551 111.183 96.4946 109.777 96.988 108.422C98.3465 104.69 99.8637 99.728 99.8201 95.7872C99.8072 94.6121 99.1551 94.1154 98.6997 93.7689C98.4222 93.5581 98.2178 93.4025 98.2757 93.183C98.8126 91.1714 99.8451 83.7653 100.171 81.0588C101.259 72.1265 97.4584 70.8643 92.0559 69.0695C91.6934 68.9491 91.3237 68.8261 90.9476 68.6984C90.9476 68.6984 86.333 67.1782 83.132 66.1713C83.0233 66.3674 82.911 66.5611 82.7945 66.7513C86.3588 67.8425 91.4832 69.4299 92.4956 69.771C94.9931 70.6096 97.4834 71.637 98.5967 73.2756C99.3517 74.3861 99.4483 75.1323 99.597 76.2807C99.612 76.3984 99.6277 76.5201 99.6449 76.6465C100.088 79.9509 97.7745 91.865 96.9865 95.2751H96.9822C96.9093 95.5903 96.8936 95.7646 96.7928 95.8457C96.6362 95.972 96.2744 95.8776 95.1804 95.7453C95.179 95.7453 95.199 95.6582 95.2362 95.4959C95.6337 93.7769 97.9904 83.5851 97.2346 77.7118C97.1767 76.9138 96.9479 76.1351 96.5604 75.4215C96.1729 74.708 95.6352 74.0743 94.9788 73.5576C92.8252 71.8911 90.0267 71.0099 87.3791 70.1774C87.0588 70.0763 86.7399 69.9765 86.4253 69.8754C85.5687 69.6015 83.8234 69.1014 81.5683 68.4823C80.5165 69.7724 79.2681 70.8856 77.8731 71.7953C83.3679 73.227 87.5221 74.3037 88.2635 74.4799C89.1022 74.6794 89.3017 75.1642 87.7838 74.9314C86.3559 74.712 83.2585 73.9865 76.9401 72.3612C75.0246 73.4392 72.8739 74.1534 70.6022 74.444ZM51.4176 61.4113C46.5236 60.537 41.6029 59.7881 36.6234 59.55C27.7223 59.1237 28.2743 60.348 33.0956 62.5691C39.6567 65.5881 48.519 68.5481 57.4482 71.0611C56.7728 70.5511 56.139 69.9918 55.5532 69.3887C54.5931 68.3991 53.7741 67.3032 53.1138 66.1274C49.0282 65.0221 44.5092 63.7159 43.6497 63.1423C43.6184 63.1223 43.5958 63.0926 43.586 63.0585C43.5761 63.0245 43.5795 62.9882 43.5956 62.9563C43.6118 62.9243 43.6396 62.8988 43.674 62.8842C43.7086 62.8695 43.7476 62.8667 43.7841 62.8763C43.7841 62.8763 47.4274 63.8319 52.6314 65.1952C52.4596 64.8332 52.3022 64.4647 52.1599 64.0905C51.8276 63.2173 51.5797 62.3207 51.4176 61.4113ZM88.7826 123.034C89.4769 121.114 92.3955 112.772 92.5206 111.616H92.5249C92.5399 111.481 92.4556 111.469 91.7163 111.37C91.5947 111.353 91.4553 111.335 91.2958 111.313C91.0935 111.284 91.0048 111.243 90.9512 111.268C90.8954 111.294 90.8783 111.391 90.8125 111.645C90.2448 113.83 87.013 124.392 85.3428 125.493C84.9903 125.727 84.5877 125.89 84.163 125.969C83.7376 126.048 83.2993 126.043 82.8767 125.953C82.6622 125.906 82.5886 126.065 82.4384 126.389C82.3011 126.685 82.1002 127.119 81.6684 127.659C81.5282 127.834 81.7656 127.844 82.8982 127.893C83.2078 127.905 83.5839 127.921 84.0379 127.945C84.1508 127.935 84.261 127.927 84.3682 127.918C86.1185 127.783 87.0924 127.708 88.7826 123.034ZM99.1423 97.8267C99.1637 97.576 99.1837 97.3346 99.2452 96.9795H99.2495C99.3803 96.4608 99.3532 95.9182 99.1701 95.4134C98.9871 94.9087 98.6568 94.4612 98.2149 94.122C98.132 94.0435 98.1012 94.0981 98.0769 94.1699C98.0547 94.2184 98.0354 94.2683 98.0197 94.3195C97.7923 95.3862 97.7022 95.6735 97.7916 95.7353C97.8309 95.7632 97.906 95.7466 98.0197 95.7333C98.6081 95.6668 98.6232 96.1908 97.9482 96.3318C97.0637 96.516 94.9717 96.3411 91.3967 95.9767C85.8761 95.4134 82.0638 94.5915 79.3711 94.011C74.5348 92.9682 73.3114 92.7049 72.2961 96.119C72.2661 96.2194 72.2296 96.3411 72.1882 96.4808C71.6898 98.1473 70.4288 102.361 70.4493 103.606C70.3549 105.168 71.589 106.119 73.1663 106.675C80.1333 109.131 91.6841 110.922 93.5617 110.738C95.8211 110.514 96.4474 108.332 97.0123 106.362C97.063 106.185 97.1131 106.011 97.1638 105.839C98.9878 99.6754 99.07 98.6932 99.1423 97.8267ZM44.1685 112.501C43.9379 112.454 43.6991 112.453 43.4681 112.499L43.4716 112.499C43.2508 112.524 43.0373 112.589 42.8439 112.691C42.6504 112.793 42.4806 112.93 42.3446 113.094C42.2085 113.257 42.1088 113.445 42.0513 113.645C41.9937 113.845 41.9795 114.053 42.0095 114.258C42.6608 116.366 45.5387 115.874 45.4615 113.89C45.4442 113.672 45.3767 113.458 45.2634 113.265C45.1502 113.073 44.9939 112.905 44.805 112.773C44.6161 112.641 44.3991 112.549 44.1685 112.501ZM35.6645 101.23C38.122 101.183 37.7724 97.9431 35.6989 98.124C35.2587 98.1306 34.8386 98.2962 34.5276 98.5862C34.2167 98.8761 34.0396 99.2671 34.0336 99.6768C34.0337 100.082 34.2043 100.472 34.509 100.762C34.8138 101.053 35.2285 101.22 35.6645 101.23ZM52.5957 106.454C49.9982 106.431 49.7386 110.204 52.6823 110.284C53.2099 110.264 53.7092 110.057 54.0784 109.706C54.4477 109.354 54.659 108.886 54.6692 108.395C54.6763 108.14 54.6275 107.885 54.526 107.647C54.4244 107.41 54.2721 107.194 54.0784 107.012C53.8846 106.831 53.6534 106.688 53.3986 106.592C53.1437 106.496 52.8707 106.449 52.5957 106.454ZM56.45 99.4387C56.058 99.8071 55.8378 100.305 55.8368 100.823C55.853 101.335 56.0789 101.821 56.4682 102.183C56.8575 102.545 57.3808 102.755 57.9311 102.77C58.2144 102.775 58.4959 102.727 58.7588 102.629C59.0217 102.53 59.2605 102.384 59.4608 102.197C59.6612 102.011 59.819 101.789 59.9247 101.545C60.0305 101.3 60.0819 101.038 60.0761 100.775C60.0616 100.257 59.8285 99.7645 59.4271 99.4054C59.0257 99.0457 58.4882 98.8482 57.9311 98.8542C57.374 98.8608 56.8419 99.0703 56.45 99.4387ZM59.7879 95.1481C62.1517 95.2572 62.6422 91.7559 59.8344 91.5039C59.5772 91.5013 59.3218 91.5451 59.0829 91.6343C58.8441 91.7234 58.6264 91.855 58.4423 92.0226C58.2583 92.1895 58.1114 92.389 58.0101 92.6085C57.9088 92.8286 57.8551 93.0653 57.8521 93.3041C57.849 93.5435 57.8967 93.7809 57.9923 94.0036C58.0879 94.2257 58.2297 94.4279 58.4095 94.5988C58.5892 94.7704 58.8035 94.9067 59.04 95.0011C59.2765 95.0956 59.5307 95.1455 59.7879 95.1481ZM63.0492 82.2877C62.7405 82.3196 62.4477 82.432 62.2046 82.6115C61.9695 82.7711 61.7826 82.9839 61.6623 83.2306C61.542 83.4767 61.4925 83.748 61.5184 84.0173C61.5443 84.2873 61.6448 84.546 61.8102 84.7688C61.9755 84.9909 62.2001 85.1705 62.4619 85.2882C62.7237 85.4059 63.014 85.4591 63.3044 85.4418C63.5947 85.4245 63.8753 85.3374 64.1187 85.1891C64.3621 85.0408 64.5602 84.8366 64.6935 84.5959C64.8268 84.3552 64.8909 84.0872 64.8794 83.8165C64.8804 83.5279 64.7936 83.2446 64.6291 82.9992C64.4645 82.7545 64.2289 82.5577 63.9494 82.432C63.6699 82.3056 63.3579 82.2558 63.0492 82.2877ZM52.7236 74.9201C52.4191 75.1988 52.2406 75.5752 52.2247 75.9722H52.2261C52.2382 76.3718 52.4179 76.7509 52.7267 77.0282C53.0355 77.3062 53.4489 77.4604 53.8785 77.4584C54.6328 77.5775 55.4822 76.7502 55.4665 75.9722C55.4411 75.5838 55.2643 75.2167 54.9691 74.9408C54.6738 74.6648 54.2804 74.4985 53.8627 74.4726C53.4356 74.4812 53.0281 74.6408 52.7236 74.9201Z" fill="black"/>
<path d="M68.1035 42.5653C87.4085 43.2263 91.8493 65.6794 76.2845 73.2451C73.8549 74.4341 71.1586 75.0738 68.4137 75.1131C65.6687 75.1516 62.9525 74.589 60.4851 73.4698C58.0177 72.35 55.8686 70.7061 54.2119 68.6699C52.5551 66.6343 51.4374 64.2638 50.9493 61.7512C48.9487 51.5674 57.8876 42.2155 68.1035 42.5653ZM67.3063 74.5644C76.3081 75.0419 84.3232 68.9312 85.0833 59.6259C85.2849 50.3159 77.9912 43.6293 69.1353 43.1206C66.9076 42.996 64.6753 43.2823 62.567 43.963C60.4588 44.6437 58.516 45.7054 56.8504 47.0871C55.1849 48.4687 53.8296 50.143 52.8624 52.0135C51.8952 53.8842 51.3352 55.9142 51.2147 57.9868C51.0941 60.0595 51.4154 62.1339 52.16 64.0905C52.9045 66.0473 54.0577 67.8479 55.5533 69.3887C57.0488 70.9289 58.8571 72.1797 60.8741 73.0682C62.8911 73.956 65.0772 74.4647 67.3063 74.5644Z" fill="black"/>
<path d="M60.5408 70.0982C57.3825 68.2954 55.1078 65.4151 54.203 62.073C53.2981 58.7307 53.835 55.1919 55.6988 52.2131C62.3762 41.5385 79.5619 44.4991 81.8191 56.4491C84.0127 68.0707 70.5915 75.8532 60.5408 70.0982ZM54.5705 61.6354C55.1049 63.7374 56.2013 65.6799 57.7582 67.2826C59.3152 68.8853 61.2821 70.0962 63.4766 70.8031C76.2486 74.833 86.8098 61.2384 78.8118 51.2029C70.4028 40.6527 51.3681 47.8453 54.5705 61.6354Z" fill="black"/>
<path d="M63.7061 65.2798C61.3087 65.1607 61.5411 65.315 61.8336 62.3904C62.0895 59.8215 62.6201 60.1121 60.7496 60.5184C59.6914 60.7485 59.4826 60.8396 59.5084 60.271C59.5206 59.2366 59.669 58.2075 59.9502 57.2067C59.9655 57.1222 60.0059 57.0434 60.067 56.9793C60.1281 56.9153 60.2073 56.8685 60.2956 56.8443C62.5836 56.0256 62.8503 56.3721 62.9361 56.0064C64.5241 49.2367 64.7236 49.0904 65.5251 49.0538C66.8648 48.9944 68.2071 49.0088 69.5448 49.097C70.0139 49.1276 70.1004 49.3943 70.0818 49.4807C69.3782 52.7133 69.0093 54.0459 69.0093 54.3113C69.3854 54.292 68.664 54.3997 71.752 53.7041C72.181 53.6077 72.2161 54.016 72.1403 54.425C71.441 58.1816 72.2547 57.3743 68.5345 58.5666C68.2135 58.6697 67.9833 58.6371 67.9218 59.0481C67.8174 59.751 67.6272 60.1959 67.5772 60.6793C67.5185 61.2392 67.2525 60.7139 75.4364 60.9167C76.4725 60.942 76.2751 61.2712 75.9548 62.5652C75.2341 65.4713 75.4486 65.1328 73.7333 65.2253C70.3948 65.4212 67.0469 65.4394 63.7061 65.2798ZM74.9224 64.5942C75.0568 64.1506 75.691 62.0672 75.7875 61.615C75.8683 61.2352 76.1221 61.3264 73.3522 61.216C73.107 61.206 71.5225 61.2971 68.8649 61.3184C66.4382 61.3383 67.1246 61.6396 67.5099 58.8512C67.575 58.3777 67.8238 58.3319 69.2259 57.8883C71.7334 57.095 70.9419 57.5671 71.2751 56.5463C71.5254 55.7822 71.5561 54.9842 71.7234 54.2075C71.8064 53.8238 70.9083 54.3405 68.8963 54.8785C68.1713 55.072 68.3679 54.7954 69.4311 50.6325C69.7171 49.5086 69.7765 49.512 69.4783 49.4927C69.2831 49.48 67.2776 49.4601 67.0824 49.4588C64.8301 49.4455 65.1969 49.3923 64.8044 50.6724C62.6973 57.5585 64.404 56.0995 61.2294 56.9859C60.465 57.2 60.2362 56.6035 59.9881 59.747C59.9746 59.9252 59.8294 60.0908 59.9209 60.279C62.3584 59.7736 62.6651 59.5475 62.6151 60.1028C62.5436 60.8861 62.319 62.3258 62.2046 63.0953C61.9515 64.7937 61.9287 64.7179 62.4499 64.7438C67.9375 65.0118 74.808 64.9792 74.9238 64.5942H74.9224Z" fill="black"/>
<path d="M43.0425 15.2664C65.7473 16.5604 65.9647 43.9066 46.7962 47.5854C44.2011 48.1163 41.5101 48.09 38.9276 47.5084C36.3451 46.9269 33.9391 45.8055 31.8925 44.2294C29.8459 42.6532 28.2126 40.664 27.1166 38.4126C26.0207 36.1613 25.491 33.7073 25.5679 31.237C25.6229 27.7444 27.1544 23.523 29.9294 20.863C34.0706 16.8823 37.108 15.6441 43.0425 15.2664ZM43.0789 47.4404C45.3719 47.4638 47.6459 47.0504 49.7607 46.2256C51.8754 45.4008 53.7863 44.1822 55.3756 42.6447C56.965 41.1073 58.1991 39.2834 59.0021 37.2856C59.805 35.2878 60.1597 33.1583 60.0444 31.0282C59.9142 27.9329 58.8081 24.9416 56.864 22.4264C54.9199 19.9112 52.2234 17.9833 49.1102 16.8825C45.9971 15.7817 42.6046 15.5566 39.3549 16.2353C36.1052 16.914 33.1419 18.4663 30.8336 20.6994C28.5253 22.9324 26.974 25.7474 26.3726 28.7942C25.7713 31.8409 26.1464 34.9849 27.4515 37.8349C28.7565 40.6849 30.9339 43.115 33.7125 44.8229C36.4911 46.5307 39.7483 47.441 43.0789 47.4404Z" fill="black"/>
<path d="M55.2064 24.988C57.0157 27.9812 57.5165 31.5073 56.6051 34.8349C55.6937 38.1624 53.44 41.0359 50.3115 42.8592C40.9071 48.2909 28.9952 41.7433 28.7114 32.7459C28.2416 17.7468 47.9585 13.2953 55.2064 24.988ZM45.6948 44.0183C52.9198 42.3332 56.5771 36.9693 56.6064 31.4558C56.6493 23.2763 47.5538 16.9176 39.219 19.3102C35.6347 20.3397 32.3457 22.2329 30.5225 25.9463C25.1714 36.841 36.1488 46.2441 45.6948 44.0183Z" fill="black"/>
<path d="M45.6653 39.745C44.652 39.6483 43.6581 39.421 42.7123 39.0693C42.5121 38.9782 42.6194 39.0354 42.0359 40.3149C41.7499 40.9393 41.4797 41.7001 40.9141 41.4866C38.3108 40.5037 38.5045 40.9659 39.7386 38.0625C39.7958 37.9295 39.567 37.9003 39.4526 37.8524C39.3032 37.7859 39.3332 37.7619 38.762 38.941C38.1542 40.1958 38.2114 40.3654 37.796 40.2856C37.5543 40.2397 36.1458 39.6439 35.9248 39.5408C35.5795 39.3805 35.5673 39.2981 35.6624 38.9822C35.8837 38.2867 36.1726 37.6114 36.5254 36.9646C36.647 36.7378 36.7399 36.8768 33.8399 35.7363C32.7424 35.3048 32.9755 35.094 34.0294 33.0098C34.2503 32.5729 34.3747 32.688 36.0821 33.3084C37.5121 33.8278 36.1779 34.002 38.0083 30.2581C38.1964 29.873 39.3039 27.483 40.0818 25.8744C40.1591 25.7141 40.3013 25.8239 38.2872 24.9514C37.8918 24.7798 37.8453 24.6628 37.9576 24.2199C38.1621 23.5472 38.4652 22.9038 38.8585 22.308C39.0408 22.0014 39.1023 21.903 40.8262 22.5135C42.5901 23.1386 42.4771 23.3387 42.6036 23.0129C43.5861 20.4819 43.4423 20.6954 44.9009 21.2134C45.3187 21.3392 45.7232 21.5004 46.1093 21.6949C46.3295 21.8565 46.278 21.7427 45.2634 24.2631C45.1991 24.424 45.7454 24.5836 45.7811 24.4094C45.9321 23.8871 46.1385 23.3801 46.3974 22.8959C46.7506 22.0919 46.9158 22.0247 47.2433 22.0739C47.9521 22.2156 48.6219 22.4915 49.211 22.8846C49.4169 23.0987 49.2975 23.4884 49.1745 23.8076C48.4638 25.6543 48.4459 25.4468 48.7105 25.5446C53.6139 27.3573 52.2418 31.5721 49.725 32.4805C49.4841 32.5676 49.2181 32.5689 49.3675 32.7232C50.5888 33.9635 51.0764 35.0507 50.365 36.7245C49.2145 39.4344 47.136 39.6226 45.6653 39.745ZM48.8964 38.0825C50.7554 36.3249 50.4887 33.8058 48.8392 32.7658C48.5217 32.5663 48.639 32.3608 48.8063 32.3196C49.2396 32.2749 49.6553 32.1352 50.0193 31.9119C50.3832 31.6887 50.685 31.3883 50.8998 31.0355C51.682 29.7633 51.7857 28.0962 50.6481 27.0381C49.9379 26.4914 49.1308 26.0638 48.2629 25.7746C47.9368 25.6337 48.0062 25.4814 48.137 25.1841C49.2446 22.6684 49.444 23.2556 47.2604 22.4709C47.0273 22.3878 47.1024 22.3878 46.3209 24.0669C45.9584 24.847 45.9398 25.0411 45.6882 24.9148C44.6021 24.3715 44.4912 25.0478 45.6617 22.1218C45.7682 21.8558 45.9162 21.9602 44.0951 21.3637C43.8091 21.2706 43.9228 21.1203 43.1542 22.8087C42.8439 23.491 42.8589 23.7929 42.3377 23.5841C38.8635 22.1923 39.2231 22.2681 39.1037 22.5454C38.1621 24.7313 38.0019 24.4426 38.7376 24.7333C40.8569 25.5712 40.7783 25.3983 40.4536 26.0633C37.0081 33.0504 37.3984 34.149 36.8071 33.9435C33.7627 32.8901 34.4677 32.9586 34.1523 33.631C33.9207 34.1257 33.7276 34.6364 33.5139 35.1378C33.4559 35.2748 33.2035 35.1212 36.6756 36.4752C37.1575 36.6627 36.9959 36.7571 36.5447 37.8052C35.922 39.2495 35.8977 39.1857 36.2187 39.3094C38.6704 40.2557 37.4256 40.277 39.118 37.4747C39.1895 37.3523 39.261 37.325 40.069 37.6742C40.2742 37.7626 40.1912 37.994 40.069 38.278C39.0451 40.6547 39.0851 40.3993 39.3783 40.5137C41.1486 41.2046 41.0814 41.2133 41.2065 40.9553C42.3756 38.544 42.0645 39.0447 42.2333 38.7368C42.6008 38.0379 46.0178 40.7997 48.8964 38.0838V38.0825Z" fill="black"/>
<path d="M46.689 34.7334C46.7412 35.6538 45.5064 36.6799 44.1829 36.4398C42.8475 36.1948 41.5496 35.7978 40.3184 35.2581C40.0059 35.1218 39.9501 35.0121 40.0474 34.6948C40.2459 33.9123 40.531 33.151 40.8982 32.4232C41.2614 31.7808 41.4545 31.052 41.8921 31.163C42.6958 31.3699 43.4797 31.6384 44.2358 31.9657C45.6966 32.5915 46.6032 33.2192 46.689 34.7334ZM44.4632 36.1093C44.75 36.0859 45.0312 36.0215 45.2969 35.9184C45.5043 35.8641 45.6941 35.7631 45.8496 35.6244C46.005 35.4857 46.1214 35.3136 46.1885 35.1231C46.9149 33.0942 44.253 32.3707 42.113 31.6079C41.852 31.5148 41.8034 31.6797 41.6776 31.9291C41.2181 32.8488 40.8149 33.792 40.4699 34.754C40.4392 34.8392 40.4556 34.8598 40.5336 34.887C43.0854 35.8433 42.4591 35.7475 44.4632 36.1093Z" fill="black"/>
<path d="M46.14 30.4024C45.4965 30.4782 44.2417 29.9841 43.1006 29.5851C42.4606 29.3617 42.5286 29.1515 42.5915 28.9434C42.862 28.0436 43.2442 27.1761 43.7305 26.3585C43.8735 26.1098 43.9671 26.0826 44.281 26.159C44.8632 26.3281 45.423 26.5576 45.9498 26.8433C47.0567 27.3434 47.7438 27.7743 47.9161 28.4161C48.0049 28.6615 48.0247 28.924 47.9736 29.1785C47.9224 29.433 47.8022 29.6712 47.6241 29.8703C47.4462 30.0694 47.2163 30.2228 46.9565 30.316C46.6968 30.4091 46.4157 30.4389 46.14 30.4024ZM47.6179 28.9866C47.6382 28.7741 47.6016 28.5602 47.5112 28.3641C47.4209 28.1679 47.2797 27.9957 47.1003 27.8628C46.6427 27.5281 46.1349 27.2578 45.593 27.0601C44.0394 26.4915 44.1452 26.3718 44.0086 26.701C43.0076 29.1243 42.8474 29.0518 43.1456 29.1682C44.2667 29.6031 46.6198 30.6079 47.2726 29.7301C47.4633 29.519 47.5834 29.2605 47.6179 28.9866Z" fill="black"/>
<path d="M98.5231 18.8334C98.5267 21.2116 97.9425 23.5588 96.815 25.6935C95.6874 27.8282 94.0479 29.6933 92.0223 31.1446C89.996 32.596 87.6387 33.5946 85.1319 34.0635C82.6251 34.5324 80.0361 34.4589 77.5643 33.8487C75.0925 33.2385 72.8053 32.108 70.8784 30.5446C68.9516 28.9811 67.437 27.0265 66.4518 24.8319C65.4666 22.6372 65.0371 20.2613 65.1965 17.8876C65.356 15.514 66.1001 13.2062 67.3713 11.1427C75.6781 -2.54238 98.5074 2.82284 98.5231 18.8334ZM81.8707 3.87886C71.1372 3.76515 62.9333 13.8426 66.5462 23.6606C70.3557 34.014 84.5255 37.196 92.7352 29.9209C103.908 20.0211 95.9176 4.02849 81.8707 3.87886Z" fill="black"/>
<path d="M81.7074 6.34338C84.3765 6.34558 86.9848 7.08226 89.2049 8.46068C91.4242 9.83909 93.1559 11.7976 94.1813 14.0895C95.2066 16.3814 95.4797 18.9042 94.9663 21.3403C94.453 23.7763 93.176 26.0165 91.2969 27.7789C89.4172 29.5413 87.0184 30.747 84.4036 31.2442C81.7889 31.7413 79.074 31.5077 76.6016 30.5727C74.1291 29.6377 72.0098 28.0432 70.5096 25.9899C69.0097 23.9367 68.1964 21.5165 68.1725 19.0342C68.1341 17.3666 68.4572 15.7087 69.1224 14.1596C69.7876 12.6105 70.7814 11.2018 72.0441 10.0175C73.3076 8.83321 74.8141 7.89755 76.4743 7.26634C78.1345 6.63511 79.9141 6.32122 81.7074 6.34338ZM72.8657 10.0009C70.5299 11.9646 69.0431 14.6522 68.6832 17.5615C68.3233 20.4706 69.115 23.4022 70.9102 25.8079C77.9551 35.2403 94.3528 31.245 94.6603 18.7789C94.9013 9.01602 81.4936 2.75371 72.8657 9.99955V10.0009Z" fill="black"/>
<path d="M83.0378 28.7811C81.4312 28.0702 78.4282 25.9555 76.5413 24.5157C75.2457 23.5269 75.4302 23.5887 75.5632 23.3567C76.1244 22.373 76.8366 21.471 77.6789 20.6794C77.8934 20.4799 78.1143 20.5537 78.6298 20.8789C79.5414 21.4228 80.4173 22.0165 81.2531 22.6571C83.5769 24.3196 81.7665 23.9053 85.9407 19.8594C86.4583 19.358 88.7013 21.4288 89.1131 21.8305C89.1603 21.8621 89.1989 21.9028 89.2275 21.9498C89.2554 21.9968 89.2726 22.049 89.2769 22.1027C89.2812 22.1564 89.2726 22.2103 89.2518 22.2607C89.2318 22.3111 89.1997 22.3568 89.1582 22.3944C88.1701 23.6699 84.412 28.0841 83.0378 28.7811ZM88.6992 22.2395C88.9215 21.9794 89.0416 22.2135 86.2825 20.166C86.1101 20.0376 86.2824 19.9 83.0035 23.8581C82.6574 24.2757 82.8376 24.2132 80.93 22.8719C77.7439 20.6288 77.927 20.8862 77.8061 21.0311C77.6853 21.1761 77.1726 21.8085 75.9907 23.3394C75.8084 23.5754 75.7047 23.4059 77.6181 24.7359C78.5712 25.4009 82.1226 27.9412 83.2187 28.4146C83.0442 28.418 83.8593 27.8986 88.6992 22.2395Z" fill="black"/>
<path d="M88.0533 13.6504C88.1327 14.342 86.5189 15.9666 85.939 16.583C85.701 16.8364 85.7145 16.8889 85.3485 16.6495C80.8861 13.7568 81.2951 13.5373 81.0442 13.657C80.1604 14.9848 79.1673 16.2461 78.0719 17.4296C77.5214 18.07 77.7287 18.0354 74.5269 15.9001C74.2066 15.6866 74.0979 15.8043 75.8011 13.7155C76.293 13.1117 78.1691 10.9172 78.5989 10.457C80.357 8.56578 80.3041 8.73136 80.6459 8.90027C82.876 10.0075 87.4699 12.8683 88.0533 13.6504ZM87.7201 13.8093C87.6443 13.7096 87.7916 13.8093 86.8678 13.1543C84.868 11.7037 82.7416 10.4103 80.5108 9.2873C80.2069 9.12371 80.4014 8.9794 78.7612 10.9019C74.3389 16.0849 74.8287 15.6507 75.0775 15.8229C77.58 17.532 77.4956 17.5785 77.6665 17.3524C77.9868 16.9335 76.8636 18.4271 79.7879 14.7084C80.9376 13.2454 80.8604 13.1051 81.1307 13.28C81.9215 13.7867 85.5008 16.3862 85.6059 16.3815C85.711 16.3769 87.5921 14.0115 87.7201 13.8093Z" fill="black"/>
<path d="M76.4019 19.4C75.8121 20.4606 75.0356 21.4225 74.1061 22.2462C74.0289 22.3134 73.9295 22.3534 73.8237 22.359C73.7186 22.3646 73.6142 22.3355 73.5298 22.2767C72.6739 21.7743 71.891 21.1727 71.1982 20.4866C70.865 20.2013 70.8185 20.0876 72.8084 17.4834C72.8305 17.437 72.8641 17.3958 72.9056 17.3628C72.9478 17.3297 72.9964 17.3057 73.0493 17.2924C73.1022 17.279 73.1573 17.2767 73.2116 17.2856C73.2652 17.2945 73.316 17.3143 73.361 17.3438C74.5408 17.7871 75.5847 18.4932 76.4019 19.4ZM73.2381 17.7049C72.9521 17.9536 71.3755 20.0543 71.4863 20.2106C71.5371 20.2824 73.1794 21.5406 73.2467 21.5945C73.7665 21.9935 73.8187 22.0227 73.923 21.8977C76.013 19.3295 76.0566 19.5256 75.7463 19.3042C74.7775 18.6199 73.4662 17.8219 73.2381 17.7049Z" fill="black"/>
<path d="M92.757 17.3916C92.293 18.3653 91.6502 19.2567 90.8587 20.0264C90.7 20.1793 90.5892 20.313 90.3961 20.2172C89.3694 19.7223 88.4463 19.0601 87.6705 18.2621C87.6133 18.2221 87.5747 18.1627 87.564 18.0967C87.5526 18.0307 87.5697 17.9633 87.6119 17.909C88.0931 16.9416 88.7695 16.0694 89.6053 15.3401C89.8963 15.0861 89.9707 15.0582 90.311 15.265C91.2799 15.8036 92.1143 16.5287 92.757 17.3916ZM92.3374 17.4016C91.5873 16.7208 90.7908 16.0859 89.9521 15.501C89.2443 16.2843 88.5872 17.106 87.9844 17.9615C87.8514 18.1331 87.9608 18.0806 88.5028 18.459C90.582 19.9113 90.5155 19.9718 90.6478 19.7816C91.3664 18.7669 92.2251 17.5732 92.3374 17.4016Z" fill="black"/>
<path d="M81.419 16.3901C82.4772 16.8447 83.4368 17.4757 84.2497 18.2521C84.422 18.4337 84.422 18.4683 84.274 18.6678C82.2992 21.3224 82.1719 21.1715 81.8302 20.9454C78.9473 19.0388 78.9952 19.1785 79.4356 18.5381C79.8167 17.9828 80.7598 16.6535 81.419 16.3901ZM82.1683 20.7033C82.277 20.577 82.4922 20.2697 82.7118 19.9991C84.0645 18.3313 84.0703 18.5095 83.7664 18.3087C81.2746 16.6608 81.4462 16.6774 81.276 16.8782C80.7569 17.4894 80.132 18.2189 79.7223 18.7243C79.5493 18.9371 79.4721 18.8639 80.5167 19.5801C80.556 19.6101 81.9917 20.5963 82.1683 20.7033Z" fill="black"/>
<path d="M108.68 30.8632C127.992 30.5726 133.72 52.7636 118.602 61.0914C116.244 62.3991 113.588 63.1717 110.85 63.3466C108.11 63.5213 105.366 63.0934 102.838 62.0975C100.31 61.1015 98.0704 59.5656 96.3 57.6142C94.5297 55.6628 93.2785 53.3508 92.6478 50.8657C90.0702 40.7996 98.4551 31.0168 108.68 30.8632ZM109.708 62.8537C118.725 62.8856 126.381 56.3899 126.607 47.0599C126.278 37.7606 118.611 31.4357 109.74 31.3659C107.508 31.3506 105.294 31.7461 103.227 32.5295C101.16 33.313 99.2794 34.4689 97.695 35.9309C96.1098 37.3928 94.8514 39.1319 93.992 41.048C93.1326 42.9641 92.6893 45.0193 92.6871 47.0954C92.685 49.1715 93.124 51.2275 93.9799 53.1451C94.8357 55.0626 96.0906 56.8038 97.6728 58.2686C99.2544 59.7332 101.133 60.8924 103.198 61.6794C105.263 62.4664 107.476 62.8658 109.708 62.8543V62.8537Z" fill="black"/>
<path d="M102.697 58.7286C99.4399 57.0846 97.0032 54.3205 95.9085 51.0272C94.8139 47.734 95.1478 44.1731 96.8395 41.1061C102.901 30.1183 120.226 32.2277 123.164 44.0467C126.021 55.5452 113.064 63.9787 102.697 58.7286ZM96.2625 50.5723C96.9167 52.6442 98.1229 54.529 99.7688 56.0518C101.415 57.5747 103.447 58.6863 105.679 59.2838C118.666 62.6753 128.436 48.5773 119.873 38.9555C110.868 28.8368 92.2685 36.9598 96.2596 50.5723H96.2625Z" fill="black"/>
<path d="M116.681 48.3214C116.711 48.6685 116.061 48.8261 108.915 50.8065C108.157 51.0166 102.648 45.5084 102.496 45.2763C102.285 44.9538 102.353 44.9179 103.254 43.9503C104.982 42.0883 108.229 38.7168 110.283 37.2212C112.152 35.8613 112.125 35.5587 112.434 36.1618C114.151 39.5168 116.326 46.7985 116.681 48.3214ZM109.8 43.9024C110.229 43.8772 110.043 44.1884 110.65 41.7159C112.059 35.9657 111.94 36.5795 111.892 36.4059C111.338 36.5469 103.412 44.1525 103.138 44.753C103.285 44.7882 107.039 44.0674 109.8 43.9024ZM116.141 47.7022C116.089 47.3598 112.403 36.767 112.256 36.6579C112.152 36.7909 112.215 36.7849 112.17 36.9691C110.344 44.5122 110.227 43.8479 111.029 44.2762C114.538 46.1508 116.051 48.0055 116.141 47.7022ZM110.038 44.2715C109.548 44.1225 103.134 45.1546 102.96 45.1992C103.046 45.3854 104.468 46.5797 105.772 47.7874C108.561 50.3682 108.555 50.4806 108.678 50.3071C108.735 50.2399 109.817 44.9265 110.038 44.2715ZM109.073 50.4134C111.153 49.8209 110.998 49.7012 116.17 48.3134C116.417 48.2469 116.413 48.2914 114.187 46.7806C111.584 45.0137 111.447 44.9365 110.63 44.4464C110.321 44.2615 110.453 44.0846 109.615 47.7182C108.946 50.6183 108.989 50.2991 109.072 50.4134H109.073Z" fill="black"/>
<path d="M102.109 46.2717C102.38 46.4752 107.067 51.1109 108.081 51.9734C108.268 52.133 115.578 49.6626 115.978 49.6426C116.336 49.6247 116.04 49.9844 115.795 50.2298C111.381 54.6614 110.817 54.9693 107.918 57.1505C107.003 57.8387 106.86 58.1134 106.612 57.6239C104.769 54.0855 103.211 50.4246 101.952 46.6714C101.854 46.4293 101.983 46.3682 102.109 46.2717ZM107.257 57.1392C109.903 55.103 112.438 52.9447 114.852 50.6727C115.188 50.3628 115.504 50.0922 115.024 50.2458C108.043 52.4795 108.328 52.2215 108.244 52.5826C107.115 57.4756 107.163 56.9849 107.257 57.1392ZM102.614 47.2652C102.584 47.3517 106.522 56.7621 106.833 57.1199C106.893 56.943 107.078 55.8451 107.303 54.8356C107.847 52.3811 108.001 52.415 107.775 52.2049C103.068 47.8245 103.044 47.5545 102.614 47.2652Z" fill="black"/>
</svg>
