<svg width="113" height="103" viewBox="0 0 113 103" fill="none" xmlns="http://www.w3.org/2000/svg">
<path fill-rule="evenodd" clip-rule="evenodd" d="M79.6486 48.7693C83.2774 47.4357 86.3403 44.7953 88.2949 41.3155C89.8627 38.3635 90.5881 34.5136 89.3713 29.6305C86.7622 19.317 79.596 15.5901 68.6974 20.1718C66.0474 21.285 60.7648 24.5568 59.2263 30.4177C57.9451 35.2762 59.6475 40.2024 62.2273 44.452C66.2463 51.0879 72.6637 51.2478 79.6486 48.7693ZM59.5714 30.5469C61.0222 24.7782 66.1702 21.4879 68.7735 20.3932C78.6424 16.2481 86.2591 18.8803 88.9267 29.7843C90.0967 34.489 89.3889 38.2098 87.8679 41.0634C85.9724 44.4329 83.0054 46.9901 79.4907 48.2835C72.7281 50.6881 66.5212 50.602 62.6134 44.2183C60.0862 40.104 58.3722 35.2824 59.5714 30.5469Z" fill="black"/>
<path fill-rule="evenodd" clip-rule="evenodd" d="M75.2843 24.2307C79.8298 25.5591 82.474 29.8826 83.7142 34.6857C83.7418 34.8355 83.7988 34.9775 83.8816 35.1027C83.9644 35.2279 84.0712 35.3335 84.1951 35.4128C84.319 35.4921 84.4573 35.5433 84.6012 35.5631C84.745 35.5829 84.8912 35.5709 85.0303 35.5279C85.1695 35.4849 85.2986 35.4117 85.4093 35.3132C85.52 35.2147 85.6099 35.0929 85.6733 34.9557C85.7366 34.8185 85.772 34.669 85.7772 34.5166C85.7823 34.3642 85.7571 34.2123 85.7032 34.0707C84.0418 28.5726 80.912 24.2922 75.4598 23.4005C75.4046 23.3813 75.3461 23.3746 75.2882 23.3807C75.2303 23.3868 75.1742 23.4057 75.1237 23.436C75.0731 23.4664 75.0292 23.5075 74.9948 23.5569C74.9604 23.6062 74.9362 23.6626 74.9238 23.7224C74.9115 23.7822 74.9112 23.844 74.923 23.904C74.9349 23.9639 74.9585 24.0205 74.9925 24.0702C75.0265 24.1198 75.0701 24.1614 75.1203 24.1923C75.1706 24.2231 75.2265 24.2425 75.2843 24.2492V24.2307ZM76.975 8.15464C76.9823 8.18048 76.9944 8.20456 77.0105 8.2255C77.0267 8.24644 77.0466 8.26383 77.0691 8.27668C77.0917 8.28953 77.1164 8.29759 77.1419 8.30039C77.1674 8.30319 77.1932 8.30069 77.2178 8.29301C77.2423 8.28534 77.2653 8.27265 77.2852 8.25567C77.3051 8.2387 77.3216 8.21776 77.3339 8.19406C77.3461 8.17036 77.3537 8.14436 77.3564 8.11755C77.3591 8.09073 77.3567 8.06363 77.3494 8.03779C76.3666 3.56059 76.8814 5.74999 75.7874 1.39579C75.7694 1.33037 75.7392 1.26933 75.6988 1.21616C75.6583 1.16298 75.6082 1.11871 75.5514 1.08587C75.4947 1.05304 75.4323 1.03227 75.3679 1.02477C75.3035 1.01727 75.2383 1.02318 75.1761 1.04216C75.1139 1.06114 75.0558 1.09282 75.0052 1.13539C74.9547 1.17796 74.9125 1.23058 74.8813 1.29026C74.8501 1.34994 74.8303 1.4155 74.8232 1.4832C74.8161 1.5509 74.8217 1.61942 74.8397 1.68484C76.1092 5.98984 75.454 3.82504 76.975 8.15464ZM41.8223 26.8998C45.9817 27.9515 43.864 27.4287 48.1988 28.302C48.246 28.3071 48.2934 28.2942 48.3323 28.2657C48.3713 28.2373 48.3993 28.1952 48.4113 28.1469C48.4233 28.0987 48.4185 28.0475 48.3978 28.0026C48.3771 27.9578 48.3418 27.9222 48.2983 27.9023C44.1331 26.4816 46.1923 27.152 42.0739 25.8974C41.9474 25.8623 41.8129 25.8815 41.6999 25.9507C41.5869 26.0199 41.5047 26.1335 41.4713 26.2664C41.438 26.3993 41.4562 26.5407 41.522 26.6595C41.5879 26.7783 41.6959 26.8648 41.8223 26.8998ZM81.2806 7.83484C81.7076 3.24079 81.5965 5.52244 81.8129 1.00834C81.8047 0.879253 81.7512 0.757972 81.6628 0.667947C81.5744 0.577922 81.4574 0.52555 81.3345 0.520959C81.2115 0.516369 81.0912 0.559886 80.997 0.643095C80.9028 0.726304 80.8412 0.843294 80.8243 0.971437C80.7365 5.51014 80.7775 3.20389 80.8886 7.82254C80.8952 7.87141 80.9179 7.91629 80.9529 7.94923C80.9878 7.98217 81.0327 8.00104 81.0797 8.00251C81.1266 8.00399 81.1725 7.98796 81.2093 7.95728C81.2461 7.92659 81.2713 7.88322 81.2806 7.83484ZM50.533 23.3082C50.5709 23.3437 50.6203 23.3625 50.671 23.361C50.7217 23.3594 50.7699 23.3375 50.8058 23.2998C50.8416 23.2621 50.8624 23.2114 50.8639 23.1581C50.8654 23.1048 50.8475 23.0529 50.8138 23.013C47.9473 19.5813 49.3981 21.168 46.438 17.9393C46.3448 17.8416 46.2186 17.7868 46.087 17.7868C45.9554 17.7868 45.8292 17.8416 45.736 17.9393C45.6902 17.9873 45.6538 18.0443 45.629 18.1071C45.6042 18.1699 45.5915 18.2372 45.5915 18.3052C45.5915 18.3732 45.6042 18.4405 45.629 18.5033C45.6538 18.5661 45.6902 18.6231 45.736 18.6711C48.7897 21.8015 47.2921 20.2701 50.533 23.3082ZM28.0631 13.13C27.9578 12.6072 27.4781 12.515 26.9926 12.515C26.8211 12.5259 26.6556 12.5856 26.5139 12.6877C26.3722 12.7899 26.2595 12.9306 26.188 13.0948C26.1165 13.2591 26.0888 13.4407 26.1079 13.6202C26.127 13.7997 26.1922 13.9704 26.2964 14.114C26.9692 14.9319 28.5662 14.2985 28.0631 13.13ZM26.665 13.2899C26.7063 13.2049 26.7659 13.1312 26.839 13.0747C26.9121 13.0181 26.9967 12.9802 27.0862 12.9639C27.4255 12.8717 27.7589 12.8655 27.9052 13.1976C28.0982 14.28 26.2496 14.1878 26.665 13.2899ZM28.1216 26.9429C27.9264 26.8436 27.7169 26.7792 27.5015 26.7522C27.0287 26.72 26.5546 26.7912 26.1092 26.9613C25.9162 27.0536 25.7816 27.1397 25.6939 27.1889C25.4716 27.3303 25.5593 27.4533 25.6939 27.441C26.1343 27.4194 26.5724 27.3619 27.0043 27.2688C27.0628 27.2688 27.9286 27.1458 28.0748 27.1458C28.0999 27.1508 28.1258 27.1455 28.1472 27.131C28.1687 27.1164 28.184 27.0938 28.19 27.0677C28.196 27.0417 28.1922 27.0142 28.1795 26.991C28.1668 26.9677 28.1461 26.9505 28.1216 26.9429ZM32.1991 26.5923C32.1727 26.598 32.1496 26.6145 32.1348 26.6382C32.12 26.6618 32.1147 26.6907 32.1201 26.7184C32.1255 26.7461 32.1412 26.7705 32.1637 26.786C32.1862 26.8016 32.2137 26.8071 32.24 26.8014H32.983C33.9073 26.8014 33.2989 26.8752 34.5391 26.8014C34.5606 26.7958 34.5798 26.7828 34.5935 26.7644C34.6072 26.746 34.6146 26.7233 34.6146 26.7C34.6146 26.6766 34.6072 26.6539 34.5935 26.6355C34.5798 26.6172 34.5606 26.6041 34.5391 26.5985C34.1788 26.3958 33.7777 26.2861 33.3691 26.2787C32.9591 26.2681 32.5542 26.3766 32.1991 26.5923ZM27.911 28.3758C27.9064 28.3073 27.876 28.2436 27.8267 28.1986C27.7773 28.1536 27.713 28.1311 27.6478 28.136C27.5826 28.1409 27.522 28.1728 27.4792 28.2247C27.4364 28.2766 27.415 28.3442 27.4196 28.4127L27.4606 28.9908C27.4629 29.0248 27.4715 29.0579 27.486 29.0883C27.5005 29.1187 27.5205 29.1458 27.545 29.1681C27.5694 29.1904 27.5978 29.2073 27.6285 29.2181C27.6592 29.2288 27.6916 29.2331 27.7238 29.2307C27.7561 29.2283 27.7876 29.2192 27.8165 29.204C27.8455 29.1887 27.8712 29.1677 27.8924 29.142C27.9136 29.1163 27.9298 29.0865 27.94 29.0542C27.9502 29.0219 27.9543 28.9879 27.952 28.9539L27.911 28.3758ZM33.1 27.7916C33.0359 27.7803 32.9701 27.795 32.9158 27.8326C32.8616 27.8703 32.8229 27.9281 32.8075 27.9945C32.7927 28.2157 32.7927 28.4376 32.8075 28.6587C32.8166 28.7212 32.8467 28.7781 32.8923 28.8192C32.9379 28.8604 32.996 28.883 33.0561 28.883C33.1162 28.883 33.1743 28.8604 33.2199 28.8192C33.2655 28.7781 33.2956 28.7212 33.3047 28.6587V28.0991C33.3115 28.0647 33.3114 28.0292 33.3047 27.9948C33.2979 27.9604 33.2845 27.9278 33.2654 27.899C33.2462 27.8702 33.2216 27.8458 33.1932 27.8274C33.1648 27.8089 33.1331 27.7967 33.1 27.7916ZM29.2682 34.8026C29.5219 35.0048 29.8114 35.152 30.1197 35.2354C30.4281 35.3188 30.7491 35.3368 31.0642 35.2884C31.3676 35.2327 31.6601 35.1246 31.93 34.9686C31.9433 34.9663 31.956 34.9609 31.9671 34.9529C31.9783 34.9449 31.9876 34.9344 31.9946 34.9223C32.0015 34.9101 32.0059 34.8965 32.0074 34.8824C32.0088 34.8683 32.0074 34.854 32.0031 34.8405C31.9989 34.827 31.9919 34.8147 31.9826 34.8043C31.9734 34.794 31.9621 34.7858 31.9496 34.7805C31.9371 34.7751 31.9237 34.7727 31.9102 34.7733C31.8967 34.774 31.8835 34.7776 31.8715 34.7841C31.3314 34.8823 30.7794 34.8823 30.2393 34.7841C29.7221 34.6181 29.2479 34.3299 28.8529 33.9416C28.7827 33.837 28.6306 33.9416 28.7066 34.0523C28.8454 34.3385 29.0362 34.5934 29.2682 34.8026ZM46.9762 70.6755C47.1575 70.6755 46.3444 62.4653 45.3791 55.4727C45.2797 54.7347 45.151 54.9746 45.1568 55.0361C45.6365 61.4075 46.5959 69.0089 46.9118 70.5771C46.9137 70.5979 46.9206 70.6179 46.9319 70.6351C46.9432 70.6523 46.9584 70.6662 46.9762 70.6755Z" fill="black"/>
<path fill-rule="evenodd" clip-rule="evenodd" d="M111.8 66.7395C110.788 64.6854 107.752 60.9646 104.084 56.838C106.167 55.6756 107.524 54.7285 107.758 54.1627C107.916 53.7814 107.395 53.4001 107.068 53.1664C105.43 51.9856 100.679 49.6363 94.8353 46.8811C93.8525 45.8541 92.899 44.8701 92.0098 43.9476C94.8412 39.1506 95.1805 33.7509 93.8174 28.2897C90.2314 14.0278 80.1869 10.6207 67.0069 16.1496C63.5671 17.5887 56.7226 21.8137 54.7219 29.3475C54.0711 31.802 53.9551 34.3792 54.3826 36.8874C50.5801 38.4187 45.707 40.3867 39.5177 42.736C37.9909 41.9304 37.3708 41.7766 37.3825 41.6905C37.392 41.6413 37.3889 41.5903 37.3735 41.5427C37.3581 41.4952 37.3309 41.4528 37.2947 41.4199C36.1247 40.6573 34.1825 40.4175 33.8842 40.6819C33.7325 40.7982 33.6018 40.9418 33.4981 41.1063L32.6381 38.1789C33.1705 37.9452 34.4809 37.1518 35.4052 34.7472C36.0698 32.8372 36.395 30.8152 36.3646 28.7817C36.6138 28.3829 36.7341 27.9103 36.7077 27.434C36.6814 26.9577 36.5098 26.5029 36.2183 26.1372C36.2183 25.9896 36.1774 25.8481 36.1598 25.7005C36.2832 25.2562 36.3809 24.8043 36.4523 24.3475C36.4523 23.628 36.6161 22.5025 36.3002 21.826C36.2586 21.5036 36.2586 21.1768 36.3002 20.8543C36.3002 19.8088 35.0483 19.3353 34.1533 18.4497C34.1533 17.7424 34.2059 16.9675 34.2118 16.3341C35.991 15.8073 37.7327 15.1497 39.4241 14.3661C39.7283 14.2 40.1963 13.9294 40.2022 13.5912C40.2022 12.1459 28.1921 8.80649 26.7121 9.16934C26.6594 8.99714 15.562 13.2345 13.8421 15.0426C13.8043 15.0789 13.7741 15.1231 13.7535 15.1723C13.7329 15.2215 13.7222 15.2748 13.7222 15.3286C13.7222 15.3824 13.7329 15.4356 13.7535 15.4848C13.7741 15.5341 13.8043 15.5782 13.8421 15.6145C13.6621 16.5296 13.6942 17.4767 13.9357 18.3759C13.7549 18.3903 13.5819 18.4594 13.4374 18.5747C13.293 18.69 13.1833 18.8467 13.1216 19.0259C13.0598 19.2051 13.0485 19.3993 13.0892 19.5851C13.1298 19.7709 13.2206 19.9404 13.3507 20.0733C12.7657 20.9281 12.8534 22.7362 13.2863 23.6649C13.2873 23.6805 13.2915 23.6956 13.2987 23.7092C13.3059 23.7228 13.316 23.7346 13.3281 23.7436C13.3402 23.7526 13.354 23.7587 13.3686 23.7614C13.3832 23.764 13.3982 23.7632 13.4125 23.759C13.4268 23.7548 13.44 23.7472 13.4512 23.737C13.4623 23.7267 13.4711 23.7139 13.477 23.6996C13.4828 23.6853 13.4856 23.6697 13.485 23.6542C13.4844 23.6386 13.4805 23.6233 13.4735 23.6095C13.4095 22.4796 13.4369 21.346 13.5554 20.2209C13.6706 20.2819 13.7956 20.3194 13.924 20.3316C13.688 21.4022 13.7531 22.5218 14.1112 23.5542C14.1165 23.5769 14.1289 23.597 14.1464 23.6114C14.1639 23.6258 14.1855 23.6336 14.2077 23.6336C14.2299 23.6336 14.2515 23.6258 14.269 23.6114C14.2865 23.597 14.2989 23.5769 14.3042 23.5542C14.3978 21.8322 14.2165 21.8998 14.1989 20.3623C14.9945 20.2701 14.158 19.5936 15.0238 23.4373C15.0202 23.4527 15.0199 23.4688 15.0231 23.4843C15.0262 23.4999 15.0327 23.5144 15.042 23.5269C15.0513 23.5394 15.0632 23.5495 15.0767 23.5565C15.0903 23.5634 15.1052 23.5671 15.1203 23.5671C15.1354 23.5671 15.1503 23.5634 15.1639 23.5565C15.1775 23.5495 15.1893 23.5394 15.1986 23.5269C15.208 23.5144 15.2144 23.4999 15.2176 23.4843C15.2207 23.4688 15.2205 23.4527 15.2168 23.4373C15.3074 22.3081 15.176 21.1714 14.8307 20.0979C14.9168 20.0203 14.9882 19.9264 15.0413 19.8211C15.4333 20.1901 15.3455 21.4755 15.8311 23.4435C15.8364 23.4662 15.8488 23.4863 15.8663 23.5007C15.8838 23.5151 15.9054 23.5229 15.9276 23.5229C15.9498 23.5229 15.9714 23.5151 15.9889 23.5007C16.0064 23.4863 16.0188 23.4662 16.0241 23.4435C16.0241 22.4041 16.0592 19.938 15.1115 19.6059C15.1352 19.4645 15.1295 19.3193 15.0948 19.1805C15.0601 19.0416 14.9973 18.9122 14.9106 18.8012C14.8239 18.6903 14.7155 18.6003 14.5926 18.5375C14.4698 18.4747 14.3355 18.4405 14.1989 18.4374C14.2527 17.643 14.2527 16.8456 14.1989 16.0512C14.158 15.6883 13.8889 16.2849 19.6394 17.3796C19.6804 18.0622 19.7506 19.0954 19.8383 20.0241C19.2811 20.6404 18.821 21.3463 18.4753 22.1151C17.9371 23.4435 18.4753 24.6735 18.8731 25.9342C18.955 26.1802 18.9725 26.457 19.031 26.7153C19.1246 27.1704 19.2709 27.1642 19.2299 27.6193C19.189 28.0744 18.914 28.7017 19.0895 29.2306C19.4 29.873 19.7938 30.467 20.2595 30.9957C20.5825 31.3774 20.7866 31.8538 20.8445 32.361C20.8445 32.8284 21.7922 33.4618 22.073 33.4864L22.4357 34.4827C22.7458 35.3191 24.8576 37.3978 25.4894 38.0067C25.5538 38.5479 25.6883 39.8517 25.7176 40.7619C25.5109 40.6957 25.2997 40.6464 25.0858 40.6143C22.4065 40.5712 9.72954 45.7803 5.28939 54.2919C-1.50246 67.3545 4.25394 76.2105 4.27734 76.272C0.439741 80.3002 -1.83006 89.7835 7.30179 93.9348C10.6936 95.418 14.252 96.4389 17.8903 96.9729C17.8376 98.0368 17.7674 102.465 18.7736 102.508C19.1188 102.508 19.3937 102.059 19.5751 101.708C20.1536 100.427 20.6253 99.096 20.9849 97.7293C22.7399 97.6063 22.6814 97.6371 22.7399 97.5448C31.4534 98.2379 40.2165 97.5685 48.7432 95.5584C48.8134 95.5584 48.8134 95.5891 48.9304 95.0479L49.9951 94.8573C55.8451 104.55 53.6923 93.1783 51.8963 90.4539C51.6924 90.0594 51.3504 89.7638 50.9428 89.6298C52.2609 88.8631 53.531 88.0086 54.7453 87.0714C58.1382 89.2712 61.6546 91.2531 65.2753 93.0061C67.9312 94.2361 104.704 79.1994 106.026 75.9583C106.184 75.577 105.664 75.1957 105.342 74.962C104.496 74.3904 103.619 73.8709 102.715 73.4061L102.785 72.8464C108.489 77.01 113.292 69.7714 111.8 66.7395ZM14.7605 19.0585C14.9828 20.1348 13.1342 20.0487 13.5203 19.1508C13.561 19.0647 13.6202 18.9898 13.6934 18.9321C13.7665 18.8744 13.8515 18.8356 13.9415 18.8187C14.2808 18.7326 14.6143 18.7264 14.7605 19.0585ZM94.1743 64.4148C86.0486 67.8219 74.4188 72.1515 68.0365 73.5475C68.0221 73.5478 68.0078 73.5513 67.9948 73.5579C67.9818 73.5645 67.9703 73.574 67.9612 73.5857C67.952 73.5974 67.9454 73.6111 67.9418 73.6258C67.9381 73.6405 67.9376 73.6558 67.9402 73.6708C67.9428 73.6857 67.9484 73.6999 67.9567 73.7123C67.965 73.7247 67.9758 73.7351 67.9883 73.7426C68.0008 73.7502 68.0148 73.7549 68.0291 73.7562C68.0435 73.7576 68.058 73.7556 68.0716 73.7505C74.9863 72.4036 86.3002 68.3508 94.4902 64.7592C95.0284 65.3434 95.5608 65.9215 96.0814 66.475C88.0084 70.122 75.1091 75.2572 68.288 76.8685C68.274 76.8698 68.2603 76.8742 68.248 76.8814C68.2357 76.8886 68.225 76.8985 68.2165 76.9104C68.2081 76.9223 68.2022 76.9359 68.1992 76.9504C68.1962 76.9649 68.1962 76.9799 68.1991 76.9944C68.202 77.0089 68.2079 77.0226 68.2162 77.0346C68.2245 77.0465 68.2352 77.0565 68.2475 77.0638C68.2598 77.0711 68.2734 77.0755 68.2875 77.0768C68.3015 77.0782 68.3157 77.0764 68.329 77.0715C75.7702 75.4848 88.219 70.6878 96.3739 66.7825L97.1403 67.5943C87.5228 71.9731 68.5805 80.3617 65.9422 80.743C65.3572 77.3421 66.2171 73.1355 67.4164 71.3089C70.1483 71.3643 82.1818 66.9178 92.4134 62.4652C93.0062 63.1048 93.5932 63.7547 94.1743 64.4148ZM66.1411 84.3838C64.2691 83.5413 62.0461 82.3543 59.5891 80.946C59.7369 80.5012 59.8504 80.0446 59.9284 79.5807C61.9876 80.7123 64.0234 81.7762 66.106 82.7295C68.0189 83.6151 88.5408 75.6816 99.6909 70.1712C100.042 70.5094 100.375 70.8292 100.697 71.1244C89.9331 76.5549 68.0189 85.2018 66.1411 84.3531V84.3838ZM101.095 71.4688C101.539 71.8624 101.949 72.213 102.318 72.5082C102.246 73.4663 102.073 74.4131 101.803 75.331C99.9307 76.315 67.4339 91.075 64.9477 91.075C64.4563 88.8241 65.1524 86.7393 66.4102 84.8574C70.6222 84.9312 92.3959 75.9214 101.095 71.4627V71.4688ZM34.2703 61.6165C34.4014 61.5255 34.5247 61.4226 34.6388 61.309C35.1595 60.7678 34.9196 60.1528 34.3931 60.079C34.8904 59.5071 34.5979 58.6953 33.5566 58.9474C32.977 59.0998 32.4524 59.4268 32.0473 59.8884C31.8659 59.3718 31.6963 58.7998 31.3394 58.6092C31.1113 55.7802 30.9533 53.4616 31.0001 52.945C31.4918 52.8916 31.9882 52.9123 32.4743 53.0065C50.6795 53.8983 40.8047 56.5182 53.1073 48.9414C53.4466 50.2882 53.7859 52.2993 54.1018 54.5194C53.6108 54.3665 53.0956 54.3184 52.5866 54.378C51.5219 54.4764 51.4868 55.3435 52.1245 55.7125C52.0111 55.7626 51.9155 55.849 51.8515 55.9594C51.7874 56.0698 51.7581 56.1986 51.7676 56.3275C51.8144 56.7765 52.2883 56.9856 52.7036 57.1086C52.2649 57.453 52.0894 58.0803 52.6451 58.4062C53.2675 58.7178 53.9624 58.8331 54.6458 58.7383C54.9734 61.512 55.2308 64.1565 55.3888 65.8416C54.1603 67.2499 49.2989 72.4098 47.5732 73.0248C47.0467 73.2154 33.0359 71.3212 32.4802 71.2413C32.4217 70.6263 32.1292 67.5205 31.8191 64.0335C33.0359 63.8367 34.7441 63.3016 34.9138 62.5083C34.9957 62.0962 34.6505 61.7518 34.2703 61.6165ZM54.4294 57.5268C54.7277 57.5268 54.9442 56.9118 53.7742 56.9118C53.3764 56.7888 53.002 56.758 52.6042 56.5981C51.6974 56.223 52.6802 55.9831 53.6162 56.2045C54.2012 56.4075 54.406 55.8355 53.7449 55.7064C53.6572 55.7064 51.7501 55.3189 52.2239 55.0114C52.3485 54.9446 52.483 54.9009 52.6217 54.8823C53.3007 54.7529 54.0012 54.8932 54.5873 55.2759C55.2425 55.7802 55.0553 57.4653 54.833 58.3509C54.757 58.5784 54.5405 58.6338 54.2831 58.6276C53.7719 58.5725 53.2744 58.4204 52.8148 58.1787C52.6217 58.0557 52.6276 57.9388 52.7036 57.7974C53.0839 57.0348 54.0199 57.5452 54.4469 57.5268H54.4294ZM55.81 66.1368C55.9211 66.0138 55.8743 65.9338 55.769 64.9068C59.3565 67.2166 63.0676 69.307 66.884 71.1675C65.1817 73.9411 64.7897 79.0702 65.714 81.9669C63.2921 80.8168 61.9583 80.1219 59.9752 78.9411C60.4841 74.1133 57.2198 69.2856 54.0316 68.0187C54.8272 67.2253 55.459 66.5427 55.8275 66.1368H55.81ZM66.3809 82.2805C66.2114 81.8854 66.08 81.4733 65.989 81.0505C69.2474 80.6139 88.102 72.2437 97.4971 67.9695C98.1172 68.5845 98.7197 69.1995 99.293 69.8145C88.4354 75.085 68.7443 82.7971 66.3985 82.2805H66.3809ZM55.0378 29.4459C56.98 22.0105 63.6899 17.7609 67.0829 16.3402C80.0231 10.9159 89.8979 14.3415 93.3728 28.4127C94.888 34.5196 93.9579 39.3658 91.9338 43.0804C89.0965 48.3202 84.1357 51.3091 80.9767 52.4284C72.1607 55.5649 64.0117 55.5034 58.9339 47.2132C55.6345 41.8504 53.4232 35.602 55.0378 29.4459ZM54.4177 37.2687C55.1649 40.9147 56.5667 44.3775 58.5478 47.4715C61.3675 52.0779 65.0647 54.0459 68.7619 54.6486C73.477 55.4173 78.2038 53.9598 81.1346 52.9204C81.8963 52.6461 82.6407 52.3215 83.3635 51.9487C85.8029 54.87 88.9327 58.5354 92.039 62.0163C91.2083 62.3853 90.3621 62.7543 89.5002 63.1233C79.3855 67.4283 68.4811 71.3704 67.1765 70.78C63.246 68.898 59.4251 66.7725 55.7339 64.4148C55.7339 64.4148 55.4648 61.7826 55.0319 58.4124C55.3478 57.3546 55.6579 55.651 54.8447 54.9561C54.7469 54.8711 54.6411 54.7969 54.5288 54.7347C54.2573 52.6904 53.8765 50.6639 53.3881 48.6646C53.3817 48.6411 53.3706 48.6193 53.3555 48.6006C53.3405 48.582 53.3218 48.5669 53.3008 48.5564C53.2797 48.546 53.2568 48.5403 53.2335 48.5399C53.2103 48.5395 53.1872 48.5443 53.1658 48.5539C53.0956 48.5539 52.7504 48.8061 52.2415 49.1689L50.7439 48.6277C50.662 48.597 50.7439 48.4986 48.0529 50.2144C45.8965 47.1205 43.0712 44.6099 39.8102 42.8898C45.8123 40.6696 50.6503 38.7631 54.4177 37.2687ZM44.9582 52.2685C45.0167 52.2685 50.6035 48.7384 50.6854 48.7692L52.025 49.2673C41.9162 56.0323 48.6262 53.4862 32.72 52.5883C33.6794 51.8257 33.89 51.6658 33.9251 51.6289C34.5569 51.2046 44.6774 52.207 44.9582 52.2685ZM35.7562 26.1372C35.8741 27.0005 35.9211 27.873 35.8966 28.7448C35.4134 29.2452 34.767 29.5332 34.0889 29.5504C33.0827 29.6058 31.9829 29.4766 31.6144 28.4865C30.538 25.7005 34.4341 25.0548 35.7562 26.1372ZM34.8553 24.6858C35.1302 25.1286 35.3759 25.473 35.528 25.6821C34.2352 25.1409 30.8188 25.4484 31.1288 27.9268C30.6855 27.8348 30.2263 27.8796 29.8067 28.056C29.485 25.4299 24.9571 26.0142 24.3545 27.8346C24.2139 27.7342 24.0548 27.666 23.8876 27.6342C23.7203 27.6024 23.5486 27.6078 23.3834 27.6501C23.284 26.5123 23.4185 24.8949 24.2843 24.4521C24.53 24.3229 24.9922 25.024 25.3783 25.1286C26.2545 25.3654 27.1645 25.4321 28.0634 25.3254C29.0933 25.2315 30.1169 25.0734 31.1288 24.8518C32.5679 24.489 32.4509 24.1507 33.4396 23.5234C33.5507 23.4558 33.9076 23.2467 34.0246 23.302C34.5979 23.6095 34.4224 23.997 34.8553 24.6858ZM29.485 28.4373C29.4499 29.6673 28.3676 30.3315 27.2444 30.393C26.2382 30.4545 25.1384 30.3192 24.7699 29.3352C24.6117 29.034 24.5407 28.6907 24.5657 28.3476C24.5906 28.0045 24.7104 27.6765 24.9103 27.4041C26.0101 26.0511 29.5903 25.9711 29.485 28.4373ZM20.3765 21.7584C20.084 20.3088 19.8885 18.8395 19.7915 17.3611C23.36 18.0315 27.262 18.5173 27.7124 18.3451C28.2506 18.1422 30.9533 17.3673 33.6911 16.5001C33.6619 18.4374 33.5507 19.6858 33.539 20.0794C29.1008 20.0359 24.6761 20.6003 20.3765 21.7584ZM14.1463 15.3255C15.6731 13.8249 25.1794 9.72899 26.7238 9.36614C28.1102 9.06479 38.2424 12.1398 39.6932 13.5912C38.6987 14.6674 28.6777 17.4349 27.5545 17.8531C26.9519 18.0807 15.4391 16.4017 14.1463 15.3255ZM23.8397 35.7988C23.0837 35.0985 22.5422 34.1782 22.2836 33.1543C22.2368 32.5393 21.8273 31.0695 21.412 30.8665C20.8986 30.4462 20.4573 29.9366 20.1074 29.3598C19.5692 28.5049 19.6219 27.4533 20.5228 26.9674C22.0379 26.1556 22.4299 28.3204 22.775 28.6956C22.9739 28.9047 23.518 28.6279 23.4302 28.0006C23.6974 28.1168 23.9835 28.1774 24.2726 28.179C24.2355 28.6079 24.2957 29.04 24.4481 29.4397C24.8693 30.6082 26.0744 30.8235 27.262 30.762C28.6484 30.682 29.8594 29.7964 29.8301 28.3573C30.1112 28.425 30.4032 28.425 30.6842 28.3573C30.7778 28.6833 31.4857 31.6107 31.2283 31.8136C31.108 31.9061 30.9761 31.9806 30.8363 32.035C30.1636 32.3241 29.9881 32.2195 30.0056 32.3733C30.0063 32.3844 30.0092 32.3952 30.0141 32.4051C30.019 32.4149 30.0258 32.4236 30.034 32.4305C30.0423 32.4375 30.0518 32.4425 30.0621 32.4454C30.0723 32.4482 30.0829 32.4488 30.0934 32.4471C30.6784 32.4471 31.7431 32.281 31.7138 31.6968C31.6681 30.5189 31.3871 29.3643 30.889 28.3081C30.9881 28.2745 31.0841 28.2312 31.1756 28.179C31.5091 29.6611 32.6381 29.9932 34.1006 29.9133C34.7349 29.8874 35.3467 29.6601 35.8556 29.2614C35.8344 31.0643 35.5157 32.8497 34.9138 34.5381C33.8432 37.3179 32.2345 37.7484 32.2345 37.7484C32.2024 37.7562 32.1721 37.7708 32.1456 37.7914C32.1191 37.812 32.097 37.8381 32.0805 37.8681C32.064 37.8981 32.0536 37.9314 32.0499 37.9658C32.0462 38.0002 32.0493 38.0351 32.059 38.0682L33.1003 41.6229C32.1467 43.0989 32.4509 43.0189 32.2286 42.9205C31.4389 42.5761 27.8996 41.4015 26.1095 40.8726C26.0675 39.8722 25.9777 38.8746 25.8404 37.8837C25.8346 37.6807 25.4543 37.5639 23.8397 35.7988ZM21.4997 42.2256C22.8745 43.4556 29.1047 47.3547 30.9416 48.025C31.1227 48.1198 31.3294 48.1459 31.5266 48.0988C31.7197 48.0066 31.6319 48.2649 32.4275 43.5355C32.7259 43.8922 33.4981 44.7655 35.4812 46.9242C35.5099 46.9577 35.5462 46.983 35.5868 46.9976C35.6274 47.0122 35.6708 47.0157 35.713 47.0077C35.7553 46.9997 35.7948 46.9804 35.828 46.9518C35.8611 46.9232 35.8867 46.8862 35.9024 46.8442C36.4134 45.3584 36.8431 43.843 37.1894 42.3055C37.387 42.3505 37.5822 42.4059 37.7744 42.4716C37.6691 45.2391 37.6984 50.6326 35.2648 51.3214C34.7917 51.2918 34.317 51.3166 33.8491 51.3952C30.0407 51.1492 25.6591 47.8098 23.0617 45.0484C22.231 44.1813 21.4003 43.4125 20.6281 42.5208L21.4997 42.2256ZM11.6717 64.7161C16.4161 60.2389 23.3308 59.2611 29.602 60.6325C29.8886 60.7248 29.8067 60.6879 30.1109 61.635C30.4368 61.3789 30.7367 61.0884 31.006 60.7678C31.2107 60.5649 30.7603 59.9991 30.8012 59.2488C30.8012 59.1012 30.8363 58.972 30.9709 58.9474C31.5559 58.8429 31.5559 60.3865 31.8893 60.5157C32.2228 60.6448 32.2345 60.1651 32.9833 59.71C35.6392 58.0803 32.5094 60.8109 32.5094 60.8847C32.5078 60.9207 32.5133 60.9567 32.5256 60.9903C32.538 61.0239 32.5569 61.0545 32.5811 61.0799C32.6054 61.1054 32.6344 61.1253 32.6664 61.1383C32.6984 61.1513 32.7326 61.157 32.7668 61.1553C33.0359 61.1553 33.1061 60.8416 33.9368 60.6325C34.0714 60.5956 34.3756 60.5403 34.399 60.6817C34.4575 60.9769 33.3928 61.5366 33.1412 61.7149C32.0063 62.127 32.3983 62.6251 32.6849 62.5452C33.1471 62.4222 33.5449 61.8625 34.1006 62.047C34.2469 62.0962 34.4926 62.2561 34.4633 62.416C34.4341 62.5759 34.2059 62.7543 34.0772 62.8588C33.0944 63.6276 30.9124 63.8736 30.8539 63.9043C30.9007 64.4701 31.3277 65.2512 31.2224 65.491C29.5572 69.1021 27.2771 72.362 24.4949 75.1096C24.4306 75.1404 22.1549 77.4466 21.6986 77.3667C21.2423 77.2867 21.8624 77.1945 23.2313 75.946C26.3616 72.957 28.914 69.3612 30.7486 65.3557C30.5731 64.7407 29.5786 61.758 29.4031 61.1245C26.0715 60.3918 22.6317 60.3918 19.3001 61.1245C12.9412 62.5944 10.6597 66.2905 10.3496 66.3459C9.96354 66.3582 11.3734 65.0298 11.701 64.7161H11.6717ZM18.8146 101.973C18.4402 101.444 18.2705 99.1807 18.3466 97.0528C19.0369 97.1574 19.7213 97.2435 20.4116 97.3234C20.5169 97.5879 20.4877 97.5633 20.5403 97.6248C20.318 98.4489 19.4347 101.315 18.8438 101.973H18.8146ZM48.6496 95.3124C43.7388 96.2985 38.7673 96.9151 33.773 97.1574C25.2905 97.594 15.3221 97.0036 7.48899 93.4305C2.84409 91.321 1.29969 87.8032 1.41669 84.3961C1.55196 81.5551 2.64245 78.8569 4.49379 76.7824C4.81741 77.6503 5.23555 78.4758 5.73984 79.2424C6.40089 80.0542 17.4925 80.5954 28.666 80.62C29.4186 79.8443 30.2136 79.1153 31.0469 78.4368C35.0074 79.9989 36.8969 80.8968 49.9015 89.4207L48.6496 95.3124ZM50.9428 90.0111C52.259 90.4969 53.7976 97.1205 53.2418 98.1844C52.8089 98.0614 51.5512 96.4809 50.3168 94.4944C50.2931 94.4551 50.2586 94.4241 50.218 94.4054C50.1773 94.3868 50.1323 94.3814 50.0887 94.3899L49.0474 94.6174C49.2053 93.8671 49.4686 92.5449 49.9483 90.1956C50.0856 90.0765 50.25 89.997 50.4253 89.9646C50.6006 89.9323 50.781 89.9483 50.9486 90.0111H50.9428ZM50.0653 89.5621C50.0653 89.4576 50.1179 89.3776 50.0653 89.3284C50.1238 89.3284 38.0903 81.2781 34.9138 79.7406C33.8725 79.2363 32.761 78.7443 31.5968 78.2584C34.123 76.1888 36.7965 74.326 39.5938 72.6865C43.4138 73.1785 47.3567 73.6336 47.7253 73.4983C49.0006 73.0555 51.6974 70.4602 53.704 68.3938C55.8626 69.1318 58.577 72.0838 59.3726 75.8292C60.0395 78.9534 59.3141 82.5388 55.7807 85.5954C54.0026 87.1096 52.0884 88.4381 50.0653 89.5621ZM105.512 75.8107C103.721 78.9288 67.8259 93.6457 65.4157 92.5756C61.8488 90.8706 58.3815 88.9443 55.0319 86.8069C56.9273 85.3125 58.5419 83.7319 59.4194 81.3273C60.373 81.8808 65.404 84.7159 66.1235 84.8328C64.8131 86.7823 64.1287 88.9225 64.6435 91.2349C65.0062 92.8278 100.2 76.684 101.826 75.8599C101.99 75.78 102.136 75.7185 102.189 75.6078C102.393 75.0684 102.532 74.5044 102.604 73.9288C104.23 74.8083 105.272 75.4848 105.535 75.8107H105.512ZM103.71 56.4505C101.2 53.64 98.4155 50.6572 95.8006 47.9143C101.966 50.8417 106.658 53.2095 107.249 54.0151C106.857 54.747 104.4 56.143 103.733 56.4505H103.71Z" fill="black"/>
</svg>
